<?xml version="1.0" encoding="utf-8"?>
<!-- Generator: Adobe Illustrator 24.2.1, SVG Export Plug-In . SVG Version: 6.00 Build 0)  -->
<svg version="1.1" id="Calque_1" xmlns="http://www.w3.org/2000/svg" xmlns:xlink="http://www.w3.org/1999/xlink" x="0px" y="0px"
	 viewBox="0 0 65.1 65.1" style="enable-background:new 0 0 65.1 65.1;" xml:space="preserve">
<style type="text/css">
	.st0{display:none;}
	.st1{display:inline;}
	.st2{fill:#FFFFFF;stroke:#000000;stroke-width:1.1251;stroke-miterlimit:10;}
	.st3{fill:none;stroke:#000000;stroke-width:1.1251;stroke-miterlimit:10;}
	.st4{fill:#FFFFFF;stroke:#000000;stroke-miterlimit:10;}
	.st5{fill:#FFFFFF;stroke:#000000;stroke-linecap:round;stroke-miterlimit:10;}
	.st6{fill:none;stroke:#000000;stroke-linecap:round;stroke-miterlimit:10;}
</style>
<g id="Calque_12" class="st0">
	<g class="st1">
		<path class="st2" d="M30.4,30.2c0,0-19-15.5-24.4-11.9s0.8,9.1,0.8,14.1C6.7,37.4-0.4,44.2,6,48s25.4-7.9,25.4-7.9
			s-0.5,2.7,5.3,2.9s7-2.8,7-2.8s5.6,4.1,12.6,5.9c11.3,3.1,4.6-10.4,4.6-10.4s3.7-9.7-2.5-13.3s-15.8,7.5-15.8,7.5
			s-2.2-2.4-6.1-2.8C31,26.8,30.4,30.2,30.4,30.2z"/>
		<path class="st3" d="M30.4,30.2c0,0,2.1,2.5,1.8,4.8s-1,5.2-1,5.2"/>
		<path class="st3" d="M42.4,30.1c0,0,1.3,2.8,1.3,5.2c0,2.4-0.2,5.4-0.2,5.4"/>
		<path class="st3" d="M25.2,30.4c0,0,6.9,1.9,6.8,3.8c-0.1,1.9-5.7,1.7-5.7,1.7"/>
		<path class="st2" d="M43.7,35.3"/>
		<path class="st3" d="M50.2,31.1c0,0-6.7,0.9-6.6,3.5c0.1,2.6,7.6,2.7,7.6,2.7"/>
	</g>
</g>
<path class="st4" d="M32,23c27.1,0,8.1,17.8,5.3,28.6c-1.1,4.1,9.6-1,17.6-13.8c6.5-8.1,5-20.1-1.4-27.6c-5.8-6.8-10-8.8-21.5-8.7
	C20.6,1.4,12.6,5.8,8.6,13.8c-3.7,7.5-3.2,15.6,2.3,24.3c5.5,8.9,19,17.1,17.9,12.9C26.1,40.3,4.9,23,32,23z"/>
<path class="st5" d="M28.3,49.2c0,0-15.7,1-15.4,5.5s8.8,8.5,12.4,5.9s5.6-8.2,5.6-8.2L28.3,49.2z"/>
<path class="st6" d="M16.4,53.1c0,0-4.3,4.3,2.6,2.6c10.4-2.5,9.6-5.8,9.3-5.9"/>
<path class="st5" d="M39.3,47.9c0,0,14.3,1.4,13.9,5.8s-7.6,8.1-11.2,5.5c-3.6-2.5-5.4-8.1-5.4-8.1L39.3,47.9z"/>
<path class="st6" d="M49.7,51.8c0,0,4.9,3.4-2,1.8c-10.2-2.2-7.4-4.6-7.1-4.7"/>
<path class="st5" d="M28.7,44c0,0-1.8,0.9-1.5,3.8c0.1,2.9,0.4,4.8,1.8,5.3c1.4,0.6,2.7-0.1,2.7-0.1s1.4,1.4,2.7,1.3
	c1.5-0.1,4-1.7,4-1.7s3,0.9,2.3-2.6s-0.5-6.9-3.3-7.1c-2.6-0.1-2.3,1.9-2.3,1.9s-1.6-1.4-3.3-1.6C30.4,43,30,44.7,30,44.7
	S29.6,43.4,28.7,44z"/>
</svg>
