<?xml version="1.0" encoding="utf-8"?>
<!-- Generator: Adobe Illustrator 24.1.2, SVG Export Plug-In . SVG Version: 6.00 Build 0)  -->
<svg version="1.1" xmlns="http://www.w3.org/2000/svg" xmlns:xlink="http://www.w3.org/1999/xlink" x="0px" y="0px"
	 viewBox="0 0 65.1 65.1" style="enable-background:new 0 0 65.1 65.1;" xml:space="preserve">
<style type="text/css">
	.st0{display:none;}
	.st1{display:inline;}
	.st2{fill:#FFFFFF;stroke:#000000;stroke-width:1.1251;stroke-miterlimit:10;}
	.st3{fill:none;stroke:#000000;stroke-width:1.1251;stroke-miterlimit:10;}
	.st4{fill:#FFFFFF;stroke:#000000;stroke-width:0.936;stroke-miterlimit:10;}
	.st5{fill:#FFFFFF;stroke:#000000;stroke-width:1.0431;stroke-miterlimit:10;}
	.st6{fill:#FFFFFF;stroke:#000000;stroke-width:1.1795;stroke-miterlimit:10;}
	.st7{fill:#FFFFFF;stroke:#000000;stroke-width:1.2152;stroke-miterlimit:10;}
	.st8{fill:#FFFFFF;stroke:#000000;stroke-width:0.9745;stroke-miterlimit:10;}
</style>
<g id="Calque_12" class="st0">
	<g class="st1">
		<path class="st2" d="M30.4,30.2c0,0-19-15.5-24.4-11.9s0.8,9.1,0.8,14.1C6.7,37.4-0.4,44.2,6,48s25.4-7.9,25.4-7.9
			s-0.5,2.7,5.3,2.9s7-2.8,7-2.8s5.6,4.1,12.6,5.9c11.3,3.1,4.6-10.4,4.6-10.4s3.7-9.7-2.5-13.3s-15.8,7.5-15.8,7.5
			s-2.2-2.4-6.1-2.8C31,26.8,30.4,30.2,30.4,30.2z"/>
		<path class="st3" d="M30.4,30.2c0,0,2.1,2.5,1.8,4.8s-1,5.2-1,5.2"/>
		<path class="st3" d="M42.4,30.1c0,0,1.3,2.8,1.3,5.2c0,2.4-0.2,5.4-0.2,5.4"/>
		<path class="st3" d="M25.2,30.4c0,0,6.9,1.9,6.8,3.8c-0.1,1.9-5.7,1.7-5.7,1.7"/>
		<path class="st2" d="M43.7,35.3"/>
		<path class="st3" d="M50.2,31.1c0,0-6.7,0.9-6.6,3.5c0.1,2.6,7.6,2.7,7.6,2.7"/>
	</g>
</g>
<g id="Calque_2">
	<circle class="st4" cx="33" cy="12.9" r="5.1"/>
	<circle class="st4" cx="25.1" cy="13.7" r="5.1"/>
	<circle class="st5" cx="17.7" cy="18.1" r="5.7"/>
	<circle class="st2" cx="11.1" cy="25.4" r="6.1"/>
	<circle class="st2" cx="7.6" cy="33.5" r="6.1"/>
	<ellipse class="st6" cx="9.9" cy="42.3" rx="6.4" ry="6.5"/>
	<ellipse class="st7" cx="19.4" cy="46.7" rx="6.6" ry="6.7"/>
	<ellipse class="st7" cx="29.2" cy="49.7" rx="6.6" ry="6.7"/>
	<ellipse class="st8" cx="42.3" cy="15.7" rx="5.4" ry="5.2"/>
	<circle class="st5" cx="49.4" cy="22.3" r="5.7"/>
	<circle class="st2" cx="54.9" cy="30.3" r="6.1"/>
	<circle class="st2" cx="57.7" cy="40.3" r="6.1"/>
	<ellipse class="st6" cx="50.8" cy="48.4" rx="6.4" ry="6.5"/>
	<ellipse class="st7" cx="40.4" cy="50.7" rx="6.6" ry="6.7"/>
</g>
</svg>
