<?xml version="1.0" encoding="UTF-8"?>
<svg id="Calque_1" xmlns="http://www.w3.org/2000/svg" version="1.1" viewBox="0 0 13.3 13.3">
  <!-- Generator: Adobe Illustrator 29.3.0, SVG Export Plug-In . SVG Version: 2.1.0 Build 146)  -->
  <path d="M1.6,13.3h-.3c-.4,0-.5-.4-.5-.7,0-1.1,1.7-3.1,2.6-3.7s1.1-.5,1.6-.9.6-.6.9-.8c.7-.4,1.6-.6,2.3-.9,1.1-.6,1.9-1.6,2.5-2.7s.8-1.7,1.1-2,.6.4.6.6c.1,1.4-1.9,3.8-3,4.6s-1.5.7-2.2,1.1c-1.2.7-1.3,1.6-2,2.7s-2.1,2.2-3.1,2.6l-.6.2Z"/>
  <path d="M10.3,0c.1,0,.2,0,.3,0,.2.1.9.8,1,1,.3.4,0,.8-.5.6-.3-.3-.8-.7-1-1s0-.5.2-.6Z"/>
  <path d="M6.8,4.5c.1,0,.2,0,.4,0,.2.2.8.8,1,1,.3.4-.1.8-.5.6s-.9-.9-1-1c-.2-.2-.1-.5.2-.6Z"/>
  <path d="M7.9,3.6c.1,0,.2,0,.3,0s.9.9,1,1c.2.4-.1.8-.5.5s-.9-.9-1-1c-.1-.2,0-.5.2-.6Z"/>
  <path d="M8.9,2.5c.1,0,.2,0,.3.1.2.1.8.8,1,1,.3.4-.1.8-.5.6s-1-.9-1-1c-.2-.2,0-.6.3-.6Z"/>
  <path d="M9.5,1.3c.1,0,.2,0,.3,0s1,.9,1.1,1.1c.2.3-.2.7-.5.5s-1-1-1.1-1.1c-.1-.2,0-.5.2-.6Z"/>
  <path d="M5.5,4.9s0,0,.1,0l1.1,1.1c.2.4-.2.7-.5.5l-1.1-1.1c-.1-.3,0-.6.3-.6Z"/>
  <path d="M7,1.6c0,0,.1,0,.2,0,0,0,.8.7.8.8.2.3-.2.7-.5.5s-.8-.8-.8-.8c-.1-.2,0-.5.3-.5Z"/>
  <path d="M6.1,2.6c.1,0,.2,0,.3,0s.6.6.7.7c.2.4-.2.7-.5.5s-.6-.6-.7-.7c-.1-.2,0-.5.2-.6Z"/>
  <path d="M5.5,3.7c0,0,.2,0,.2,0s.4.4.4.4c.2.3-.2.7-.5.5s-.4-.4-.5-.5c-.1-.2,0-.5.3-.5Z"/>
  <path d="M8.1.8c.2,0,.8.5.8.7s-.3.4-.6.3-.5-.5-.5-.5c-.1-.2,0-.5.3-.5Z"/>
  <path d="M9.1,0c0,0,.2,0,.2,0s.4.4.4.4c.1.3-.1.6-.4.5s-.5-.4-.5-.5c0-.2.1-.4.3-.5Z"/>
</svg>