<?xml version="1.0" encoding="utf-8"?>
<!-- Generator: Adobe Illustrator 24.1.2, SVG Export Plug-In . SVG Version: 6.00 Build 0)  -->
<svg version="1.1" id="Calque_2" xmlns="http://www.w3.org/2000/svg" xmlns:xlink="http://www.w3.org/1999/xlink" x="0px" y="0px"
	 viewBox="0 0 350 290" style="enable-background:new 0 0 350 290;" xml:space="preserve">
<style type="text/css">
	.st0{fill:#FFFFFF;stroke:#020203;stroke-miterlimit:10;}
	.st1{fill:none;stroke:#020203;stroke-miterlimit:10;}
	.st2{fill:none;stroke:#020203;stroke-width:1.0272;stroke-miterlimit:10;}
</style>
<path class="st0" d="M114.3,266.5c3.4-10.2,5.4-14.6,10.6-15c5.1-0.3,22.5-0.7,31.7-5.8c9.2-5.1,5.8-26.8,5.8-26.8
	s-27.3-12-35.4-16.5c-10.9-6.1-17.1-15.4-19.8-25.6s0.7-11.7,1.7-17.5c1-5.8-2.7-8.2,2-10.6c4.8-2.4,7.1-11.2,7.1-17
	s5.5-10.4,14-11.8s3.2-13.7,4.2-17.1c1-3.4,8.7,2,13.8-0.4c5.1-2.4,1.2-13.6,1.9-16c0.7-2.4,10.3-1.3,13-3.7c2.7-2.4-0.1-9.9,4-14.3
	c4.1-4.4,21.3,14.9,21.3,14.9s6.8-8.3,12.4-10.6c5.6-2.2,9,2,8.2,9.5c-0.9,7.5,1.9,5.6,5.3,8.5c3.4,2.9,1.5,5.3,2.7,8.2
	c1.2,2.9,6,0.9,8.3,5.1c2.4,4.3-6.8,3.7-5.1,10.2s8.3,2.7,13.3,7.3c4.9,4.6-2.4,7.3-3.7,13.1c-1.4,5.8,4.9,3.4,7.7,7.1
	s-2.9,7-1,11.1c1.9,4.1,2.7,1,4.6,6.8c1.9,5.8-8.9,15.3-8.9,15.3s-2.8,9.6-4.3,13.7c-0.5,1.6-1.5,3.3-3.2,5.1
	c-3.2,3.4-9,7.5-20.2,13.1c-11.4,5.8-30.7,12.9-30.7,12.9s-0.1,0.7,0.2,8.7s1.8,11.5,7.4,15.7c5.6,4.3,24.4,2.8,33.6,6.9
	c7.8,3.4,9.9,27.4,9.9,27.4c-0.7-6.5,6.3-4.8,13.8-10.2s-10.9-16.3-6.5-10.2c4.4,6.1,15.7,2.7,15.7,2.7s-8.5-2.4-8.2-9.5
	c0.3-7.1,7.8,2.4,10.6,6.1c2.7,3.7,9.2,6.8,9.2,6.8s-1.7-5.4-3.4-10.2c-1.7-4.8,4.4-5.1,8.5-2.7s12.9,0.3,14.6-5.1
	c1.7-5.4-5.1-10.9-5.1-10.9s6.8-1.4,10.9,1.4c4.1,2.7-1,6.5-1,6.5s5.1-4.8,10.9-8.2c5.8-3.4-5.1-5.1-5.1-5.1s7.1,0,13.8-3.6
	c6.6-3.6,5.1-10.7,5.1-10.7s12-5.1,14.6-10.5c2.6-5.4-4.6-3.8-7.1-5.6s5.6-5.6,7.9-10.5c2.3-4.9-3.3-9.4-4.1-15.3
	c-0.8-5.9,5.2-7.7-1.7-13.8s6.6-2.6,6.6-2.6s1.8,3.8,7.7,3.8s5.1-3.1,10.2-5.1s4.3,7.1,4.3,7.1s1.5-3.8,0.3-9.2
	c-1.3-5.4-11-3.8-17.1-2.6c-6.1,1.3-1.3-2.6-2.6-8.2c-1.3-5.6-4.1,0.8-7.7-0.5c-3.6-1.3,0.5-5.4,1.5-10.5c1-5.1-2.3-3.8-7.4-7.1
	s1.8-6.9,2.3-12.5c0.5-5.6-0.5-1.5-5.1-4.1c-4.6-2.6-1-4.3,1-12c2-7.7-5.6-4.6-11-4.1c-5.4,0.5-8.9-7.9-8.9-7.9s-1-5.1-1-10.7
	s-7.7-4.6-7.7-4.6s0.5-1.8-0.5-6.1c-1-4.3-4.1-5.6-4.1-5.6s-1.3-4.1-6.6-7.1s-8.2,1.3-8.2,1.3s-1.5-6.4-6.1-7.9
	c-4.6-1.5-6.6,5.1-6.6,5.1s-1.5-5.4-4.3-6.4c-2.8-1-3.3,3.3-7.4,4.6c-4.1,1.3-0.8-3.8-5.9-10.7s-14.3,3.1-14.3,3.1s1.3-4.3-0.3-10.2
	c-1.5-5.9-4.1-2-8.4-3.6c-4.3-1.5-2-2.8-3.8-7.1c-1.8-4.3-10.2-1.5-10.2-1.5s-3.3-6.9-8.9-6.4s-2.6,6.4-8.4,7.9
	c-5.9,1.5-2.8,3.1-2.8,3.1s-2.8-0.5-5.4-1.3c-2.6-0.8-4.6-0.8-4.6-0.8s-4.9-5.6-14-6.4c-9.2-0.8-15.8,4.9-15.8,4.9
	s-2.3-6.9-12.5-3.6S121.9,30,121.9,30s-2.6,0-5.1,0s-3.1,2.3-3.1,2.3s-8.9-5.4-16.6-2.8S95.6,41.7,91.8,45s-6.1-2.6-13-5.9
	c-6.9-3.3-6.4,7.7-10.5,10.5c-4.1,2.8-4.9-1-9.7-5.1s-3.6,2.8-8.9,4.9s-4.1-6.6-4.1-6.6s-3.3,6.4-2.8,10.5s8.7,0.8,11-1
	c2.3-1.8,20.2,1.8,12.8,7.7c-7.4,5.9-2.8,9.7-2.8,9.7s-7.9,2.6-15.8,5.6s-1.3,8.4-1.3,8.4s0,0-5.6,2c-5.6,2-0.3,8.9-2.6,15.8
	c-2.3,6.9-7.7-0.5-18.1,3.8c-10.5,4.3,0,12.8,0,12.8s-6.4,0.5-11,4.9c-4.6,4.3,3.1,9.4,5.1,13.8s-4.3,5.6-12.3,11
	c-7.9,5.4,3.3,11.5,3.3,11.5S5,166,9.3,169.4c4.3,3.3,7.9-6.4,7.9-6.4s2.8,2.8-0.5,10.5s-10.2,3.3-7.4,13c2.8,9.7,14.3,0.8,13,8.7
	c-1.3,7.9-4.1,4.6-1.3,11s7.4,0.8,7.4,0.8s-4.9,5.6-8.4,10s6.4,3.8,7.1,9.7c0.8,5.9,8.4,5.9,8.4,5.9s-3.6-0.8-5.4-5.4
	c-1.8-4.6,4.9-1.8,7.7-2.8c2.8-1,4.6-0.8,8.4,1s4.1,5.1,2,7.4s-10.5-3.3-10.5-3.3s4.6,3.6,7.9,6.4c3.3,2.8,8.2,0.5,8.2,0.5
	s1.8,3.3,11,6.9c9.2,3.6,2.8,2.8,2,10.5c-0.8,7.7,4.3,5.6,8.9,6.9c4.6,1.3,10.7,5.4,10.7,5.4s-2.3-5.1-3.3-7.9
	c-1-2.8,7.1-5.4,7.1-5.4s-4.1,4.6-3.6,8.4c0.5,3.8,8.7,0.8,7.4,4.6c-1.3,3.8,2,5.9,8.4,8.4c6.4,2.6,6.1,8.7,6.1,8.7L114.3,266.5z"/>
<path class="st1" d="M191.7,77.6v0.9c0,0,6.8-16.3,16-13.4c9.2,2.9,10.4,18.4,16.7,18.6s9-15.1,16.7-9.5s-2.9,10.7,4.4,13.8
	c7.3,3.1,11.7,1.7,11.7,1.7s-5.6-7.7,3.1-6.8c8.7,0.9-3.1,12.9,9.2,14.5c12.3,1.5,10.7,8.5,10.7,10.7c0,2.2,7.5-10,11.7-1
	c4.3,9,4.3,9,4.3,9s8.5-3.9,11.1,3.4c2.6,7.3-1.4,12.1-1.4,12.1l7.8,4.6c0,0,8,4.3,6.8,10.4c-1.2,6.1-8,8-8,8s5.6,0.5,4.1,4.8
	c-1.5,4.3-6.3,6-6.3,6s3.9,7.7,0.5,14c-3.4,6.3-8.3,9.9-3.6,12.3c4.8,2.4,11.7,9.4,5.4,12.1c-6.3,2.7-8.9,2.9-6.5,8.2
	c2.4,5.3,3.6,8.2,3.6,8.2"/>
<path class="st1" d="M212,74c0,0,3.1,7.1,8.7,10.9c5.6,3.7,11.1,1,12.3,7.1c1.2,6.1,10,12.6,7,17.9s-8,6.5-3.2,9.7
	c4.8,3.2,9,1,9.2,4.3c0.2,3.2-4.9,4.1-1.5,6.5c3.4,2.4,14,0.9,11.9,8.7c-2,7.8-13.8,10.2-9,17.5c4.8,7.3,18,7.8,13.3,15
	c-4.8,7.1-16,10.7-8.3,17.9c7.7,7.1,16.2-7,16.2,1s-8.2,8.7-5.6,16s12.1,6.5,9,13.3c-3.1,6.8-6.3,12.3-11.6,7.8
	c-5.3-4.4-3.2-9.7,0.7-9.7c3.9,0,3.9,0,3.9,0"/>
<path class="st1" d="M230,80.5c0,0,6.8-3.9,7,3.1s-2,9.5,3.7,13.8c5.8,4.3,10.9,3.9,10,8.9c-0.9,4.9-3.1,7.1-3.1,7.1
	s9.2-4.4,10.4,3.4c1.2,7.8-5.4,9.4,0.3,13.8c5.8,4.4,11.2,4.6,11.2,4.6s-8.3,3.6-2.6,9s13.1,3.7,12.3,12.6c-0.9,8.9-4.1,6.1-2.7,9.7
	c1.4,3.6,11.6,0,10.6,7.3s-10.4,10.7-9.5,15c0.9,4.3,11.1-7.5,8,2.4c-3.1,9.9-13.6,12.1-12.1,19.7s12.3,4.8,8.3,11.9
	c-3.9,7.1-14.6,17.4-15,21.8c-0.3,4.4-3.2,5.4-3.2,5.4"/>
<path class="st1" d="M252.5,90.4c0,0-3.2,4.9,1.7,8.5c4.9,3.6,12.6,2.2,10.6,8c-2,5.8-9.5,10.9-3.7,16.7c5.8,5.8,15.3,8.9,16.9,3.4
	c1.5-5.4-2.2-10.2-5.4-7.8c-3.2,2.4-3.6,11.9,3.1,14.3s11.2-4.3,10,3.1c-1.2,7.3-6.6,8.2-2.7,10.7s11.2,1.2,9,6.3s-8.2,5.1-7.5,2.4
	s8.3-3.1,7.7,3.2c-0.7,6.3-6.5,9.9,1.4,14.1c7.8,4.3,12.4,5.6,10,9.7c-2.4,4.1-7.8,5.6-7.8,5.6s11.6,1.2,7.3,8
	c-4.3,6.8-9.5,1.7-5.6,8.9c3.9,7.1,14.3,8.7,8.7,14c-5.6,5.3-12.3,5.8-13.4,10.6"/>
<path class="st1" d="M280,108.6c0,0-4.2,4.9,1.1,8.4c5.4,3.6,13.7-2,13.8,5.6s-11.2,12.8-5.1,19.8c6.1,7,13.8,1.4,14.4,8.8
	s-6.6,11-0.9,13.8c5.7,2.8,7,0.1,7,0.1"/>
<path class="st1" d="M232.3,180.6c0,0,15.4,1.7,16.3,7.3c0.9,5.6-7.1,8.8-4.6,14.9c2.6,6.1,14.6-0.9,13.7,6s-12,8.2-11.1,15.4
	c0.9,7.3,10.9,5,11.9,10.5c1,5.5-7.7,2.6-7.5,9.6c0.1,7,8.2,13,8.2,13"/>
<path class="st1" d="M228.8,190.7c0,0,14.3,2.2,11.7,9.8s-10,4.6-6.9,12.8s13,11,13,11s-7.1,3.7-3.1,6.6c4.1,2.9,12.8,1.7,6.9,6
	c-5.9,4.3-13.1,9.1-8.7,16.3"/>
<path class="st1" d="M227.6,194c-1.4,4.3-5.9,7.9-4.5,14.8c1.4,6.9,9.8,5.4,7.8,12c-2,6.6-5.6,3.3-5.4,8.3c0.3,5,8.6,0.4,6.3,7.1
	c-2.3,6.8-6.6,3.8-6.6,10.9c0,7,4.3,1,3.7,7.5c-0.6,6.5-2.9,4.6-0.9,8s12.8-0.4,7.7,8.3"/>
<path class="st1" d="M191.7,78.5c0,0,3.6-18.7,10.2-18.7c6.6,0,0.3,2.6,7.7,0.9c7.3-1.7,9-11.2,12.1-1.7s1.5,17.2,7.1,14.5
	c5.6-2.7,6.3-13.3,11.1-7.8c4.8,5.4,6,13.1,11.1,10.7c5.1-2.4,4.3-10.9,11.1-2.4c6.8,8.5,8,9.7,11.1,10.2c3.1,0.5,7.7-5.3,9.4,1.5
	s-0.3,9.2-0.3,9.2s1.4-20.1,6.6-14.1c5.3,6-4.1,18.6,1.2,20.3c5.3,1.7,11.6-8.3,13.3-3.7c1.7,4.6-6.6,3.9-3.7,7.7s6.8-2.9,8,3.4
	c1.2,6.3-0.7,11.7,1.9,12.1s4.9-0.5,4.9-0.5"/>
<path class="st1" d="M204.3,59.4c0,0,2-7.1,10.7-7.7c8.7-0.5,12.6,4.1,12.6,4.1s1.5-7.3,6-3.4c4.4,3.9,3.7,7,3.7,7s1.7-5.8,5.6-1.7
	c3.9,4.1,3.9,7.5,3.9,7.5s3.7-10.2,9.5-6.3c5.8,3.9,2,10.6,5.3,10.9s1.7-5.6,9.4-3.6c7.7,2,1.2,8.3,6.3,8.3s7.8-2.9,9.7,0.2
	c1.9,3.1,1.7,6,1.7,6"/>
<path class="st1" d="M281,57.8c-5-4.5-9.1,7.1-9.1,7.1s-0.5-3.9-7.8-10.7c-7.3-6.8-9.4,2.7-9.4,2.7s-3.2-2.2-5.4-5.6
	s-8.3,1.2-8.3,1.2s-1.7-1.7-8.3-7.8c-6.6-6.1-18.2,6.3-18.2,6.3s3.1-2.4,4.3-9.4c1.2-7-5.4-12.1-9.5-11.7c-4.1,0.3-6.5,2-7-1.9
	c-0.5-3.9,3.7-7.1-3.2-6.1c-7,1-6.8,0.2-10.7-1.4c-3.9-1.5-3.9-4.9-3.9-4.9s-12.8,0.9-13.6-4.8c-0.9-5.6,3.2-10.2,5.8-7.8
	s-2,5.8-2,5.8"/>
<path class="st1" d="M211.8,51.2c0,0,4.6-8.5-1.4-12.6c-6-4.1-9.5,2.9-13.4-1.7c-3.9-4.6-2.9-8-9.4-10.9c-6.5-2.9-8.3-4.3-8.3-4.3"
	/>
<path class="st1" d="M205,56.8c0,0,8-3.9,1.2-6.8c-6.8-2.9-9.9,9.2-12.6,2.6s4.4-8.7-1.2-14.1s-11.6-6.3-11.6-6.3s2-6.5-4.1-7.8
	s-10.2,4.4-12.3,2.2c-2-2.2,1.5-4.6-1.2-5.4c-2.7-0.9-3.4,1.2-3.4,1.2s-3.1-10.2-8-7s-2.7,14-6.3,15.1c-3.6,1.2-6-10.9-12.6-6
	c-6.6,4.9-5.8,7.1-5.8,7.1s-3.4-4.4-4.8-0.9s-1.9,6-6.5,6c-4.6,0-12.1-7.7-15.7-2.6c-3.6,5.1,1.7,14-3.6,16.5s-12.6-0.7-16,3.1
	c-3.4,3.7-2,6.8-2,6.8s-7.3-2.9-11.6,1s-3.4,7.9-3.4,7.9"/>
<path class="st1" d="M193.2,71.8c0,0,2.7-14.3-4.3-18.2c-7-3.9-5.1,1.7-9.4-1.4c-4.3-3.1,8.5-6.6,2.4-10.6s-10.4-7.5-15-3.1
	c-4.6,4.4-3.6,9.5-9.2,10.7s-5.4-9.2-14-1s-9.2,13.1-12.3,15.1c-3.1,2-6.6,4.3-6.6,4.3s-8.9-1-9.5,4.8c-0.7,5.8,3.9,9.5,3.9,9.5
	s-17.5-3.2-18.7,9.4s7.7,15.1,2.6,20.4s-22.8,8.9-26.6,14.6s10.7,16.9,10.7,16.9s-16.7,7.5-16.9,12.9c-0.2,5.4,7.8,7,3.4,13.6
	c-4.4,6.6-10.9,8.7-7,14.1s12.6,12.6,6,16c-6.6,3.4-14.5,1.4-13.6,8.5s10.9,11.1,10.9,11.1s-9,1-11.2,6.6c-2.2,5.6-5,10.2-5,10.2"/>
<path class="st1" d="M165.8,39c0,0-1.5-14.3-8.7-11.7c-7.1,2.6-4.4,11.4-4.4,11.4s-11.2-3.6-15,1.4c-3.7,4.9-0.3,9.4-5.3,10.6
	c-4.9,1.2-7.5-1.9-7.5-1.9s-11.2-11.9-17.2-9.2c-6,2.7-0.5,11.1-7,15.5S88.6,55.5,85,62.1c-3.6,6.6,3.4,13.1-5.3,13.8
	c-8.7,0.7-11.1-5.3-16.5,0c-5.4,5.3-6,6.6-6,6.6l-10.6,1"/>
<path class="st1" d="M144.7,30c0,0-17.5,2.2-20.6,6c-3.1,3.7,8.3,14.5,2.9,19.2c-5.4,4.8-11.7-4.3-16.9,1.2s-1.9,10.7-1.9,10.7
	s-8.7-1.2-11.9,3.2c-3.2,4.4-2,9.9-6.5,11.2s-13.3-6-16.2,1.2c-2.9,7.1,1.5,10.7,1.5,10.7s-4.9-4.8-10.9,1.7s-6,15-6,15
	s5.8,5.4-4.9,9.4s-24.3-2-26.4,8s4.6,27.7-0.7,28.6c-5.3,0.9-7.8-0.7-7.8-0.7s-0.7,12.3-5.4,7.3s-6.5-6.1-0.5-10s10.6-6.6,8.9-11.9
	c-1.7-5.3-11.2-7.1-5.3-12.3s10.6-4.6,9.4-9c-1.2-4.4-8.7-11.4-0.9-12.8s17.4,4.9,19.7-1.9c2.4-6.8-4.1-14.5,4.6-16.9
	c8.7-2.4,11.6-2,11.6-2s-4.9-0.7-3.4-3.4"/>
<path class="st1" d="M190.6,77.4c0,0-7.1-25.7-14.4-24.3s-7.1,7.3-7.1,7.3s-6.5-3.4-9.4,1.2s-4.8,6-4.8,6s-5.6-13.4-9.2-8.9
	c-3.6,4.6,1,8.2-3.7,11.2s-13.6-7.1-15.8,0.5s5.4,19.4-1.9,22.3c-7.3,2.9-16.5-9.7-18.4-0.2s9.2,7.8,8.3,12.8
	c-0.9,4.9-6.3,7.5-8.2,9.4c-1.9,1.9-2.9,6-2.9,6s-8.9,1.7-8.9,9.2c0,7.5,9.2,7.5,5.8,13.1c-3.4,5.6-5.6,3.6-6,10.7
	c-0.3,7.1-1.4,9.4-1.4,9.4s-9.9-1.9-10,6.1c-0.2,8,2.9,13.8,11.9,8s11.2-10,11.2-10"/>
<path class="st1" d="M190.9,78.8c0,0-3.4-19.6-14.8-17.4c-11.4,2.2-9.5,7.5-13.4,11.4c-3.9,3.9-8.9-3.2-11.9,2s0.7,12.3,0.7,12.3
	s-9.5-1-11.9,4.4s-4.3,11.1-4.3,11.1s-8.2,0.5-11.9,7.1s-1.5,5.8-7.5,11.2c-6,5.4-10.6,3.9-9.5,10.7c1,6.8,7.7,6.1,3.2,11.2
	c-4.4,5.1-7.7,7.3-6,13.4c1.7,6.1,0.3,14.3,2.2,23.7c1.9,9.4,7.7,12.8,3.2,17c-4.4,4.3-9.4,5.8-2.2,12.3c7.1,6.5,7,7.8,4.1,11.4
	c-2.9,3.6-4.9,9-0.7,11.6s11.7,4.6,3.4,10.2s-13.1,4.4-10.4,9.9c2.7,5.4,5.1,4.8,2.2,8.3c-2.9,3.6-12.4-0.7-7.1,5.3
	c5.3,6,8.9,11.3,8.9,11.3"/>
<path class="st1" d="M108.3,67.1c0,0-0.2,9.2-8.7,15.7c-8.5,6.5-14,6.1-11.9,11.2c2,5.1,4.1,7.8,4.1,7.8s-10.6-4.1-8.9,3.4
	c1.7,7.5,2,5.4,2,5.4s-18,5.1-15.7,14.6c2.4,9.5,9.9,18.7,3.7,21.8c-6.1,3.1-18.7-1-16,8.9c2.7,9.9,11.6,11.9,11.6,11.9
	s-19.4,2.7-16,10.9s9.2,13.3,9.2,13.3s-17,3.4-14,8.2c3.1,4.8,8.9,7.1,8.9,7.1s-6.5,3.1-3.7,7.5c2.7,4.4,17,5.4,15.7,14.3
	c-1.4,8.9-7.7,12.4-7.7,12.4"/>
<path class="st1" d="M90.4,82.7c0,0-10.2,2.4-9.5,6.1c0.7,3.7,2.4,7.8,2.4,7.8s-13.6-2-14,7.8c-0.3,9.9,3.1,11.6,3.1,11.6
	s-14,7.1-12.3,14.6c1.7,7.5,1.7,7.5,1.7,7.5s-16.7-4.8-13.6,6.5c3.1,11.2,10.9,17.4,3.1,22.5c-7.8,5.1-18.4,4.1-13.6,14.3
	s6.8,8.5,3.4,15c-3.4,6.5-7.5,8.5-2.4,12.9c5.1,4.4,12,12.3,4.5,14.7"/>
<path class="st1" d="M48.9,120.5c0,0-4.4,2-2,6.5c2.4,4.4,2.7,7.1-4.8,10.2s-13.6,8.5-10.2,13.3s9.5,7.8,9.5,7.8s-8.5-4.1-6.8,4.1
	c1.7,8.2,1.4,17.4-1.7,15.7c-3.1-1.7-8.5-12.6-9.9-7.8c-1.4,4.8,7.8,11.2,5.4,16.3s-8.9,5.1-8.9,5.1"/>
<path class="st1" d="M84.6,178.7c0,0-3.4,2.7,0.3,9.5c3.7,6.8,5.8,8.2,5.8,8.2s-5.4,0.7-2,7.1c3.4,6.5,12.9,4.8,10.2,10.2
	s-20.8,5.1-15.7,14.6c5.1,9.5,20.4,1.4,17.4,9.5S91,252.2,91,252.2"/>
<path class="st1" d="M74.4,198.7c0,0-7.7,7.9-1.3,13c6.4,5.1,10.2,0.8,7.7,7.9c-2.6,7.1-10.7,3.8-7.4,12c3.3,8.2,10.7,6.1,7.9,11.7
	c-2.8,5.6-11.7,1.8-13.3,7.1"/>
<path class="st1" d="M120.6,199.2c0,0-2.3,2.3-2,7.9c0.3,5.6,5.4,3.3,4.3,8.4c-1,5.1-12.3,6.6-5.4,11s9.2,4.6,7.9,7.9
	s-11.5,5.6-7.1,9.2c4.3,3.6,6.5,7.9,6.5,7.9"/>
<path class="st1" d="M130.3,204.1c0,0-5.4,5.1-2,10c3.3,4.9,8.7,7.1,6.1,9.7s-11.7,3.8-7.4,7.9c4.3,4.1,7.7,6.6,7.7,6.6
	s-8.4,1.8-6.1,5.1c2.3,3.3,5.9,7.7,5.9,7.7"/>
<path class="st1" d="M136.5,207.1c0,0-3.6,8.2,1,11.5c4.6,3.3,4.6,3.8,3.3,6.4s-8.7,5.4-4.9,8.2c3.8,2.8,8.4,2.3,6.4,6.4
	c-2,4.1-8.9,6.9-4.1,10.2"/>
<path class="st1" d="M145.4,212c0,0-1.3,9.4,2.8,10c4.1,0.5,8.7,0,7.1,4.3c-1.5,4.3-12,1.5-8.9,5.6c3.1,4.1,13.5-2.3,10.5,2.6
	c-3.1,4.9-8.7,3.6-9.2,7.4c-0.5,3.8,2.3,5.9,2.3,5.9"/>
<path class="st1" d="M182,217.8c0,0-5.2,2.4-2.1,5.7c3.1,3.3,5.4,0.5,5.1,4.9c-0.3,4.3-6.1,3.8-4.3,7.4c1.8,3.6,6.1,5.1,4.9,10.2"/>
<path class="st1" d="M188,215.4c0,0,6.4,2.2,4.9,5c-1.5,2.8-5.9,4.3-4.9,6.4c1,2,6.1-2,5.9,2.8c-0.3,4.9-5.9,3.3-3.8,7.9
	c2,4.6,8.9,10.4,8.9,10.4"/>
<path class="st1" d="M196.5,212c0,0,7.9,5.1,5.9,10s-8.9,2.8-5.4,6.6c3.6,3.8,11-0.8,9.7,4.6c-1.3,5.4-9.7,0.3-6.4,6.4
	c3.3,6.1,8.2,9.4,8.2,9.4"/>
<path class="st1" d="M204.9,207.7c0,0-1.3,4.9,2.6,9.4c3.8,4.6,9.7,2,7.7,6.6s-10.7-3.1-8.2,3.6c2.6,6.6,7.9,2.6,7.4,8.4
	s-8.9,9.2-1.8,14"/>
<path class="st1" d="M212.8,203.1c0,0-0.5,5.6,4.3,11.5c4.9,5.9,6.1,3.3,4.1,10.2c-2,6.9-6.6,5.6-2.6,9.7c4.1,4.1,6.1,3.8,6.1,3.8
	s-10.7-0.8-7.1,5.1s4.1,5.1,1.5,9.7"/>
<path class="st2" d="M166.1,128c2.8,3.8,8.9,0,10.5-3.1c1.5-3.1-7.9-2.6-6.9-6.4c1-3.8,8.7-3,8.2-8.2c-0.5-4.9-8.9-2.6-9.2-7.9
	c-0.3-7.1,8.7-2,11.2-6.4c4.5-7.7-8-8.8-5.6-16.3c2.6-8.2,15.9,3.7,15.9,3.7s14-10.6,15.7-5.4c1.8,5.1-3.6,4.6-2.8,8.4
	s8.2,0,7.9,5.4c-0.3,5.4-8.4,1.8-8.4,5.9s8.4,3.6,8.4,8.2c0,4.6-8.1,3.6-8.4,7c-0.3,4.2,4.4,7.7,8.4,2.7"/>
</svg>
