<?xml version="1.0" encoding="UTF-8"?>
<svg id="Calque_3" xmlns="http://www.w3.org/2000/svg" version="1.1" viewBox="0 0 350 290">
  <!-- Generator: Adobe Illustrator 29.3.0, SVG Export Plug-In . SVG Version: 2.1.0 Build 146)  -->
  <defs>
    <style>
      .st0, .st1, .st2, .st3, .st4 {
        stroke: #000;
      }

      .st0, .st1, .st4 {
        stroke-miterlimit: 10;
      }

      .st0, .st3, .st4 {
        fill: none;
      }

      .st1, .st2 {
        fill: #fff;
      }

      .st2, .st3 {
        stroke-linejoin: round;
      }

      .st4 {
        stroke-linecap: round;
      }
    </style>
  </defs>
  <g>
    <path class="st2" d="M179,23s-33.5,12-45.8,35.6-15.8,50.1-15.8,50.1c0,0,18.6-.3,29.8-.3s16.3-.6,16.3-.6c0,0-.6-13.4,0-22.5,1.1-18.6,14.1-57.4,14.1-57.4,0,0-11.2,45.3-11.2,64.7s1.7,14.3,1.7,14.3c0,0,11.8-.3,27,.3s44.7,1.7,44.7,1.7c0,0-4.7-33.3-16.9-53.7s-43.9-32.3-43.9-32.3Z"/>
    <path class="st0" d="M175.6,24.3s-11,30.1-13.5,41.3-4.2,42.2-4.2,42.2"/>
    <path class="st0" d="M169.2,27.7s-10.1,23.1-12.4,37.1-4.5,43.3-4.5,43.3"/>
    <path class="st0" d="M162.7,31.7s-7,16.6-9.3,27.3-5.1,49.2-5.1,49.2"/>
    <path class="st4" d="M158.5,34.5s-9,15.2-11.8,31.8-4.5,41.6-4.5,41.6"/>
    <path class="st0" d="M152.6,37.8s-5.9,9.6-9.3,21.7-5.1,48.9-5.1,48.9"/>
    <path class="st0" d="M132.3,107.9s1.7-34.6,4.8-45,11.7-21.9,11.7-21.9c0,0-14,16.8-18.7,32.6s-4.2,34.3-4.2,34.3"/>
    <path class="st3" d="M184.1,106.7s1.4-33.8,0-48.7-3.4-33.8-3.4-33.8c0,0,5.3,16.3,7.3,34.9s2.2,48.1,2.2,48.1"/>
    <path class="st0" d="M177.6,23.2s2,22.5,1.4,38.8-1.4,44.4-1.4,44.4"/>
    <path class="st0" d="M177.9,29.1s-3.4,34.6-4.2,46.4-.8,31.2-.8,31.2"/>
    <path class="st4" d="M182.9,25.2s8.4,18.2,10.1,31.1,2.1,51,2.1,51"/>
    <path class="st3" d="M186.4,26.9s8.8,12.9,10.7,27.2,1.7,52.7,1.7,52.7"/>
    <path class="st4" d="M190,28.6s9.4,13.4,11.6,25.1,3.4,53.1,3.4,53.1"/>
    <path class="st4" d="M195.2,31.7s8.7,11.3,11.1,22.3c3.9,18.4,3.8,53.4,3.8,53.4"/>
    <path class="st4" d="M201.4,35.9s6.9,6.4,9.8,21.8,3.4,50.2,3.4,50.2"/>
    <path class="st4" d="M220,108.1c0,.6.2-15.8-2.2-36.2s-11.4-33-11.4-33c0,0,13.5,15,15.6,32.2s3.8,36.9,3.8,36.9"/>
    <path class="st4" d="M214.4,45.4s8.1,7.5,11.4,24.2,6.2,38.2,6.2,38.2"/>
  </g>
  <g>
    <path class="st1" d="M179,23l.3-9.6s-31.5-2.8-54.6,18-44.1,75.1-33.2,112.2,11.2,25.9,26.4,33.8,25.6,2.5,25.6,2.5c0,0-11-5.3-20.5-12.9s-10.4-26.7-8.7-40.2,10.1-59.6,25.9-77.9,38.8-25.8,38.8-25.8Z"/>
    <path class="st4" d="M178.2,20.7s-36.3,13.5-46.1,31.2-23.1,39.9-23.3,70,5.3,42.5,11.8,48.7,21.7,9.3,21.7,9.3c0,0-12.1,3.1-25-7.6s-15.8-41.6-14.6-54.8,10.7-52.6,27.8-71.4,47.5-27.3,47.5-27.3"/>
    <path class="st4" d="M178.2,16.5s-12.7,0-25.9,6.5-38.5,27.8-47.2,59.3-7.6,66.7,1.1,80.4,11.8,14.6,11.8,14.6c0,0-27.6-13.5-23.6-63.6s27.6-73,39.9-84.4,43.9-12.9,43.9-12.9Z"/>
  </g>
  <g>
    <path class="st1" d="M179,23l-.3-9.6s31.5-2.8,54.6,18c23.1,20.8,44.1,75.1,33.2,112.2-6.2,21.1-11.3,25.9-26.4,33.7-15.2,7.9-25.6,2.5-25.6,2.5,0,0,11-5.3,20.5-12.9s10.4-26.7,8.7-40.2-10.1-59.6-25.9-77.9c-12-13.9-38.8-25.8-38.8-25.8Z"/>
    <path class="st4" d="M179.8,20.7s36.3,13.5,46.1,31.2c9.8,17.7,23.1,39.9,23.3,70s-5.3,42.5-11.8,48.7c-6.5,6.2-21.7,9.3-21.7,9.3,0,0,12.1,3.1,25-7.6,12.9-10.7,15.8-41.6,14.6-54.8s-10.7-52.6-27.8-71.4-47.5-27.3-47.5-27.3"/>
    <path class="st4" d="M179.8,16.5s12.7,0,25.9,6.5,38.5,27.8,47.2,59.3,7.6,66.7-1.1,80.4-11.8,14.6-11.8,14.6c0,0,27.6-13.5,23.6-63.6-3.9-50.1-27.6-73-39.9-84.4-17.4-16-43.9-12.9-43.9-12.9Z"/>
  </g>
</svg>