<?xml version="1.0" encoding="utf-8"?>
<!-- Generator: Adobe Illustrator 24.1.2, SVG Export Plug-In . SVG Version: 6.00 Build 0)  -->
<svg version="1.1" id="Calque_2" xmlns="http://www.w3.org/2000/svg" xmlns:xlink="http://www.w3.org/1999/xlink" x="0px" y="0px"
	 viewBox="0 0 350 290" style="enable-background:new 0 0 350 290;" xml:space="preserve">
<style type="text/css">
	.st0{fill:#FFFFFF;stroke:#000000;stroke-width:1.0398;stroke-miterlimit:10;}
	.st1{fill:#FFFFFF;stroke:#000000;stroke-miterlimit:10;}
	.st2{fill:none;stroke:#000000;stroke-miterlimit:10;}
	.st3{fill:none;stroke:#000000;stroke-linecap:round;stroke-linejoin:round;stroke-miterlimit:10;}
	.st4{fill:none;stroke:#000000;stroke-width:1.0398;stroke-miterlimit:10;}
</style>
<path class="st0" d="M291.4,78.1c-5.2,2.7-6.6-3.4-6.6-3.4s8.5-4.8,5.5-13.3c-2.9-8.5-7-3.4-3.7-6.1s1.5-8.5,1.5-8.5
	s-1.5,0.7-4.4,4.1c-2.9,3.4-9.9-1.4-9.9-1.4s0.7-5.4-4.8-8.9s-12.5,0.3-11.4-5.1c1.1-5.4-4-9.2-4-9.2s-0.5,6.7-4.9,8.1
	c-4,1.2-7.8-1-13.4-5.9c-5.6-4.9-24-13-39.5-14.8c-17.5-2-23,1.7-23,1.7s-5.1-3.8-26.6,0.6c-8.1,1.7-21.8,11.1-26,14.4
	c-4.2,3.3-6.8,6.9-10.6,5.7c-4.4-1.4-3-7.7-3-7.7s-5.4,1.3-4.3,6.7c1.1,5.4-7.4,2-12.9,5.4c-5.5,3.4-4.8,8.9-4.8,8.9s-7,4.8-9.9,1.4
	c-2.9-3.4-4.4-4.1-4.4-4.1s-1.8,5.8,1.5,8.5c3.3,2.7-0.7-2.4-3.7,6.1c-2.9,8.5,5.5,13.3,5.5,13.3s-1.5,6.1-6.6,3.4
	c-5.2-2.7-4-1.7-4-1.7s2.9,5.4,7,6.1c4,0.7-3.4,2.3-4.3,7.1c-1.7,8.9,8.4,14.8,8.4,14.8s-8-3.8-7,5.3c0.9,8.5,5.9,6.8,5.9,9.9
	c0,3.1-5.5,5.8-5.5,5.8s6.3,2.4,7.7,1c1.5-1.4-1.5,2.7,1.5,6.5c2.9,3.7,9.9,4.8,6.6,8.2s-8.5,1.7-8.5,1.7s0,4.8,6.6,4.4
	c6.6-0.3,9.9-4.4,9.9-4.4s2.2,5.4-0.4,7.1c-2.6,1.7-9.2-0.3-9.2-0.3s5.2,6.5,10.7,5.1s8.8-4.8,8.8-4.8s-1.1,7.5,5.5,6.1
	c6.6-1.4,5.5-4.4,5.5-4.4s5.5,3.7,9.6,1.3c4-2.4,3.7-4.3,3.7-4.3s-6.8,0.4-9-2.3c-2.2-2.7-1.3-9.1-1.3-9.1s3,1.1,3-4.7
	s-4.8-9.2-4.8-9.2s1.1-1,6.3-1c5.2,0,6.6-3.1,6.6-3.1s-5.8-0.5-8.5-1.1c0.9-0.2,2.2-1.1,3.7-3.4c3.7-5.8,1.8-9.9,0-13.6
	c-1.8-3.7,2.6,0,5.9-0.3c3.3-0.3,7-4.1,7-4.1s-5.5,1.7-8.1-2.4c-2.6-4.1,1.8-7.8,1.8-7.8s1.1,2.4,6.6-2.7c0.5-0.5,1-1,1.5-1.5
	c-0.1,0.2-0.1,0.3-0.1,0.3s4.9-4.6,8-8.7c3.1-4.1,3.2-7.5,3.2-7.5s1.4,2,1.5,4.8s-6.5,8.7-6.5,8.7s9.2-5.8,10.6-9.2
	c1.4-3.4-0.7-8.2-0.7-8.2s3.9,5.8,8.3,8.7s10.2,3.7,10.2,3.7s-2.6-2.4-5.8-4.8c-2.2-1.7-3.9-6.3-4.2-7.2c2.1,0.1,4.9,0.5,4.9,0.5
	s11.9,1.5,18,6c4.7,3.4,9,5.8,10.7,6.7c-0.8-0.6-2.3-1.8-4.4-4.7c-2.9-3.9-2.2-6.8-1.9-7.8c0.1,0,0.2,0,0.4,0
	c0.8,1.3,4.2,6.3,11.2,11.4c8.2,6,19.7,7.5,19.7,7.5s-7.1-4.3-11.2-6.8C204,73.3,197.2,64,197.2,64s8.7,6,15.3,10.2
	c2.3,1.4,4.8,3.1,7.2,4.6c1,1.8,2.3,3.5,4,5.1c5.5,5.1,6.6,2.7,6.6,2.7s4.4,3.7,1.8,7.8c-2.6,4.1-8.1,2.4-8.1,2.4s3.7,3.7,7,4.1
	c3.3,0.3,7.7-3.4,5.9,0.3s-3.7,7.8,0,13.6c1.5,2.3,2.8,3.1,3.7,3.4c-2.7,0.6-8.5,1.1-8.5,1.1s1.5,3.1,6.6,3.1c2.7,0,4.3,0.3,5.2,0.5
	c0,0.5,0.1,0.9,0.1,1.3c-1.4,1.4-3.8,4.2-3.8,8.3c0,5.8,4,4.8,4,4.8s-1.7,8.1-4.8,9.8c-4.7,2.6-9.6,0.7-9.6,0.7s0.4,4.6,5.2,6.1
	c4.5,1.4,11-2.4,11-2.4s-1.1,3.1,5.5,4.4c6.6,1.4,5.5-6.1,5.5-6.1s3.3,3.4,8.8,4.8s10.7-5.1,10.7-5.1s-6.6,2-9.2,0.3
	c-2.6-1.7-0.4-7.1-0.4-7.1s3.3,4.1,9.9,4.4c6.6,0.3,6.6-4.4,6.6-4.4s-5.2,1.7-8.5-1.7c-3.3-3.4,3.7-4.4,6.6-8.2
	c2.9-3.7,0-7.8,1.5-6.5s7.7-1,7.7-1s-5.5-2.7-5.5-5.8c0-3.1,5.5-1.4,5.9-9.9c0.4-8.5-5.2-6.5-5.2-6.5s8.5-8.9,7.4-13.6
	c-1.1-4.8-9.2-6.5-5.2-7.1c4-0.7,7-6.1,7-6.1S296.6,75.4,291.4,78.1z"/>
<path class="st1" d="M194.3,76.3c0.5,0.3,0.9,0.4,0.9,0.4S194.9,76.7,194.3,76.3z"/>
<path class="st2" d="M155.7,51.5c0,0,8.5-11.1,29.3-20c28.5-12.3,52.8-0.8,52.8-0.8"/>
<path class="st2" d="M159.9,43.4c0,0,8.9-16,28.6-19.8c16.1-3.1,34.3-1.6,34.3-1.6s-20.6-8.9-36.8-4.5
	C165.9,22.9,159.9,43.4,159.9,43.4z"/>
<path class="st2" d="M183.8,13.4c0,0-6.8-0.6-11.3,3.4c-4.4,4.1-4.9,6.9-4.9,6.9s1.6-4.4-1.9-6.8c-3.6-2.4-8.2-2.6-8.2-2.6"/>
<path class="st3" d="M113.4,64.9c0,0-2.5-14.5,8.4-12.9s21.9,8.8,28.6,5.9"/>
<path class="st3" d="M110.9,53.4c0,0,0.9-12.3,11.3-11.4s21.8,11.3,31.9,10.8"/>
<path class="st3" d="M154.5,50.7c0,0-1.6-8.1-11.7-11.1c-25.1-7.3-33.1,4.8-33.1,4.8"/>
<path class="st3" d="M157.4,44.6c0,0-0.3-11-12.3-13.3c-11.9-2.2-32.1,4.4-32.1,4.4"/>
<path class="st3" d="M159.2,40.7c0,0,1.7-10-3.9-14c-6.1-4.4-15.4-3.1-20.5-1.7s-11,3.2-11,3.2"/>
<path class="st3" d="M162.6,32.8c0,0,4.4-8.3-0.8-13.2c-4.4-4.2-10.1-4.6-15.6-3.4c-5.5,1.2-8.2,2.8-8.2,2.8s14.6-0.5,18.7,2.6
	c2.2,1.7,3.6,3.3,4.5,5.3C162,28.6,162.4,30.5,162.6,32.8z"/>
<g>
	<g>
		<path class="st4" d="M101.5,95.1c0,0-6-1.7-4.1,6.1c1.1,4.6,10.2,12.8,10.2,12.8s-8.7-4.8-9.7-7.1c-1-2.4-2.9-7-2.9-7
			s-1.7,6.8,2.4,12.6c4.1,5.8,9.4,9,9.4,9s-7.1-3.2-9-5.6c-1.9-2.4-3.1-3.2-3.1-3.2s-1.9,5.4,2,11.9c3.9,6.5,6.1,7.1,6.1,7.1
			l11.6,5.6"/>
		<path class="st0" d="M96.7,125.2c0,0-4.3,3.6,1.7,8.7c6,5.1,9.9,7.5,11.2,10c1.4,2.6,2.4,7.7,2.4,7.7"/>
		<path class="st4" d="M93.5,125.3c0,0-3.6,1.9-0.1,8.2c3.4,6.3,11,8.8,10.3,11.5c-0.6,2.7-2.8,5.4-2.8,5.4"/>
	</g>
	<g>
		<path class="st2" d="M132.8,64.5c0,0,3.4,6.1-5.4,8.5s-13.6,1-15.3,6.8c-1.7,5.8-0.3,9.9,1,12.9s7.7,6.9,7.7,6.9"/>
		<path class="st4" d="M111,81.8c0,0-12.3,0-12.6,5.8s4.8,9.5,10.6,12.3s11.6,4.1,11.2,9.2c-0.3,5.1-4.1,8.9-4.1,8.9"/>
		<path class="st4" d="M113.8,65.3c0,0,4.1,2.8-3.1,3.6c-7.1,0.8-14.8-2.3-17.4,3.1s2.8,10.2,2.8,10.2s-2.3-0.3-4-1.9
			s-2.7-5.1-2.7-5.1s-2.9,1.8-3.2,7.4c-0.3,5.6,0.3,8.4,2.3,10.1c2,1.7,6.4,1.9,6.4,1.9s-2.9,1.8-6.3,0.3c-3.3-1.5-3.3-4.2-3.8-5.7
			s-1.3-4.5-1.3-4.5s-5.1,7.4-3.3,13.3c1.8,5.9,3.8,7.4,6.8,8.8c2.9,1.4,4.1,3.6,4.6,5.1c0.5,1.5,0.1,5.2,0.1,5.2s0.3-3.2-1.9-5.6
			c-2.2-2.4-5-3.3-6.6-5c-1.7-1.7-3.6-5-3.6-5s-2,6.4,0,11c2,4.6,7.3,8.4,7.3,8.4s-5-1.3-6.9-3.7c-1.9-2.4-2.9-5.7-2.9-5.7
			s-1,7,1.8,12.8c2.8,5.7,5.7,5,8.3,9.1c2.6,4.1,4.2,10.6,4.2,10.6"/>
		<path class="st4" d="M110.9,53.4c0,0-1.9,7.8-6,6.7c-2.8-0.8-4.7-3.2-10.7-2.8c-6,0.4-9.3,3.1-9.8,6s3.6,5.1,3.6,5.1
			S84,69,83,67.5c-1-1.5-0.4-6.1-0.4-6.1s-4.3,0.1-4.7,6.1s2.4,8.7,2.4,8.7s-2.8-0.3-3.8-2.9c-1-2.7-0.8-6.3-0.8-6.3
			s-3.3,4.9-1.9,11.4c1.4,6.5,5,9.2,5,9.2s-2.7,0.3-3.7-1.7s-2.7-2.9-2.7-2.9L71,83"/>
		<path class="st4" d="M84.5,49.5c0,0,4.7-5.1,9.3-4c4.6,1.1,3.7,6.5,6.1,6.9c5.6,1,9.7-8,9.7-8"/>
		<path class="st4" d="M97.4,39c0,0,4.2-1.5,8,1.1"/>
	</g>
</g>
<g>
	<g>
		<path class="st4" d="M256.7,95.1c0,0,6-1.7,4.1,6.1c-1.1,4.6-10.2,12.8-10.2,12.8s8.7-4.8,9.7-7.1c1-2.4,2.9-7,2.9-7
			s1.7,6.8-2.4,12.6c-4.1,5.8-9.4,9-9.4,9s7.1-3.2,9-5.6c1.9-2.4,3.1-3.2,3.1-3.2s1.9,5.4-2,11.9c-3.9,6.5-6.1,7.1-6.1,7.1
			l-11.6,5.6"/>
		<path class="st0" d="M261.5,125.2c0,0,4.3,3.6-1.7,8.7c-6,5.1-9.9,7.5-11.2,10c-1.4,2.6-2.4,7.7-2.4,7.7"/>
		<path class="st4" d="M264.8,125.3c0,0,3.6,1.9,0.1,8.2c-3.4,6.3-11,8.8-10.3,11.5c0.6,2.7,2.8,5.4,2.8,5.4"/>
	</g>
	<g>
		<path class="st2" d="M225.4,64.5c0,0-3.4,6.1,5.4,8.5c8.9,2.4,13.6,1,15.3,6.8c1.7,5.8,0.3,9.9-1,12.9c-1.4,3.1-7.1,6.1-7.1,6.1"
			/>
		<path class="st4" d="M247.2,81.8c0,0,12.3,0,12.6,5.8c0.3,5.8-4.8,9.5-10.6,12.3s-11.6,4.1-11.2,9.2s4.1,8.9,4.1,8.9"/>
		<path class="st4" d="M239.5,62.4c0,0,0.9,5.7,8,6.5c7.1,0.8,14.8-2.3,17.4,3.1c2.6,5.4-2.8,10.2-2.8,10.2s2.3-0.3,4-1.9
			s2.7-5.1,2.7-5.1s2.9,1.8,3.2,7.4c0.3,5.6-0.3,8.4-2.3,10.1s-6.4,1.9-6.4,1.9s2.9,1.8,6.3,0.3s3.3-4.2,3.8-5.7
			c0.5-1.5,1.3-4.5,1.3-4.5s5.1,7.4,3.3,13.3c-1.8,5.9-3.8,7.4-6.8,8.8c-2.9,1.4-4.1,3.6-4.6,5.1c-0.5,1.5-0.1,5.2-0.1,5.2
			s-0.3-3.2,1.9-5.6c2.2-2.4,5-3.3,6.6-5c1.7-1.7,3.6-5,3.6-5s2,6.4,0,11c-2,4.6-7.3,8.4-7.3,8.4s5-1.3,6.9-3.7
			c1.9-2.4,2.9-5.7,2.9-5.7s1,7-1.8,12.8c-2.8,5.7-5.7,5-8.3,9.1c-2.6,4.1-4.2,10.6-4.2,10.6"/>
		<path class="st4" d="M287.3,83l-1.4-0.1c0,0-1.7,1-2.7,2.9s-3.7,1.7-3.7,1.7s3.6-2.7,5-9.2c1.4-6.5-1.9-11.4-1.9-11.4
			s0.3,3.6-0.8,6.3c-1,2.7-3.8,2.9-3.8,2.9s2.8-2.7,2.4-8.7c-0.4-6-4.7-6.1-4.7-6.1s0.6,4.6-0.4,6.1c-1,1.5-4.9,0.9-4.9,0.9
			s4.1-2.2,3.6-5.1s-3.8-5.6-9.8-6c-6-0.4-7.9,2-10.7,2.8c-4.2,1.1-3.7-2.6-11.8-4.8c-8.1-2.3-22.4-0.7-30,0.5
			c-7.7,1.2-14.6,5.1-14.6,5.1"/>
		<path class="st4" d="M273.7,49.5c0,0-4.7-5.1-9.3-4s-3.8,6.2-6.1,6.9c-7.1,2.2-11.1-3-11.1-3s-5.7-9-25.3-7.3
			c-13.5,1.2-24.8,10.4-38.2,13.3c-12.7,2.8-25.4,1.4-25.4,1.4"/>
		<path class="st4" d="M260.8,39L250,41.2c-14.2,0.3-23.7-10.4-35.2-8c-19.4,4.1-25.3,14.1-36.8,14.7c-14.6,0.8-26,9.1-26,9.1"/>
	</g>
</g>
</svg>
