<?xml version="1.0" encoding="utf-8"?>
<!-- Generator: Adobe Illustrator 24.1.2, SVG Export Plug-In . SVG Version: 6.00 Build 0)  -->
<svg version="1.1" id="Calque_3" xmlns="http://www.w3.org/2000/svg" xmlns:xlink="http://www.w3.org/1999/xlink" x="0px" y="0px"
	 viewBox="0 0 350 290" style="enable-background:new 0 0 350 290;" xml:space="preserve">
<style type="text/css">
	.st0{fill:#FFFFFF;stroke:#020203;stroke-width:0.9544;stroke-miterlimit:10;}
	.st1{fill:none;stroke:#020203;stroke-width:0.9544;stroke-miterlimit:10;}
	.st2{fill:#FFFFFF;stroke:#020203;stroke-width:0.8957;stroke-miterlimit:10;}
	.st3{fill:none;stroke:#020203;stroke-width:0.8471;stroke-miterlimit:10;}
</style>
<path class="st0" d="M180,77.8c0,0,5.4,32.8-24,46.7S95,152,96.8,169.3s23.9,33.7,21,49c-1.8,9.3-15.5,6.8-15.5,6.8s9.4-1.2,9.9-7.1
	c0.5-5.4-29.2-38.1-32.2-51.2c-3.2-13.5,2.6-30.3,2.6-30.3S54.5,88.8,93.2,56.2c49.5-41.8,82.4-15.3,82.4-15.3s3.9-9.5,25.4-3.5
	s46.3,23.9,52.3,49.2c9.4,39-3.4,66.3-3.4,66.3s7.9,9.3,5.5,25s-29.2,36-23.5,39c5.7,3,11.1,0.7,11.1,0.7s-12.2,6.7-15.7-0.1
	c-3.5-6.7-2.9-10.2,5.8-23c8.7-12.7,9.8-19.8,6.9-29.7s-8.1-21.3-21-28.3s-30.2-13-35.2-26.3C178.8,96.9,180,77.8,180,77.8z"/>
<path class="st1" d="M178.9,66.9c0,0-0.2,31-11.6,41.9s-65,36.7-70.3,45.6c-5.3,8.9-4.7,18.7-0.4,25.3c4.3,6.6,18.1,26,19.1,32.5
	c1,6.6-0.8,10.2-0.8,10.2s1.6-4-1.1-10.1c-2.7-6.2-16.4-24.4-20.6-32c-4.2-7.6-8.2-20.2-0.4-28.4s21.6-19.8,34-24.7
	s29.6-12.8,36.5-23.2s8.4-16.6,10.5-22.7c2-6,2.1-14,2.1-14s-5.9,22.5-14.4,32c-15,16.7-40.7,26.6-52.1,33.7
	c-14.8,9.2-25.2,15.2-25.4,26.5c-0.3,11.3,3.5,18.6,8.3,25c4.8,6.5,19.9,27.3,21.2,30.9c3.2,9.1-9.3,9.8-9.3,9.8"/>
<path class="st1" d="M80.4,166.3c0,0-4.5-16.2,10.6-27s48.7-24.3,58.1-34.1c17-17.7,22.1-37.1,22.1-37.1s-7.3,17-26.3,30.2
	s-28.2,21-39.2,26.8c-11,5.8-23,11.6-23,11.6s7.8-7.1,21.8-15.4s31.7-19,40.7-29.4s17.3-19.9,17.3-19.9"/>
<path class="st1" d="M152.9,72c0,0-0.5,2.9-1.4,6.7c-0.9,3.8-7.2,13-7.2,13"/>
<path class="st1" d="M142.6,70.7c0,0-1.8,6.9-5.5,15.8S122,110.3,122,110.3"/>
<path class="st1" d="M137.1,68.7c0,0-3.9,16.5-9.9,26.3c-6,9.8-11.4,18.7-11.4,18.7"/>
<path class="st1" d="M132.6,66c0,0-6.9,16-11.8,27.4C116,104.7,111,117,111,117"/>
<path class="st1" d="M129.6,64c0,0-11.1,15.2-16,27.1c-4.9,11.8-7,28.6-7,28.6"/>
<path class="st1" d="M128.1,62.6c0,0-15.4,16.2-21.7,35.3c-3.6,11.1-9,27.7-9,27.7"/>
<path class="st1" d="M125.9,59.9c0,0-20.5,24.3-25.4,36.8c-4.9,12.5-6.9,31.2-6.9,31.2"/>
<path class="st1" d="M123.8,56c0,0-19.5,16.2-27.5,36.2c-5.7,14.3-5.6,38-5.6,38"/>
<path class="st1" d="M122.1,52.7c0,0-26.5,24.4-31.2,41.2s-3.1,38-3.1,38"/>
<path class="st1" d="M121.2,49.2c0,0-21.9,10.5-32.1,35c-11.3,27.1-3.4,49.6-3.4,49.6"/>
<path class="st1" d="M120.2,45.3c0,0-35,12-40.5,44.1c-4.9,28.7,4,45.8,4,45.8"/>
<path class="st1" d="M181.9,63.8c0,0-0.9,36.7,9.6,47.6s20.5,16.9,34.1,25.1s22.1,26.3,19.8,38.3c-2.3,12-14.4,25.8-16.5,31
	c-2.1,5.2-0.4,12.9-0.4,12.9s-2.5-6.7,3.7-15.3c6.2-8.6,15.1-17.7,17.7-27.5s3.6-21.4-3-29.6c-6.6-8.2-23.8-17.9-37.2-30.7
	S188.7,102.9,181.9,63.8z"/>
<path class="st1" d="M205.8,110.4c0,0-2-17.4-6.3-27.2s-16.5-22-16.5-22s14.8,6.6,21.2,20.8c6.4,14.3,8.9,36.8,8.9,36.8"/>
<path class="st1" d="M219.6,124.2c0,0-1-25.4-6.3-38.6c-5.3-13.2-26.4-27.3-26.4-27.3s15.4,1.7,25,15c19.6,27.1,14.2,56.9,14.2,56.9
	"/>
<path class="st1" d="M231.5,133c0,0,6.5-30.4-3.7-48.4c-14.7-26-35.6-29.3-35.6-29.3s15.4-2.4,26.6,9s21.6,25.7,20.7,43.9
	s-2.5,30-2.5,30"/>
<path class="st1" d="M243.3,143.7c0,0,2.4-5.9,3.5-26.8c1.1-20.8-4.8-35.3-19.6-52.4c-14.8-17-35.8-14.5-35.8-14.5
	s10.6-8.8,30.6,5.2s30.1,30.4,29.9,52.6s-3.4,40.4-3.4,40.4"/>
<path class="st1" d="M192.7,44.6c0,0,5.5-8.4,25-0.5"/>
<g>
	<path class="st2" d="M160.1,3.4c0,0-31.5,6.2-32.8,26.9c-1.4,20.7-0.4,38.2,29.2,42.6s47.9-8.2,51.9-18.2c4-10,5.4-40.9-15.1-50
		S160.1,3.4,160.1,3.4z"/>
	<path class="st3" d="M163.6,54.2c0,0-10.5-6.5-13.5-11.5s-4.2-14.2,1.5-22.3s19-4.3,19-4.3s-5.4-3.1-10.1-4.7s-12.6,4-16.3,10.2
		s-1,13.3,3.1,21.1s14.4,11.8,14.4,11.8s-7.9-0.4-15.5-5.6s-9.6-18.2-7.5-24.6c3.6-11.2,12.7-15.3,19.1-15.3s12.4,6.2,12.4,6.2
		s-1.1-3.2-11.4-9.2c-6.6-3.8-25.9,8-25.8,25.9c0.1,18.5,11.5,22.1,23,24.6c11.3,2.4,23.3-5.6,23.3-5.6s-3.4,1.8-7.2,2.9
		c-3.7,1.1-13-1.4-18.3-10.2c-5.3-8.8-0.7-18.7,10.9-22.1s17,9.2,17.2,16.5s-9.3,13.1-14.7,12.4s-9.9-7.6-9-14.2
		c1.3-10.1,10.4-10.2,14.3-7.4c12.3,8.9,2.1,19.6-6.3,16.5c-5-1.9-2.2-9-2.2-9s2.3-3.9,6.5-1.6s2.8,6.3,0.9,7.4
		c-1.9,1.1-5,0.2-4.8-2.4"/>
	<path class="st3" d="M127,38.9c0,0,1.7,10.5,10.2,16.2s18,7.7,25.9,6c7.8-1.6,16.2-10.3,16.2-10.3s-3.7,11.8-16.1,14.9
		c-9.2,2.3-18.4,0-24.8-2.9c-6.5-3-9-7.2-9-7.2s6.7,15.3,35.4,14.8c28.7-0.6,36-11.4,40.3-31.3c2.6-12.1-5.3-27-16.2-32.4
		s-16.5-4.9-19.7-3.7s-6.8,4.6-6.8,4.6s16.4-5.3,25.7,2.3c9.4,7.6,12.2,18.5,11.2,28.9c-2.3,24.2-27.8,26.6-27.8,26.6
		s22.4-7.8,24.6-30c1-10.1-5.5-23.7-14.5-25.5s-16.9,0.4-16.9,0.4s14.8-1.8,22,9.2c7.4,11.1,3.7,20.9,0.6,25.8
		c-3.9,6.1-10,9.5-10,9.5s12.7-17.7,7.3-27.7c-5.5-10.1-11.3-9.6-11.3-9.6"/>
</g>
</svg>
