<?xml version="1.0" encoding="utf-8"?>
<!-- Generator: Adobe Illustrator 24.1.2, SVG Export Plug-In . SVG Version: 6.00 Build 0)  -->
<svg version="1.1" id="Calque_2" xmlns="http://www.w3.org/2000/svg" xmlns:xlink="http://www.w3.org/1999/xlink" x="0px" y="0px"
	 viewBox="0 0 350 290" style="enable-background:new 0 0 350 290;" xml:space="preserve">
<style type="text/css">
	.st0{fill:#FFFFFF;stroke:#000000;stroke-miterlimit:10;}
	.st1{fill:none;stroke:#000000;stroke-miterlimit:10;}
</style>
<path class="st0" d="M259.6,127c12.1,2.6,12.5-6.5,15-12.1c0,0-4.9,3.4-9.2-1.5c-4-4.6,8.6-13.4,7.4-24.8
	c-1.7-16.2-10.4-10.5-12.5-17.3c-2.1-6.8,8.5-7.4,3.8-21.6c-4.7-14.2-22-4.9-23.6-16.5c-1.6-11.6-7.8-20.2-18.8-20.7
	c-8.4-0.4-13.4,4.2-15.2,6.4c-0.9-7.4-5.3-14.2-14.6-14.8c-15.9-1.1-9.7,8.8-19.3,11.3c-8.1,2.1-9.3-11.5-23.2-7.6
	c-13.8,3.9-3.7,13.2-11.2,16.8c-6.1,3-11.3-4.8-21.3,1.8c-9.9,6.6-0.7,17.5-4.6,19.9c-3.9,2.4-12.5-5.4-20.7,8.9
	c-6.6,11.5,7.7,11.6,4.8,19c-2.9,7.4-5.7,1.3-11.7,10.7c-6.5,10,2.6,22.1,2.6,22.1s8,6,2.6,9.4c-5.2,3.2-9.2,0.2-9.2,0.2
	s0.5,7.3,6.5,8.2c6,0.9,9.2-0.9,9.2-0.9s-1.9,3.7-0.5,6.9c2.1,5.1,8.2,8,15.3,5.4c6.1-2.2,9.7-7.6,9.7-7.6s-2.4,1.9-6.5-1
	c-4.1-2.9-2.6-9-2.6-9s1.9,2.4,6,3.1c4.1,0.7,7.1-1.4,7.1-1.4s-15.4-6-8.8-20.8c0,0,1.2,1.8,9.3,7.7c6.1,4.4,13.9,3.1,13.9,3.1
	s-9.9-4.7-11.5-15.2c-1.6-10.5,13.3-14.6,13.3-14.6s-1.6,11.1,3.7,16.2c5.2,5,14,4.6,14,4.6s-16.9-9.1-2.3-19.6
	c14.6-10.5,26.6-4.2,40.2-15.5c5.8-4.9,8.4-13.4,9.5-21.5c0,0.7,0,1.2,0,1.7c0,4.5-2,15.9,2,25.1c3.9,9.2,19.1,11.6,20.6,17.9
	c1.6,6.3-4.7,9-4.7,9s8.9-1.8,12-6.1c3.1-4.2-0.7-10.5-0.7-10.5s5.6,2.8,6.7,9c1.4,8.3-9.5,13.3-9.5,13.3s3.5,1.5,7.9,0.2
	c2.8-0.8,4.3-2.2,4.3-2.2s4.7,6.9,1.2,11.1c-4,4.7-10.2,5.1-10.2,5.1s2.5,3.3,6.3,3.4c4,0.1,6.2-2.2,6.2-2.2s1.2,4.8-2.6,8.2
	c-2.8,2.5-7.6,0.7-7.6,0.7s4.4,7.5,11.5,7.1C257,135.1,259.6,127,259.6,127z"/>
<path class="st1" d="M116.1,99.4c0.7-5.2,3.9-8.1,7-12.8s-0.3-6.1-3.8-12.4s-2.8-10.8,2.6-12c5.4-1.1,7.8-2.2,9.3-8.2
	c1.5-6,6.1-4.7,11.2-7c5.1-2.3,1.3-3.6,10.7-8.3s15.9,3,23.4,4.7c7.5,1.7,9.8-5.2,19.3-6.4s10.4,5,10.4,5s0.2-5.3-6.6-10.6
	s-12.8,2-19.7,6.3c-7,4.3-9.7-1-17.3-3.2c-7.7-2.2-10.6-1.4-12.8,0.9s-4.8,6.6-11.7,6c-11.8-1.1-6,6.5-10.4,12.4s-5-0.3-13.3,5.8
	c-8.5,6.3,2.2,11.2,3,19.9c0.9,8.7-5.4,7.7-9.4,17s3.7,22,3.7,22s-8.9-10-8.2-21.8c0.4-7.7,7-12.1,7.5-18.6
	c0.5-6.5-9.3-9.9-6.6-16.3s14.1-4.6,16.7-10.2s5.6-12.1,11.1-12.4c5.4-0.3,5.4,0.5,13.3-6.1c7.8-6.6,17,1.7,28,1
	c11.1-0.7,8.9-8.2,19.1-9.2c10.2-1,12.9,8.3,12.9,8.3s1-7-6-13.3c-10.4-9.4-12.4,2.2-20.9,6.3s-9.3-0.3-20.2-4.1S144.7,27.8,142,32
	s-3.1,3.2-14.3,2.4c-11.2-0.9-5.1,10.7-9.9,16.5s-7-0.2-15.1,7s3.7,14.6,3.7,21.1c0,6.5-8.7,4.9-10,11.9s10.6,18.4,4.4,24.4
	c-6.1,6-15.5,2.9-15.5,2.9s10.2-0.7,12.1-4.9c1.9-4.3-10.2-14-10.6-22.9c-0.3-8.9,10.9-10.2,12.3-17c1.4-6.8-9-4.2-4-15.2
	s11.7-6.6,18.6-8.7s-5.8-9.4,5.1-17.2c7.4-5.3,7.8,2.7,17,1.2c9.2-1.5,1.9-8.9,10.7-15.3c8.9-6.5,15.8,8.3,26.5,5.1
	s9-11.6,20.3-11.4c11.2,0.2,12.4,15.3,12.4,15.3s8.5-16.4,21-10c12.5,6.4,8.6,19,11.1,22.6c2.6,3.6,18,2.7,21.1,10
	c4.7,11.1-2.6,16.4-1.1,22.4c1.4,6,11.9,5.6,9.7,18.5s-9.8,14.8-7.8,21.6c2.5,8.8,12.3,7.7,12.3,7.7s-10,7.9-15.1-3.3
	c-5.1-11.2,5.3-23.7,3.2-29.3c-2-5.6-6.5-7-8.2-12.4c-1.7-5.4,5.2-15.4,1.1-21.9s-15.1-3.7-18-8s2.1-21.7-11.8-23.2
	c-12.8-1.4-17.4,11.6-17.4,11.6s12.1-8.5,17.7-4.6s2.6,14.8,9,19.6c6.5,4.8,15.8,3.9,16.5,12.2c0.7,8.3-4.4,11,1.2,17.5
	c5.6,6.5,5.7,8.6,3.1,18.5s-3.9,15-1.3,22.6c2.1,6.3,8.6,8.3,8.6,8.3"/>
<path class="st0" d="M106.9,111.9c0,0-4.6,7.1-4,14.3c0.6,7.1,5.2,10.1,9.1,9.2"/>
<path class="st1" d="M127.6,93.9c0,0-2.3-5.7-0.4-9.6c4.9-9.7-3.7-10.3-1-14.8c2.7-4.5,3.1-4.2,5.3-6c2.2-1.8-0.9-7.5,4.7-10.3
	c5.6-2.8,9.2,1.9,15.2-1.4s5.7-11.7,14.3-9.4c8.6,2.3,7,9.2,16.3,5.7c9.3-3.4,12.6-8.1,18.5-5.9c5.9,2.2,5.9,3.9,5.9,3.9
	s-5.9-2.4-14.2,2.1s-9.1,7.4-15.1,6.9c-6-0.5-7-7.5-12.3-5.6c-5.4,1.9-8,7.4-13.3,8.3s-10-2.1-13.1,2.2c-4.6,6.1,2.6,6.4,0.5,12.2
	C135.8,80.5,127.6,82,127.6,93.9z"/>
<path class="st1" d="M141.2,80.3c0,0,0.7-5.8,4.7-11.2c13.6-18.6,15.2,4,36.2-7.3C191.2,57,205.8,46,205.8,46s-8.3,16.2-22.1,20.2
	c-13.8,4-28.9,1.3-34.9,8.7c-6,7.4-4.7,19.7,8.3,25.8"/>
<path class="st1" d="M244.7,102.2c8.5-7.8,3-18.7-1.7-22.8c-4.3-3.8,3.2-9.6,2-15.2s-8.4-6.1-14.5-9.9c-6.1-3.8-4.6-10.2-11.7-16.3
	s-12.6,2.8-12.6,2.8s6.4-5.6,10.9,1.5c4.5,7.2,4,13.9,9.7,17.1c5.6,3.1,9.5,1.8,10.9,6.5c2.8,9.5-11.8,11.6-2.2,15.7"/>
<path class="st1" d="M235,81.5c-7.9-3.9-5.5-7-3.8-11.5c2.7-6.8-6.3-1.4-11.3-5.4c-3.7-3-0.5-5.8-3.7-14.2c-3.1-8.4-9.4-7.2-9.4-7.2
	s5.3-0.2,5.6,12c0.3,8.2,0.4,13.3,7.2,18.7c5.5,4.4,13.7,9.5,13.5,15.3c-0.2,5.2-7.1,8.4-7.1,8.4"/>
</svg>
