<?xml version="1.0" encoding="utf-8"?>
<!-- Generator: Adobe Illustrator 24.1.2, SVG Export Plug-In . SVG Version: 6.00 Build 0)  -->
<svg version="1.1" id="Calque_2" xmlns="http://www.w3.org/2000/svg" xmlns:xlink="http://www.w3.org/1999/xlink" x="0px" y="0px"
	 viewBox="0 0 350 290" style="enable-background:new 0 0 350 290;" xml:space="preserve">
<style type="text/css">
	.st0{fill:#FFFFFF;stroke:#000000;stroke-miterlimit:10;}
	.st1{fill:none;stroke:#000000;stroke-linecap:round;stroke-linejoin:round;stroke-miterlimit:10;}
	.st2{fill:none;stroke:#000000;stroke-miterlimit:10;}
</style>
<path class="st0" d="M258.2,112c-2.1-32.4-28.9-67.8-50.4-72.3c-21.4-4.4-26.6-0.6-26.6-0.6s-5.5-3.7-23-1.7
	c-35.1,4.1-62.8,31.7-63.5,74.6c-0.4,23.6,11.2,42.6,11.2,42.6l3.7-0.7c0,0-0.3-17.5,3.7-28.3c3.9-10.4,7.5-18.9,15.7-25.4
	c0.8-0.6,1.7-1.3,2.5-2c-4.1,4.3-6.1,8.8-6.1,8.8s9.2-6,15.8-10.2s15.3-10.2,15.3-10.2S150,96,145.9,98.5
	c-4.1,2.6-11.2,6.8-11.2,6.8s11.6-1.5,19.7-7.5c7-5.1,10.4-10.1,11.2-11.4c0.1,0,0.2,0,0.4,0c0.4,1,1,4-1.9,7.8
	c-2.1,2.8-3.6,4.1-4.4,4.7c1.8-0.9,6-3.3,10.7-6.7c6.1-4.4,18-6,18-6s2.8-0.4,4.9-0.5c-0.3,0.9-2,5.5-4.2,7.2
	c-3.2,2.4-5.8,4.8-5.8,4.8s5.8-0.9,10.2-3.7s8.3-8.7,8.3-8.7s-2,4.8-0.7,8.2c1.4,3.4,10.6,9.2,10.6,9.2s-6.6-6-6.5-8.7
	s1.5-4.8,1.5-4.8s0.2,3.4,3.2,7.5c3.1,4.1,8,8.7,8,8.7s-1.4-4.1-2.6-6.5s-1.4-4.3-1.4-4.3l-0.2-0.2c1.8,1.5,3.7,3.1,5.7,4.6
	c8.2,6.5,15.7,15,19.9,26.6c3.9,10.7,3.7,28.3,3.7,28.3l3.7,0.7C247,154.5,259.8,135.5,258.2,112z"/>
<path class="st0" d="M198.1,80c0,0-15.3,3.4-26.6,2.7c-11.2-0.8-34-11-44.7-11.7c-10.7-0.8-22.2,3.5-22.2,3.5s7.8-11.2,27.4-9.5
	c13.5,1.2,25.3,10.5,38.3,11.2C183.4,76.8,198.1,80,198.1,80z"/>
<path class="st1" d="M202,79.7c0,0-16.2-5.3-30-10.4c-12.7-4.7-29.3-7.7-39-8.3c-9.7-0.7-21.3,2.6-21.3,2.6s17.5-10.7,30-8.3
	c12.4,2.4,25.5,8.5,36.6,11.4C189.4,69.4,202,79.7,202,79.7z"/>
<path class="st2" d="M198.3,74.2c0,0-8.3-8.7-29.4-16.9c-21-8.1-46.1-5.1-46.1-5.1s20.1-11.1,45.8-1S198.3,74.2,198.3,74.2z"/>
<path class="st2" d="M194,66c0,0-8.7-17.1-28.4-20.9c-16.1-3.1-31-0.4-31-0.4s17.1-8,33.2-3.6C188.1,46.6,194,66,194,66z"/>
<path class="st2" d="M162,83.7c0,0-9.4,1.7-19.4,1.2s-19.4-5.4-29.4-1.5S96.5,94.3,96.5,94.3s3.1-13.6,16.3-16.7
	c13.3-3.1,22.8,1.4,30.5,2.6C151,81.4,162,83.7,162,83.7z"/>
<path class="st0" d="M131.3,98.7c0,0,3.1-2.7,7.7-5.9s8.4-5,8.4-5"/>
<path class="st2" d="M166.8,37.1c0,0,9.7,1,14.1,5.1c4.4,4.1,5.6,6.6,5.6,6.6s-1.4-5.8,2.2-8.2c3.6-2.4,7.7-2.7,7.7-2.7"/>
<path class="st1" d="M203.6,80.5c0,0,0,3.1,10,3.1s32.3-8.2,32.3-8.2s-1-2.7-11.9-1.2C223.1,75.7,210.2,83.4,203.6,80.5z"/>
<path class="st1" d="M199.9,75.5c-0.5,0,1.8,4.2,11.7,1.8c9.9-2.4,13.9-9.3,25-8.2c6,0.6,8,3.1,8,3.1s-2.4-8.3-12.8-7.5
	C221.4,65.5,210.1,76,199.9,75.5z"/>
<path class="st1" d="M199.5,73.4c0,0,2-7,11.7-11.1c11.4-4.9,26.4-0.4,26.4-0.4S220.8,63,210,68.2C204,71,199.5,73.4,199.5,73.4z"/>
<path class="st1" d="M196.6,67.3c0,0,0.3-10,12.3-12.3c11.9-2.2,25.5,3.2,25.5,3.2s-15.5-1.8-24.3,0.3S196.6,67.3,196.6,67.3z"/>
<path class="st1" d="M194.8,63.4c0,0-1.7-9,3.9-13c6.1-4.4,15.4-3.1,20.5-1.7s9.4,4,9.4,4s-7.4-0.4-15.7-0.7
	C204.8,51.7,197.9,52,194.8,63.4z"/>
<path class="st1" d="M223.3,84.1c0,0,7.1,2.6,14.9,0.9c7.8-1.6,9.4-7.7,9.4-7.7s-5.3,2-10.2,3.2S223.3,84.1,223.3,84.1z"/>
<path class="st1" d="M191.4,56.5c0,0-4.4-8.3,0.8-13.2c4.4-4.2,10.1-3.7,15.7-2.6c5.5,1.2,8.1,2,8.1,2s-14.6-0.5-18.7,2.6
	c-2.2,1.7-3.6,3.3-4.5,5.3C192,52.3,191.6,54.2,191.4,56.5z"/>
<path class="st1" d="M213.4,87.5c0,0,6,6.6,13.3,13.9s16.1,14.8,17.4,25.5s0.6,26.8,0.6,26.8s5.1-14.6,2.7-28.9s-4.5-17.6-11.7-24.3
	S220.7,91.4,213.4,87.5z"/>
<path class="st1" d="M220.1,87.5c0,0,19,6.8,25.4,18.5c6.4,11.7,6.6,21.6,4.9,31.8s-3.7,16.6-3.7,16.6s8.8-19.7,7-33.7
	c-1.8-14-6.1-21.6-14.7-28C230.4,86.3,220.1,87.5,220.1,87.5z"/>
<path class="st1" d="M236,87.7c0,0,11.8,3.5,16.1,13.9c5.2,12.7,4.1,30.3,4.1,30.3s2.6-22.2-2.4-33.1S244.9,88.6,236,87.7z"/>
<path class="st1" d="M137.9,88.5c0,0-15.1,6.9-20.7,18.9c-5.6,12-7.7,33.2-7.7,33.2s-2.7-26.6,2.3-36.5
	C121,86,137.9,88.5,137.9,88.5z"/>
<g>
	<path class="st1" d="M124.2,88.1c0,0-12.3,3.3-16.3,15.4s0.1,49.8,0.1,49.8s-8.8-29.6-5.9-44.4S114.1,89,124.2,88.1z"/>
</g>
<path class="st1" d="M102.9,93.7c0,0-8,12.5-5.1,27.1c4.1,20.6,8.7,33.4,8.7,33.4"/>
<g>
	<path class="st0" d="M96.8,47.1c0,0-11.9,9.4-9.6,20.7C89.5,78.5,97,85.3,111,80.8c16.4-5.3,21-16.8,20.8-22.5s-4.8-19.9-17.6-19.1
		S96.8,47.1,96.8,47.1z"/>
	<path class="st2" d="M108.4,61.3c5.9,1.9,5.7-6-0.1-5.2c-2.6,0.4-5.6,2.5-4.5,6.3c1,3.4,4.6,4.1,7.5,3.1c3-1,5.5-4.1,4.6-7.9
		c-1-4-7.6-8-12.8-3.5c-5.2,4.5-5.4,10.4-0.5,13.2c4.8,2.9,10.3,1.8,11.9,0.3s2.9-2.4,2.9-2.4s-4.5,7.2-11,8.9
		c-6.5,1.7-18.3-3-18.7-15.1"/>
	<path class="st2" d="M90.3,62"/>
	<path class="st2" d="M92.2,57.4c0.8,18.1,21.4,11,21.4,11"/>
	<path class="st2" d="M104,51c0,0,3.8-6.6,10.2-3.3c11.5,5.9,3.6,17.5,3.6,17.5"/>
	<path class="st2" d="M100.2,50c0,0,2-7.3,12.5-7.2c6.8,0.1,10.5,5.8,12.6,11C131,68,113.6,75,113.6,75"/>
	<path class="st2" d="M117.6,65.3c0,0,1.3,6.4-4.9,10.2c-16.3,10.2-25.4-7-25.4-7"/>
</g>
<line class="st0" x1="41.9" y1="184.7" x2="47.3" y2="192.6"/>
<g>
	<path class="st0" d="M112.1,56.8c0,0-32.3-25.4-55.2-16.8c-12.2,4.5-21.3,17.3-22.2,31.4c-1.3,22.1,13,36.1,14.2,49
		c1.2,12.9-13.1,15.9-14.2,41.2c-0.4,7.8,4.6,17.3,8.6,22.9c0.4,2.6,0.1,6.2-4.3,6.8c-4.4,0.6-9.3-7.2-9.3-7.2s1,11.2,8.9,12
		c7.3,0.7,9.1-4.2,9.3-4.9c1.4,2.2,2.6,4.4,3.3,6.8c0,0,0,0.1,0,0.1c-2.9,1.7-9.6,6.8-3.2,14.2c4.6,5.3,10.2,3.9,10.2,3.9
		c6.7-1.4,12.6-9.4,11.6-17.6c-0.9-7-3.6-12.9-5.6-19.4c5.6,5.7,14.4,5,17.2-0.7c1.9-3.7,1.1-6.7-0.3-8.7c2-1,3.3-2,4.2-3.7
		c4.4-7.8-5.5-10.6-5.5-10.6s8.5,3.5,2.9,8.3c-7.3,6.1-14.9-3.6-11.2-12.9c2.8-7.1,8.7-12.1,7.3-21.2c-1-6.5-11-18.7-10.8-29.1
		c0.2-8.9,5.7-10,7-18.3c1.2-8.2-10.3-15.4-2.2-22.8c7.4-6.7,23.6-1.1,36.6,2.6C114.9,61.5,112.1,56.8,112.1,56.8z M52,208.2
		c-0.3-0.3-0.6-0.6-0.8-0.9c-4-4.9-1.6-7.9,0.1-9.1C52.3,201.6,52.5,205.1,52,208.2z M80.2,170c0.5,1.4,0.2,3.1-1.7,5
		c-6.5,6.1-13.6-0.9-12.8-10C69.7,171.6,75.9,171.4,80.2,170z"/>
	<path class="st2" d="M58.2,208.5c1.2-22.2-25.3-28.2-14.6-54.9c8.5-20.9,15.4-24.1,12.2-40.2c-3.3-16.1-15.4-35.8-11-49
		s14.7-20,27.3-20C92.1,44.5,109,56.9,109,56.9"/>
	<path class="st2" d="M64.1,179.4c-2.2-7-3.6-14.7-0.9-25.4c5.2-20.2,8.8-29.6,6-44.7s-12-25.7-10-41.1c1.7-12.8,8.5-18.9,18.6-18.8
		c10.7,0.1,30,9.6,30,9.6"/>
	<path class="st2" d="M75.9,44.6c-11.4,0-25.6,9.2-26.1,22.5s12.9,42.5,13.9,54.6s-8,21.1-9.5,34.1c-1.5,13,4.9,26.3,7.8,36.5
		c3.4,12.1-5,20.6-10.1,15.8"/>
	<path class="st2" d="M69,131.3c5.3,12.2-4.5,22.2-3.5,35.4"/>
	<path class="st2" d="M65.3,54.2c-8.4,8.5-2,14.3,0,21c1.9,6.3,0.3,7.2-2.5,14.2"/>
</g>
<g>
	<path class="st0" d="M254.9,47.1c0,0,11.9,9.4,9.6,20.7c-2.2,10.7-9.7,17.4-23.7,12.9c-16.4-5.3-21-16.8-20.8-22.5
		s4.8-19.9,17.6-19.1C250.4,39.9,254.9,47.1,254.9,47.1z"/>
	<path class="st2" d="M243.3,61.3c-5.9,1.9-5.7-6,0.1-5.2c2.6,0.4,5.6,2.5,4.5,6.3c-1,3.4-4.6,4.1-7.5,3.1c-3-1-5.5-4.1-4.6-7.9
		c1-4,7.6-8,12.8-3.5c5.2,4.5,5.4,10.4,0.5,13.2c-4.8,2.9-10.3,1.8-11.9,0.3s-2.9-2.4-2.9-2.4s4.5,7.2,11,8.9
		c6.5,1.7,18.3-3,18.7-15.1"/>
	<path class="st2" d="M261.4,62"/>
	<path class="st2" d="M259.5,57.4c-0.8,18.1-21.4,11-21.4,11"/>
	<path class="st2" d="M247.7,51c0,0-3.8-6.6-10.2-3.3c-11.5,5.9-3.6,17.5-3.6,17.5"/>
	<path class="st2" d="M251.5,50c0,0-2-7.3-12.5-7.2c-6.8,0.1-10.5,5.8-12.6,11C220.7,68,238.1,75,238.1,75"/>
	<path class="st2" d="M234.1,65.3c0,0-1.3,6.4,4.9,10.2c16.3,10.2,25.4-7,25.4-7"/>
</g>
<g>
	<path class="st0" d="M242.3,62c13-3.7,29.2-9.4,36.6-2.6c8.1,7.4-3.4,14.6-2.2,22.8c1.2,8.2,6.8,9.4,7,18.3
		c0.2,10.4-9.7,22.6-10.8,29.1c-1.5,9.1,4.5,14.1,7.3,21.2c3.6,9.3-4,19-11.2,12.9c-5.6-4.7,2.9-8.3,2.9-8.3s-9.8,2.7-5.5,10.6
		c1,1.7,2.2,2.7,4.2,3.7c-1.5,2-2.2,5.1-0.3,8.7c2.9,5.7,11.6,6.4,17.2,0.7c-2,6.5-4.8,12.4-5.6,19.4c-1,8.2,4.9,16.2,11.6,17.6
		c0,0,5.6,1.4,10.2-3.9c6.4-7.3-0.3-12.4-3.2-14.2c0,0,0-0.1,0-0.1c0.7-2.4,1.9-4.6,3.3-6.8c0.2,0.7,2,5.7,9.3,4.9
		c7.9-0.8,8.9-12,8.9-12s-4.9,7.8-9.3,7.2c-4.3-0.6-4.6-4.2-4.3-6.8c4-5.6,8.9-15.1,8.6-22.9c-1.2-25.2-15.4-28.3-14.2-41.2
		c1.2-12.9,15.5-26.9,14.2-49c-0.8-14.1-10-26.9-22.2-31.4c-22.9-8.6-55.2,16.8-55.2,16.8S236.8,61.5,242.3,62z M300.4,198.2
		c1.7,1.3,4.1,4.2,0.1,9.1c-0.3,0.3-0.6,0.6-0.8,0.9C299.2,205.1,299.4,201.6,300.4,198.2z M286.1,165c0.8,9.1-6.3,16.1-12.8,10
		c-2-1.8-2.3-3.5-1.7-5C275.8,171.4,282,171.6,286.1,165z"/>
	<path class="st2" d="M293.5,208.5c-1.2-22.2,25.3-28.2,14.6-54.9c-8.5-20.9-15.4-24.1-12.2-40.2s15.4-35.8,11-49s-14.7-20-27.3-20
		c-19.9,0.1-36.8,12.5-36.8,12.5"/>
	<path class="st2" d="M287.6,179.4c2.2-7,3.6-14.7,0.9-25.4c-5.2-20.2-8.8-29.6-6-44.7s12-25.7,10-41.1
		c-1.7-12.8-8.5-18.9-18.6-18.8c-10.7,0.1-30,9.6-30,9.6"/>
	<path class="st2" d="M275.8,44.6c11.4,0,25.6,9.2,26.1,22.5c0.5,13.3-12.9,42.5-13.9,54.6c-1,12.1,8,21.1,9.5,34.1
		c1.5,13-4.9,26.3-7.8,36.5c-3.4,12.1,5,20.6,10.1,15.8"/>
	<path class="st2" d="M282.6,131.3c-5.3,12.2,4.5,22.2,3.5,35.4"/>
	<path class="st2" d="M286.4,54.2c8.4,8.5,2,14.3,0,21c-1.9,6.3-0.3,7.2,2.5,14.2"/>
</g>
</svg>
