<?xml version="1.0" encoding="utf-8"?>
<!-- Generator: Adobe Illustrator 24.1.2, SVG Export Plug-In . SVG Version: 6.00 Build 0)  -->
<svg version="1.1" id="Calque_3" xmlns="http://www.w3.org/2000/svg" xmlns:xlink="http://www.w3.org/1999/xlink" x="0px" y="0px"
	 viewBox="0 0 350 290" style="enable-background:new 0 0 350 290;" xml:space="preserve">
<style type="text/css">
	.st0{fill:#FFFFFF;stroke:#000000;stroke-miterlimit:10;}
	.st1{fill:none;stroke:#000000;stroke-linecap:round;stroke-linejoin:round;stroke-miterlimit:10;}
	.st2{fill:none;stroke:#000000;stroke-width:1.0069;stroke-linecap:round;stroke-linejoin:round;stroke-miterlimit:10;}
	.st3{fill:none;stroke:#000000;stroke-linejoin:round;stroke-miterlimit:10;}
</style>
<g>
	<path class="st0" d="M113.8,128.5c8.5-9.9,15.1-12,21.7-22.7c6.6-10.7,9.7-23,9.7-23s-0.6,28.1,34.7,32.7
		c44,5.7,58.2,40.3,58.2,40.3s7.7-1,5.1,5.6c-2.6,6.6-8.7,14.6-8.7,14.6s-5.1,16.9-15.3,24c-10.2,7.1-42.4,19.7-42.4,19.7
		s-1,14.9,2.6,20.2c4.6,6.9,12.3,7.1,25,8.9c12.8,1.8,16.6,3.6,19.1,12.8c2.6,9.2,4.7,18,4.7,18s6,0.6,8.1,0.6s3.3-1.5,5.6-2
		s3.6,1,6.4,1c2.8,0,4.1-3.8,5.9-4.6c1.8-0.8-3.8-8.4-5.1-32.4s-2-115.1-1.8-129.4c0.3-14.3-10.1-62.8-44.2-71.2
		c-23.7-5.9-41.4-0.8-41.4-0.8s-23.2-6.9-40.6,11s-27.1,43-27.6,69.7c-0.5,30.1,1,48.3,0.3,72S87,274.5,87,274.5s0.6,3.8,4.2,4.1
		c3.6,0.3,5.4-2.8,7.1-1.5c1.8,1.3,1.4,1.2,5,2.2s8.2-0.7,8.2-0.7l6.6-23.2c0,0,0.5-5.1,10.2-6.6c9.7-1.5,22-0.5,27.6-4.6
		c5.6-4.1,7.1-10.2,7.1-14.6c0-4.3,0-10.7,0-10.7s-14.6-5.6-26.2-11.1c-12.6-6-22.1-12.1-26.4-21.2c-4.4-9.4-4.1-10.6-4.1-10.6
		s-11.5-14.7-8.4-18.9c2.6-3.5,5.2-1.9,5.2-1.9S102.9,141.2,113.8,128.5z"/>
	<path class="st1" d="M150.6,59.7c0,0-4.7,19.3,0.4,29.7c4.1,8.4,5.4,12.9,33.5,22.1s38.5,12.8,44.3,21.5c5.8,8.7,10,21.8,10,21.8
		s-1-18.2-6.3-25.9s-7.8-9.7-23.8-15.3s-40.6-8.7-51.1-21.1c-12-14.2-6.4-34.4-6.4-34.4s3.7,25.4,11,31.7
		c7.3,6.3,33.7,12.9,47.7,18.6c14,5.6,26.7,8.5,28.8,19.9s2.2,27.4,2.2,27.4s4.3-27.1,0.9-35.1c-3.4-8-10.6-12.8-26.4-18.9
		s-40.4-7.3-50-17.4c-14.2-14.9-13.3-28.7-13.3-28.7s7.9,17.8,18.1,25.2c9.4,6.8,32.2,9.2,47.3,14.9c15.1,5.6,29.4,10.4,29.4,26.4
		c0,11.7-4.4,34-4.4,34"/>
	<path class="st1" d="M152.6,54.6c0,0,6.4,12,19.7,20.8c9.4,6.1,36.2,12,51.7,16.8c18.7,5.8,23,16.7,23,16.7s-5.3-18.6-20.1-23.8
		c-14.8-5.3-28.2-3.5-51.8-16.6C164.2,62.3,152.6,54.6,152.6,54.6z"/>
	<path class="st1" d="M152.6,54c0,0,21-0.2,39.8,5.7c20.6,6.5,36.9,16.5,44.9,24.6c8,8.2,8.8,20.7,8.8,20.7s-8.8-22.9-39.8-33.3
		S152.6,54,152.6,54z"/>
	<path class="st1" d="M152.8,53.4c0,0,13.8-7.8,38.5-1.3c37.8,10,53.3,42.5,53.3,42.5S230,51.7,191,45.6
		C161.8,41,152.8,53.4,152.8,53.4z"/>
	<path class="st1" d="M153,53.2c0,0,1.9-14,19.7-14.3"/>
	<path class="st1" d="M253,275.3c0,0-9.2-8.7-10.2-36c-1-27.3,0.8-79.1,0.8-79.1"/>
	<path class="st1" d="M248.4,279.1c0,0-8.4-12.5-10-31.9c-1.5-19.4,1.8-79.7,1.8-79.7"/>
	<path class="st1" d="M242,278.1c0,0-8.2-18.7-8.4-47.3c-0.3-28.6,1.3-55.7,1.3-55.7"/>
	<path class="st1" d="M236.4,280.1c0,0-7.1-16.1-7.1-37.6s0.8-55.9,0.8-55.9"/>
	<path class="st2" d="M224.4,264.1c0,0-1.8-8.9-1-28.3s0.3-39.6,0.3-39.6"/>
	<path class="st2" d="M219.9,199.8c0,0-1.8,22.2-1.9,27.4c-0.3,11.2,1,26.2,1,26.2"/>
	<path class="st2" d="M217,201.6c0,0-2.3,16.5-2.7,25.3c-0.6,13.4,0.4,23.5,0.4,23.5"/>
	<path class="st2" d="M212.4,204c0,0-2.6,16.1-2.2,25.1c0.4,9.1,0.5,20.2,0.5,20.2"/>
	<path class="st0" d="M207.8,206.3c0,0-1.4,6.6-1.5,14.7c-0.1,8,1.4,28.3,1.4,28.3"/>
	<path class="st0" d="M203.1,208.8c0,0-1.5,14.8-0.6,24.5s1.3,14.9,1.3,14.9"/>
	<path class="st0" d="M198.6,210.4c0,0-1.4,12-0.9,19.1c0.5,7.1,1.8,18.1,1.8,18.1"/>
	<path class="st0" d="M194.6,212.5c0,0-2.2,8.9-1,18.8s2.7,16,2.7,16"/>
	<path class="st0" d="M190.2,214.4c0,0-1.4,7.4-0.8,16c0.6,8.6,2.9,16.6,2.9,16.6"/>
	<path class="st0" d="M185.6,216.3c0,0-0.9,10.7,0.6,17.6c1.5,6.9,3.2,12.3,3.2,12.3"/>
	<path class="st0" d="M180.7,218.5c0,0-0.5,7.9,0.8,14.9c1.3,7,4.3,12,4.3,12"/>
	<path class="st1" d="M87.6,274.3c0,0,9.2-8.7,10.2-36c1-27.3-0.8-79.1-0.8-79.1"/>
	<path class="st1" d="M92.1,278.1c0,0,8.4-12.5,10-31.9c1.5-19.4-1.8-79.7-1.8-79.7"/>
	<path class="st1" d="M98.5,277.1c0,0,8.2-18.7,8.4-47.3c0.3-28.6-1.3-55.7-1.3-55.7"/>
	<path class="st1" d="M104.1,279.1c0,0,7.1-16.1,7.1-37.6s-0.8-55.9-0.8-55.9"/>
	<path class="st2" d="M116,263c0,0,2-8.7,1.2-28.1c-0.8-19.4-0.3-39.6-0.3-39.6"/>
	<path class="st2" d="M120.6,198.8c0,0,1.8,22.2,1.9,27.4c0.3,11.2-1,25.2-1,25.2"/>
	<path class="st2" d="M123.6,200.6c0,0,2.3,16.5,2.7,25.3c0.6,13.4-0.4,23.5-0.4,23.5"/>
	<path class="st2" d="M128.1,203c0,0,2.6,16.1,2.2,25.1c-0.4,9.1-0.5,20.2-0.5,20.2"/>
	<path class="st0" d="M132.7,205.3c0,0,1.4,6.6,1.5,14.7c0.1,8-1.4,28.3-1.4,28.3"/>
	<path class="st0" d="M137.5,207.8c0,0,1.5,14.8,0.6,24.5s-1.3,14.9-1.3,14.9"/>
	<path class="st0" d="M141.9,209.4c0,0,1.4,12,0.9,19.1c-0.5,7.1-1.8,18.1-1.8,18.1"/>
	<path class="st0" d="M145.9,211.5c0,0,2.2,8.9,1,18.8c-1.1,9.8-2.7,16-2.7,16"/>
	<path class="st0" d="M150.4,213.4c0,0,1.4,7.4,0.8,16c-0.6,8.6-2.9,16.6-2.9,16.6"/>
	<path class="st0" d="M155,215.3c0,0,0.9,10.7-0.6,17.6c-1.5,6.9-3.2,12.3-3.2,12.3"/>
	<path class="st0" d="M159.8,217.5c0,0,0.5,7.9-0.8,14.9c-1.3,7-4.3,12-4.3,12"/>
	<path class="st3" d="M149.4,62.2c0,0-5.7,20.8-12.5,32.3s-26.9,26.9-31.1,35.6c-4.2,8.7-3.6,24.5-3.6,24.5s-5.2-12.9-0.3-26.4
		c5-13.5,17.7-20.7,27.1-32.9C135.2,87.1,149.4,62.2,149.4,62.2z"/>
	<path class="st1" d="M99.3,154.9c0,0-6-24.7,0-37.6c6-12.9,15.1-15.7,27.8-31s25.1-31.5,25.1-31.5s-15.7,16.1-30.1,27.1
		c-10.2,7.9-26.6,20.1-27.5,33.4C92.5,146.4,99.3,154.9,99.3,154.9z"/>
	<path class="st1" d="M152.2,54.8c0,0-16.8,0.9-32.3,16.9c-12.1,12.5-24.5,31.5-24.5,31.5s7.2-26.4,21.8-38.8
		C140.5,44.6,152.2,54.8,152.2,54.8z"/>
	<path class="st1" d="M152.2,54.8c0,0-5.1-7.4-13.9-6.6c-8.9,0.9-23.7,10.7-23.7,10.7s19.6-22.5,30-16S152.2,54.8,152.2,54.8z"/>
</g>
</svg>
