<?xml version="1.0" encoding="UTF-8"?>
<svg id="Calque_3" xmlns="http://www.w3.org/2000/svg" version="1.1" xmlns:xlink="http://www.w3.org/1999/xlink" viewBox="0 0 350 290">
  <!-- Generator: Adobe Illustrator 29.3.0, SVG Export Plug-In . SVG Version: 2.1.0 Build 146)  -->
  <defs>
    <style>
      .st0 {
        fill: #fff;
        stroke-miterlimit: 10;
      }

      .st0, .st1, .st2, .st3 {
        stroke: #000;
      }

      .st1, .st2, .st3 {
        fill: none;
        stroke-linejoin: round;
      }

      .st1, .st3 {
        stroke-linecap: round;
      }

      .st3 {
        stroke-width: 1px;
      }
    </style>
  </defs>
  <path class="st0" d="M113.8,128.5c8.5-9.9,15.1-12,21.7-22.7,6.6-10.7,9.7-23,9.7-23,0,0-.6,28.1,34.7,32.7,44,5.7,58.2,40.3,58.2,40.3,0,0,7.7-1,5.1,5.6-2.6,6.6-8.7,14.6-8.7,14.6,0,0-5.1,16.9-15.3,24s-42.4,19.7-42.4,19.7c0,0-1,14.9,2.6,20.2,4.6,6.9,12.3,7.1,25,8.9,12.8,1.8,16.6,3.6,19.1,12.8,2.6,9.2,4.7,18,4.7,18,0,0,6,.6,8.1.6s3.3-1.5,5.6-2,3.6,1,6.4,1,4.1-3.8,5.9-4.6c1.8-.8-3.8-8.4-5.1-32.4s.8-116.3,1-130.6c.3-14.3-12.9-61.6-47-70-23.7-5.9-41.4-.8-41.4-.8,0,0-23.2-6.9-40.6,11-17.4,17.9-30.2,41.4-30.7,68.1-.5,30.1,1.8,49.1,1.1,72.8s-9,81.4-9,81.4c0,0,5.1,4.3,8.7,4.6,3.6.3,5.4-2.8,7.1-1.5,1.8,1.3,1.4,1.2,5,2.2s8.2-.7,8.2-.7l6.6-23.2s.5-5.1,10.2-6.6,22-.5,27.6-4.6,7.1-10.2,7.1-14.6v-10.7s-14.6-5.6-26.2-11.1c-12.6-6-22.1-12.1-26.4-21.2-4.4-9.4-4.1-10.6-4.1-10.6,0,0-11.5-14.7-8.4-18.9,2.6-3.5,5.2-1.9,5.2-1.9,0,0-.2-14,10.7-26.7Z"/>
  <path class="st1" d="M150.6,59.7s-4.7,19.3.4,29.7c4.1,8.4,5.4,12.9,33.5,22.1s38.5,12.8,44.3,21.5,10,21.8,10,21.8c0,0-1-18.2-6.3-25.9s-7.8-9.7-23.8-15.3-40.6-8.7-51.1-21.1c-12-14.2-6.4-34.4-6.4-34.4,0,0,3.7,25.4,11,31.7,7.3,6.3,33.7,12.9,47.7,18.6,14,5.6,26.7,8.5,28.8,19.9,2.1,11.4,2.2,27.4,2.2,27.4,0,0,4.3-27.1.9-35.1-3.4-8-10.6-12.8-26.4-18.9s-40.4-7.3-50-17.4c-14.2-14.9-13.3-28.7-13.3-28.7,0,0,7.9,17.8,18.1,25.2,9.4,6.8,32.2,9.2,47.3,14.9,15.1,5.6,29.4,10.4,29.4,26.4s-4.4,34-4.4,34"/>
  <path class="st1" d="M152.6,54.6s6.4,12,19.7,20.8c9.4,6.1,36.2,12,51.7,16.8,18.7,5.8,25.4,23.6,25.4,23.6,0,0-7.7-25.5-22.5-30.7-14.8-5.3-28.2-3.5-51.8-16.6-10.9-6.2-22.5-13.9-22.5-13.9Z"/>
  <path class="st1" d="M152.6,54s21-.2,39.8,5.7c20.6,6.5,36.9,16.5,44.9,24.6,8,8.2,12.4,21.3,12.4,21.3,0,0-12.4-23.5-43.4-33.9s-53.7-17.7-53.7-17.7Z"/>
  <path class="st1" d="M152.8,53.4s13.8-7.8,38.5-1.3c37.8,10,53.6,36.7,53.6,36.7,0,0-14.9-37.1-53.9-43.2-29.2-4.6-38.2,7.8-38.2,7.8Z"/>
  <path class="st1" d="M153,53.2s1.9-14,19.7-14.3"/>
  <path class="st1" d="M253,275.3s-9.2-8.7-10.2-36c-1-27.3,2.4-93.2,2.4-93.2"/>
  <path class="st1" d="M248.4,279.1s-8.4-12.5-10-31.9c-1.5-19.4,1.8-79.7,1.8-79.7"/>
  <path class="st1" d="M242,278.1s-8.2-18.7-8.4-47.3c-.3-28.6,1.3-55.7,1.3-55.7"/>
  <path class="st1" d="M236.4,280.1s-7.1-16.1-7.1-37.6.8-55.9.8-55.9"/>
  <path class="st3" d="M224.4,264.1s-1.8-8.9-1-28.3.3-39.6.3-39.6"/>
  <path class="st3" d="M219.9,199.8s-1.8,22.2-1.9,27.4c-.3,11.2,1,26.2,1,26.2"/>
  <path class="st3" d="M217,201.6s-2.3,16.5-2.7,25.3c-.6,13.4.4,23.5.4,23.5"/>
  <path class="st3" d="M212.4,204s-2.6,16.1-2.2,25.1c.4,9.1.5,20.2.5,20.2"/>
  <path class="st0" d="M207.8,206.3s-1.4,6.6-1.5,14.7c-.1,8,1.4,28.3,1.4,28.3"/>
  <path class="st0" d="M203.1,208.8s-1.5,14.8-.6,24.5,1.3,14.9,1.3,14.9"/>
  <path class="st0" d="M198.6,210.4s-1.4,12-.9,19.1,1.8,18.1,1.8,18.1"/>
  <path class="st0" d="M194.6,212.5s-2.2,8.9-1,18.8,2.7,16,2.7,16"/>
  <path class="st0" d="M190.2,214.4s-1.4,7.4-.8,16c.6,8.6,2.9,16.6,2.9,16.6"/>
  <path class="st0" d="M185.6,216.3s-.9,10.7.6,17.6c1.5,6.9,3.2,12.3,3.2,12.3"/>
  <path class="st0" d="M180.7,218.5s-.5,7.9.8,14.9,4.3,12,4.3,12"/>
  <path class="st1" d="M84,274.4s10.2-13.2,11.2-40.5c1-27.3,1.7-74.7,1.7-74.7"/>
  <path class="st1" d="M92.1,278.1s8.4-12.5,10-31.9c1.5-19.4-1.8-79.7-1.8-79.7"/>
  <path class="st1" d="M98.5,277.1s8.2-18.7,8.4-47.3c.3-28.6-1.3-55.7-1.3-55.7"/>
  <path class="st1" d="M104.1,279.1s7.1-16.1,7.1-37.6-.8-55.9-.8-55.9"/>
  <path class="st3" d="M116,263s2-8.7,1.2-28.1c-.8-19.4-.3-39.6-.3-39.6"/>
  <path class="st3" d="M120.6,198.8s1.8,22.2,1.9,27.4c.3,11.2-1,25.2-1,25.2"/>
  <path class="st3" d="M123.6,200.6s2.3,16.5,2.7,25.3c.6,13.4-.4,23.5-.4,23.5"/>
  <path class="st3" d="M128.1,203s2.6,16.1,2.2,25.1c-.4,9.1-.5,20.2-.5,20.2"/>
  <path class="st0" d="M132.7,205.3s1.4,6.6,1.5,14.7c.1,8-1.4,28.3-1.4,28.3"/>
  <path class="st0" d="M137.5,207.8s1.5,14.8.6,24.5-1.3,14.9-1.3,14.9"/>
  <path class="st0" d="M141.9,209.4s1.4,12,.9,19.1-1.8,18.1-1.8,18.1"/>
  <path class="st0" d="M145.9,211.5s2.2,8.9,1,18.8c-1.1,9.8-2.7,16-2.7,16"/>
  <path class="st0" d="M150.4,213.4s1.4,7.4.8,16c-.6,8.6-2.9,16.6-2.9,16.6"/>
  <path class="st0" d="M155,215.3s.9,10.7-.6,17.6c-1.5,6.9-3.2,12.3-3.2,12.3"/>
  <path class="st0" d="M159.8,217.5s.5,7.9-.8,14.9-4.3,12-4.3,12"/>
  <path class="st2" d="M149.4,62.2s-5.7,20.8-12.5,32.3-26.9,26.9-31.1,35.6c-4.2,8.7-3.6,24.5-3.6,24.5,0,0-5.2-12.9-.3-26.4,5-13.5,17.7-20.7,27.1-32.9,6.2-8.2,20.4-33.1,20.4-33.1Z"/>
  <path class="st1" d="M99.3,154.9s-6-24.7,0-37.6,15.1-15.7,27.8-31c12.7-15.3,25.1-31.5,25.1-31.5,0,0-15.7,16.1-30.1,27.1-10.2,7.9-26.6,20.1-27.5,33.4-2.1,31.1,4.7,39.6,4.7,39.6Z"/>
  <path class="st1" d="M152.2,54.8s-16.8.9-32.3,16.9c-12.1,12.5-28,34.3-28,34.3,0,0,10.7-29.2,25.3-41.6,23.3-19.8,35-9.6,35-9.6Z"/>
  <path class="st1" d="M152.2,54.8s-5.1-7.4-13.9-6.6c-8.9.9-23.7,10.7-23.7,10.7,0,0,19.6-22.5,30-16s7.6,11.9,7.6,11.9Z"/>
</svg>