<?xml version="1.0" encoding="utf-8"?>
<!-- Generator: Adobe Illustrator 24.1.2, SVG Export Plug-In . SVG Version: 6.00 Build 0)  -->
<svg version="1.1" id="Calque_1" xmlns="http://www.w3.org/2000/svg" xmlns:xlink="http://www.w3.org/1999/xlink" x="0px" y="0px"
	 viewBox="0 0 125 70" style="enable-background:new 0 0 125 70;" xml:space="preserve">
<style type="text/css">
	.st0{fill:#1D1D1B;}
	.st1{fill:none;stroke:#1D1D1B;stroke-miterlimit:10;}
</style>
<path class="st0" d="M59.1,9.8c0,0-0.6,4.8-3.7,4.2c-3-0.7-0.5-5.9-0.5-5.9S58.1,2,63.8,2s10.6,5.4,10.6,10.6s-3.7,8.6-5.2,9.8
	c-1.5,1.2-4.2,2.3-4.2,4.9s3,2.7,3,2.7s5.1,1.1,8.2,3.7c3,2.6,6.7,7.8,14.3,10c7.5,2.2,20.4,5.2,24.6,7.4s8.8,7.4,8.7,11.4
	s-1,6.5-4.5,6.5s-5.6-2.2-4.9-4.6c0.7-2.4,2.4-6.5-3.6-9.3c-6-2.7-13.8-4.2-21.3-6.5c-7.5-2.3-11.3-5.3-13.6-7.9
	c-2.3-2.6-5.7-5.8-13-5.8s-10.7,3.2-13,5.8c-2.3,2.6-6.1,5.7-13.6,7.9s-15.3,3.8-21.3,6.5s-4.2,6.9-3.6,9.3C12,66.9,9.9,69,6.4,69
	S2.1,66.5,2,62.5c-0.1-4,4.5-9.3,8.7-11.4s17.1-5.2,24.6-7.4s11.2-7.4,14.3-10c3-2.6,7.5-3.7,7.5-3.7s3-0.1,3-2.7
	c0-4.3,4.5-6.7,6.6-8.3c1.4-1.1,3.2-3.5,3.2-6.2s-1.6-6.6-6-6.6S59.1,9.8,59.1,9.8z"/>
<circle class="st1" cx="45.2" cy="49.6" r="4.4"/>
<path class="st0" d="M57.6,55.5c2.6,0.8,4.2,3.6,3.4,6.1c-0.8,2.6-3.6,4-6.2,3.2c-2.4-0.7-3.9-4.8-1.3-5.5c2.7-0.8,2.5,2.2,2.5,2.2
	s0,0.8-1,0.8c-0.8,0-0.8-1.2-0.3-1.3c0.4-0.1,0.6,0,0.6,0s0-1.5-1.6-1.1c-1.4,0.4-1,3.3,1.4,4c2.4,0.7,4.1-1,4.7-2.6
	C60.5,59.7,60,58,59,57C58.1,55.9,57.6,55.5,57.6,55.5z"/>
<path class="st1" d="M49.4,48.1c0.3-0.1,0.6-0.1,1-0.1c2.5,0,4.4,2,4.4,4.4c0,1.6-0.9,3.1-2.2,3.8"/>
<circle class="st1" cx="48.4" cy="57.7" r="4.4"/>
<circle class="st1" cx="62.5" cy="48.2" r="8.5"/>
<circle class="st1" cx="38.2" cy="54.2" r="3.8"/>
<path class="st0" d="M35.1,56.6c-3.8-5.1-7.5-6-13.8-3.9c-6.4,2.2-5,7.3-2.7,7.3s1.3-2,1.3-2s-0.6-4,4.2-4c2.9,0,5.2,1.7,7.2,3.7
	c-1.1,1-7,6.6-11.5,6.6c-5,0-6.4-2.7-5.7-4.5s1.8-3.1,0-3.9c-1.8-0.8-3.3,1.3-3.4,3.2c-0.1,1.9,1.1,7,7.5,7c7.4,0,12.7-6.3,13.8-7.8
	c2.5,2.6,4.6,5.3,7.2,5.3c4.8,0,6.2-2.7,6.2-2.7C41,63.7,38.9,61.6,35.1,56.6z M35.1,60.1c-1.7-1.9-3.3-3.8-5.5-5.2
	c-2.4-1.5-4.6-2-4.6-2s3-0.7,5.4,0.8c2.4,1.5,4.4,4.4,5.3,5.5c2,2.3,3.8,3.4,3.8,3.4S37.5,62.8,35.1,60.1z"/>
<path class="st1" d="M59.1,40.4c0,0,0.4,2,1.8,1.8c1.4-0.2,2-2.8,1.3-4.7c-0.7-1.9-1.9-2.8-3.7-2.3s-1.6,2.4-0.4,2.7
	c1.1,0.2,2.8-0.7,1.8-2.8"/>
<circle class="st1" cx="79.8" cy="49.6" r="4.4"/>
<path class="st0" d="M67.4,55.5c-2.6,0.8-4.1,3.6-3.3,6.1c0.8,2.6,3.5,4,6.1,3.2c2.4-0.7,3.9-4.8,1.3-5.5c-2.7-0.8-2.5,2.2-2.5,2.2
	s0,0.8,1,0.8c0.8,0,0.8-1.2,0.3-1.3c-0.4-0.1-0.6,0-0.6,0s0-1.6,1.7-1.2c1.6,0.5,1,3.3-1.4,4c-2.4,0.7-4-0.9-4.7-2.6
	C64.6,59.7,65,58,65.9,57C66.9,55.9,67.4,55.5,67.4,55.5z"/>
<path class="st1" d="M75.6,48.1c-0.3-0.1-0.6-0.1-1-0.1c-2.5,0-4.4,2-4.4,4.4c0,1.6,0.9,3.1,2.2,3.8"/>
<circle class="st1" cx="76.6" cy="57.7" r="4.4"/>
<circle class="st1" cx="86.8" cy="54.2" r="3.8"/>
<path class="st0" d="M79.6,61c0,0,1.4,2.7,6.2,2.7c2.5,0,4.7-2.7,7.2-5.3c1.1,1.4,6.3,7.8,13.8,7.8c6.3,0,7.6-5.1,7.5-7
	c-0.1-1.9-1.6-4-3.4-3.2c-1.8,0.8-0.7,2,0,3.9c0.7,1.9-0.8,4.5-5.7,4.5c-4.5,0-10.4-5.6-11.5-6.6c2-2,4.3-3.7,7.2-3.7
	c4.9,0,4.2,4,4.2,4s-1.1,2,1.3,2c2.3,0,3.7-5.1-2.7-7.3c-6.4-2.2-10-1.2-13.8,3.9C86.1,61.6,84,63.7,79.6,61z M85.4,62.5
	c0,0,1.9-1.2,3.8-3.4c0.9-1.1,2.9-4,5.3-5.5c2.4-1.5,5.4-0.8,5.4-0.8s-2.2,0.6-4.6,2c-2.2,1.4-3.8,3.3-5.5,5.2
	C87.5,62.8,85.4,62.5,85.4,62.5z"/>
<path class="st1" d="M66,40.4c0,0-0.4,2-1.8,1.8c-1.4-0.2-2-2.8-1.3-4.7c0.7-1.9,1.9-2.8,3.7-2.3c1.7,0.4,1.6,2.4,0.4,2.7
	s-2.8-0.7-1.8-2.8"/>
<path class="st1" d="M60.4,61.9c0-1.1,1-2.1,2.2-2.1s2.2,0.9,2.2,2.1"/>
</svg>
