<?xml version="1.0" encoding="utf-8"?>
<!-- Generator: Adobe Illustrator 24.1.2, SVG Export Plug-In . SVG Version: 6.00 Build 0)  -->
<svg version="1.1" id="Calque_2_1_" xmlns="http://www.w3.org/2000/svg" xmlns:xlink="http://www.w3.org/1999/xlink" x="0px"
	 y="0px" viewBox="0 0 90 90" style="enable-background:new 0 0 90 90;" xml:space="preserve">
<style type="text/css">
	.st0{fill:#F2F0E7;stroke:#FFFFFF;stroke-width:1.0142;stroke-miterlimit:10;}
	.st1{fill:#FFFFFF;}
</style>
<path class="st0" d="M0.3,75.1c0,9.8,7.1,15,14.9,15c8,0,14.5-6.4,15-14.5h0.1c0.3,8,6.9,14.5,14.9,14.5c7.9,0,14.3-6.6,14.9-14.5
	H60C60.7,83.4,67.1,90,74.8,90s15-6.6,15-14.9S83.4,60.3,75.3,60l0,0c8.1-0.2,14.5-6.8,14.5-15c0-8-6.7-14.7-14.5-15.1l0,0
	c7.8-0.4,14.5-6.9,14.5-14.9c0-8.5-7.2-15-14.7-15c-8,0-14.6,6.8-15.2,14.8l0,0c-0.3-8-6.9-14.9-14.9-14.9c-8.2,0-14.7,6.6-15,14.9
	l0,0c-0.1-8.2-6.8-14.9-15-14.9c-0.2,0-0.4,0-0.6,0l0,0C6.3,0.1,0.1,6.9,0.2,15.2c0,8,6.8,14.5,14.6,14.9l0,0
	c-8,0.4-14.7,7-14.6,15.1c0,8.1,6.6,14.8,14.6,15l0,0C6.7,60.2,0.2,67,0.3,75.1z"/>
<path class="st1" d="M21.5,17c0,0-3.5-0.7-3.4-1.7c0.1-1,3.5-1.6,3.5-1.6s2.7-0.9,1.4-3.1c-1.3-2.2-3.6,0.1-3.6,0.1
	s-1.9,3.2-3.1,2.6C15.1,12.6,17,9.2,17,9.2s0.4-2.8-2.1-2.8s-2.3,2.9-2.3,2.9s1.4,3.3,0.5,3.8c-0.9,0.4-2.2-1.6-2.2-1.6
	s-2.8-2.7-4.3-0.2c-1.5,2.4,1.2,3.3,1.2,3.3s3.5,0.5,3.5,1.5C11.2,17,8,16.9,8,16.9s-3,1.3-1.5,3.3c1.5,2.1,3.9,0,3.9,0
	s1.9-3.2,3-2.6c1.1,0.7-0.6,4.2-0.6,4.2s-0.6,3,2.2,3s1.9-3,1.9-3s-1.5-3.3-0.5-4.1c1-0.7,2.8,2.8,2.8,2.8s3,1.8,3.8-0.7
	C24,17.5,21.5,17,21.5,17z M14.9,16.7c-0.7,0-1.3-0.6-1.3-1.3c0-0.7,0.6-1.3,1.3-1.3c0.7,0,1.3,0.6,1.3,1.3S15.6,16.7,14.9,16.7z"/>
<path class="st1" d="M51.6,17c0,0-3.5-0.7-3.4-1.7c0.1-1,3.5-1.6,3.5-1.6s2.7-0.9,1.4-3.1c-1.3-2.2-3.6,0.1-3.6,0.1
	s-1.9,3.2-3.1,2.6c-1.1-0.6,0.8-4.1,0.8-4.1s0.4-2.8-2.1-2.8c-2.5,0-2.3,2.9-2.3,2.9s1.4,3.3,0.5,3.8c-0.9,0.4-2.2-1.6-2.2-1.6
	s-2.8-2.7-4.3-0.2c-1.5,2.4,1.2,3.3,1.2,3.3s3.5,0.5,3.5,1.5c-0.1,0.9-3.3,0.8-3.3,0.8s-3,1.3-1.5,3.3c1.5,2.1,3.9,0,3.9,0
	s1.9-3.2,3-2.6c1.1,0.7-0.6,4.2-0.6,4.2s-0.6,3,2.2,3c2.8,0,1.9-3,1.9-3s-1.5-3.3-0.5-4.1c1-0.7,2.8,2.8,2.8,2.8s3,1.8,3.8-0.7
	S51.6,17,51.6,17z M45,16.7c-0.7,0-1.3-0.6-1.3-1.3c0-0.7,0.6-1.3,1.3-1.3c0.7,0,1.3,0.6,1.3,1.3S45.7,16.7,45,16.7z"/>
<path class="st1" d="M81.6,17c0,0-3.5-0.7-3.4-1.7c0.1-1,3.5-1.6,3.5-1.6s2.7-0.9,1.4-3.1c-1.3-2.2-3.6,0.1-3.6,0.1
	s-1.9,3.2-3.1,2.6c-1.1-0.6,0.8-4.1,0.8-4.1s0.4-2.8-2.1-2.8s-2.3,2.9-2.3,2.9s1.4,3.3,0.5,3.8c-0.9,0.4-2.2-1.6-2.2-1.6
	s-2.8-2.7-4.3-0.2c-1.5,2.4,1.2,3.3,1.2,3.3s3.5,0.5,3.5,1.5c-0.1,0.9-3.3,0.8-3.3,0.8s-3,1.3-1.5,3.3c1.5,2.1,3.9,0,3.9,0
	s1.9-3.2,3-2.6c1.1,0.7-0.6,4.2-0.6,4.2s-0.6,3,2.2,3c2.8,0,1.9-3,1.9-3s-1.5-3.3-0.5-4.1c1-0.7,2.8,2.8,2.8,2.8s3,1.8,3.8-0.7
	S81.6,17,81.6,17z M74.9,16.7c-0.7,0-1.3-0.6-1.3-1.3c0-0.7,0.6-1.3,1.3-1.3c0.7,0,1.3,0.6,1.3,1.3C76.3,16.1,75.7,16.7,74.9,16.7z"
	/>
<path class="st1" d="M21.5,77.2c0,0-3.5-0.7-3.4-1.7c0.1-1,3.5-1.6,3.5-1.6s2.7-0.9,1.4-3.1c-1.3-2.2-3.6,0.1-3.6,0.1
	s-1.9,3.2-3.1,2.6c-1.1-0.6,0.8-4.1,0.8-4.1s0.4-2.8-2.1-2.8s-2.3,2.9-2.3,2.9s1.4,3.3,0.5,3.8c-0.9,0.4-2.2-1.6-2.2-1.6
	s-2.8-2.7-4.3-0.2c-1.5,2.4,1.2,3.3,1.2,3.3s3.5,0.5,3.5,1.5C11.2,77.2,8,77.1,8,77.1s-3,1.3-1.5,3.3c1.5,2.1,3.9,0,3.9,0
	s1.9-3.2,3-2.6c1.1,0.6-0.6,4.2-0.6,4.2s-0.6,3,2.2,3s1.9-3,1.9-3s-1.5-3.3-0.5-4.1s2.8,2.8,2.8,2.8s3,1.8,3.8-0.7
	C24,77.7,21.5,77.2,21.5,77.2z M14.9,76.9c-0.7,0-1.3-0.6-1.3-1.3c0-0.7,0.6-1.3,1.3-1.3c0.7,0,1.3,0.6,1.3,1.3S15.6,76.9,14.9,76.9
	z"/>
<path class="st1" d="M51.6,77.2c0,0-3.5-0.7-3.4-1.7c0.1-1,3.5-1.6,3.5-1.6s2.7-0.9,1.4-3.1c-1.3-2.2-3.6,0.1-3.6,0.1
	s-1.9,3.2-3.1,2.6c-1.1-0.6,0.8-4.1,0.8-4.1s0.4-2.8-2.1-2.8c-2.5,0-2.3,2.9-2.3,2.9s1.4,3.3,0.5,3.8c-0.9,0.4-2.2-1.6-2.2-1.6
	s-2.8-2.7-4.3-0.2c-1.5,2.4,1.2,3.3,1.2,3.3s3.5,0.5,3.5,1.5c-0.1,0.9-3.3,0.8-3.3,0.8s-3,1.3-1.5,3.3c1.5,2.1,3.9,0,3.9,0
	s1.9-3.2,3-2.6c1.1,0.6-0.6,4.2-0.6,4.2s-0.6,3,2.2,3c2.8,0,1.9-3,1.9-3s-1.5-3.3-0.5-4.1c1-0.7,2.8,2.8,2.8,2.8s3,1.8,3.8-0.7
	C54,77.5,51.6,77.2,51.6,77.2z M45,76.9c-0.7,0-1.3-0.6-1.3-1.3c0-0.7,0.6-1.3,1.3-1.3c0.7,0,1.3,0.6,1.3,1.3S45.7,76.9,45,76.9z"/>
<path class="st1" d="M81.6,77.2c0,0-3.5-0.7-3.4-1.7c0.1-1,3.5-1.6,3.5-1.6s2.7-0.9,1.4-3.1c-1.3-2.2-3.6,0.1-3.6,0.1
	s-1.9,3.2-3.1,2.6c-1.1-0.6,0.8-4.1,0.8-4.1s0.4-2.8-2.1-2.8s-2.3,2.9-2.3,2.9s1.4,3.3,0.5,3.8c-0.9,0.4-2.2-1.6-2.2-1.6
	s-2.8-2.7-4.3-0.2c-1.5,2.4,1.2,3.3,1.2,3.3s3.5,0.5,3.5,1.5c-0.1,0.9-3.3,0.8-3.3,0.8s-3,1.3-1.5,3.3c1.5,2.1,3.9,0,3.9,0
	s1.9-3.2,3-2.6c1.1,0.6-0.6,4.2-0.6,4.2s-0.6,3,2.2,3c2.8,0,1.9-3,1.9-3s-1.5-3.3-0.5-4.1s2.8,2.8,2.8,2.8s3,1.8,3.8-0.7
	C84,77.5,81.6,77.2,81.6,77.2z M74.9,76.9c-0.7,0-1.3-0.6-1.3-1.3c0-0.7,0.6-1.3,1.3-1.3c0.7,0,1.3,0.6,1.3,1.3
	C76.3,76.3,75.7,76.9,74.9,76.9z"/>
<path class="st1" d="M21.5,46.7c0,0-3.5-0.7-3.4-1.7c0.1-1,3.5-1.6,3.5-1.6s2.7-0.9,1.4-3.1c-1.3-2.2-3.6,0.1-3.6,0.1
	s-1.9,3.2-3.1,2.6c-1.1-0.6,0.8-4.1,0.8-4.1s0.4-2.8-2.1-2.8S12.6,39,12.6,39s1.4,3.3,0.5,3.8c-0.9,0.4-2.2-1.6-2.2-1.6
	s-2.8-2.7-4.3-0.2c-1.5,2.4,1.2,3.3,1.2,3.3s3.5,0.5,3.5,1.5C11.2,46.7,8,46.6,8,46.6s-3,1.3-1.5,3.3c1.5,2.1,3.9,0,3.9,0
	s1.9-3.2,3-2.6s-0.6,4.2-0.6,4.2s-0.6,3,2.2,3s1.9-3,1.9-3s-1.5-3.3-0.5-4.1c1-0.7,2.8,2.8,2.8,2.8s3,1.8,3.8-0.7
	C24,47.2,21.5,46.7,21.5,46.7z M14.9,46.4c-0.7,0-1.3-0.6-1.3-1.3c0-0.7,0.6-1.3,1.3-1.3c0.7,0,1.3,0.6,1.3,1.3
	C16.2,45.8,15.6,46.4,14.9,46.4z"/>
<path class="st1" d="M81.6,46.7c0,0-3.5-0.7-3.4-1.7c0.1-1,3.5-1.6,3.5-1.6s2.7-0.9,1.4-3.1c-1.3-2.2-3.6,0.1-3.6,0.1
	s-1.9,3.2-3.1,2.6c-1.1-0.6,0.8-4.1,0.8-4.1S77.6,36,75,36S72.7,39,72.7,39s1.4,3.3,0.5,3.8c-0.9,0.4-2.2-1.6-2.2-1.6
	s-2.8-2.7-4.3-0.2c-1.5,2.4,1.2,3.3,1.2,3.3s3.5,0.5,3.5,1.5c-0.1,0.9-3.3,0.8-3.3,0.8s-3,1.3-1.5,3.3c1.5,2.1,3.9,0,3.9,0
	s1.9-3.2,3-2.6s-0.6,4.2-0.6,4.2s-0.6,3,2.2,3c2.8,0,1.9-3,1.9-3s-1.5-3.3-0.5-4.1c1-0.7,2.8,2.8,2.8,2.8s3,1.8,3.8-0.7
	S81.6,46.7,81.6,46.7z M74.9,46.4c-0.7,0-1.3-0.6-1.3-1.3c0-0.7,0.6-1.3,1.3-1.3c0.7,0,1.3,0.6,1.3,1.3
	C76.3,45.8,75.7,46.4,74.9,46.4z"/>
</svg>
