<svg xmlns="http://www.w3.org/2000/svg" version="1.1" xmlns:xlink="http://www.w3.org/1999/xlink" viewBox="0 0 292.3 199.9">
  <path fill="#666" d="M129.6,169.3s50.8,1.9,86.2-36.2c35.4-38,45.5-93.8,45.5-93.8,0,0-4.4-3.2-6.5-5.2s-3.1-3.5-3.1-3.5c0,0,3.7-8.5,10.1-6.6s7.3,9.3,7.3,9.3c0,0-3.4,2-4.6,2.8s-2.3,3.7-2.3,3.7c0,0-8.1,25.1-11.3,34s-16.6,35.9-16.6,35.9c0,0,9.7-10.8,17.2-17.3,7.5-6.5,13.9-8.3,13.9-8.3l5.1-5.5s2,0,2.7,3.2-2.1,5.3-2.1,5.3l-5.3-1.7s-5.8-.2-16.2,9.2c-10.4,9.4-16,16.7-16,16.7,0,0-14,18.4-19,23.7-5,5.2-24.5,20.8-38.3,25.7s-18.7,5.7-24.6,6.9-22.2,1.7-22.2,1.7Z"/>
  <path stroke="#666" fill="#f39200" d="M251.7,30.6s4.9-8.5,10.1-6.6,7.3,9.3,7.3,9.3c0,0,13.3-8.9,11.8-12.5-1.5-3.6-14.3,5.3-14.3,5.3,0,0,9.5-16.3,3.8-18.4-5.7-2.2-8.8,15.8-8.8,15.8,0,0,1.9-21.1-4.6-20.1-6.5,1-.9,22-.9,22,0,0-8.2-20.3-13.6-16.6s9.1,21.9,9.1,21.9Z"/>
  <path stroke="#666" fill="#a3195b" d="M270.6,78.6s2.3.7,2.4,4.6-1.8,3.9-1.8,3.9c0,0,6.3,3.4,7,1.7s-4.2-4.4-4.2-4.4c0,0,12.8,2.4,13.2-1.4s-13.1-1.3-13.1-1.3c0,0,15.6-3.9,14.5-7.2-2-5.7-18,4.1-18,4.1Z"/>
  <path fill="#666" d="M28.6,113.4l-8.5-.3s-3.7-10.8,3.2-13.7c6.9-2.8,12.3,2.8,12.3,2.8l-3.9,12s20.5,27.4,50.4,41.3,43.8,13.8,67.3,13.2c23.5-.6,48.1-6.2,57.8-10.5,9.7-4.3,12-8.3,12-8.3l1.3-12.5s9.4-2.3,11.4,3.5c2,5.8-3.5,12.8-3.5,12.8l-7.5-1.6s-21.5,14.3-64.3,16.9c-42.8,2.6-64-6.3-81.7-15.6-29.5-15.6-46.2-39.9-46.2-39.9Z"/>
  <path stroke="#666" fill="#de516d" d="M20.5,112.8s-4.1-10.3,1.7-12.6c5.7-2.3,13.1,1.7,13.1,1.7,0,0,3.1-24-2.7-24.5s-3.1,21.8-3.1,21.8c0,0-7.4-21.6-12.9-19.5-5.5,2.2,6.1,20.3,6.1,20.3,0,0-11.1-13.6-14.7-8.7-3.6,4.9,10.3,13.4,10.3,13.4,0,0-14.1-2.3-14,2.6s16.1,5.3,16.1,5.3Z"/>
  <path stroke="#666" fill="#de516d" d="M220.6,138.1s10-3.3,11.3,3.8-3.6,11.8-3.6,11.8c0,0,16.1,5.7,17.8,1.8,1.7-3.9-13.8-7.7-13.8-7.7,0,0,18.7-4.6,17.1-10.1-2.2-7.4-17.5,2.8-17.5,2.8,0,0,17.3-9.7,13.8-15.6s-18.1,12.1-18.1,12.1c0,0,11.4-19,5.3-19.8-6.1-.8-12.3,20.8-12.3,20.8Z"/>
  <path fill="#666" d="M49.8,153.6s21.7,2.3,49.3,9.6c27.6,7.3,36.4,7.1,48,7.2,11.7.2,38,9.3,38,9.3l8.6,1.3s1.2,2.9-1.4,4.8c-2.6,1.9-5.5,1.9-5.5,1.9l-1.3-6.8s-19.5-9.2-37.8-9.6c-18.3-.3-40-4.7-50-7.2-10-2.6-46.2-11.2-48.2-9.3s-3.8,5.7-3.8,5.7c0,0-3.7-1.2-4-3.8s0-4.5,0-4.5l8.2,1.4Z"/>
  <path stroke="#666" fill="#f39200" d="M41.6,152.2s-1,1.8,0,4.5,4,3.8,4,3.8c0,0-4.1,6.8-5.7,5.1s1.4-6.1,1.4-6.1c0,0-8.9,7.8-11.1,5.5s9.6-7.6,9.6-7.6c0,0-14.9,3.5-15.3,0s17-5.2,17-5.2Z"/>
  <path stroke="#666" fill="#a3195b" d="M186.6,185.9s3.4,2.6,5.7-.1,1.4-4.8,1.4-4.8c0,0,16.6,9.2,13.8,11.8s-14.1-6.3-14.1-6.3c0,0,9.7,10.9,6.8,10.9s-9-8.3-9-8.3c0,0,1.9,6.2.2,6.5s-4.8-9.7-4.8-9.7Z"/>

</svg>