<?xml version="1.0" encoding="utf-8"?>
<!-- Generator: Adobe Illustrator 24.1.2, SVG Export Plug-In . SVG Version: 6.00 Build 0)  -->
<svg version="1.1" xmlns="http://www.w3.org/2000/svg" xmlns:xlink="http://www.w3.org/1999/xlink" x="0px" y="0px"
	 viewBox="0 0 500 500" style="enable-background:new 0 0 500 500;" xml:space="preserve">
<style type="text/css">
	.st0{display:none;}
	.st1{fill:#FFE4D9;stroke:#1D1D1B;stroke-width:1.054;stroke-linecap:round;stroke-linejoin:round;stroke-miterlimit:10;}
	.st2{fill:#FFE4D9;stroke:#1D1D1B;stroke-miterlimit:10;}
	.st3{fill:#FFFFFF;stroke:#000000;stroke-miterlimit:10;}
	.st4{fill:none;stroke:#000000;stroke-miterlimit:10;}
	.st5{fill:#FF7A84;stroke:#1D1D1B;stroke-width:0.8511;stroke-linecap:round;stroke-linejoin:round;stroke-miterlimit:10;}
	.st6{fill:#FFE4D9;}
	.st7{fill:#FFFFFF;}
	.st8{fill:#1CB6C6;stroke:#000000;stroke-width:0.9428;stroke-miterlimit:10;}
	.st9{fill:#1D1D1B;}
	.st10{fill:#FF7A84;stroke:#1D1D1B;stroke-width:1.0045;stroke-linecap:round;stroke-linejoin:round;stroke-miterlimit:10;}
	.st11{fill:url(#SVGID_1_);}
	.st12{fill:url(#SVGID_2_);}
	.st13{display:inline;opacity:0.48;fill:#FFFFFF;stroke:#000000;stroke-miterlimit:10;}
	.st14{display:inline;fill:none;stroke:#000000;stroke-miterlimit:10;}
	.st15{display:inline;fill:#1C2B36;}
</style>
<g id="Calque_2" class="st0">
	
		<image style="display:inline;overflow:visible;" width="600" height="620" xlink:href="EC46A1B7.jpg"  transform="matrix(1.5661 0 0 1.5661 -216.1935 -383.7244)">
	</image>
</g>
<g id="Calque_3">
	<path class="st1" d="M385.2,193.8c-0.7-5.8-11.3-18.2-15.5-22.4c-4.3-4.2-10.9-21-14.6-30.8c-3.7-9.8-17.7-32.5-21.8-41.4
		c-4.1-8.9-8.3-34.8-10.9-47c-2-9.3-5.4-26.1-8.3-35.4c-1.4-4.7-2.1-8.6-4.2-10.4c-7.7-6.5-17.5-3-32.8-7s-9.7-31.8-9.7-31.8h-15.1
		c0,0,5.7,27.7-9.7,31.8s-25.1,0.5-32.8,7c-1.5,1.3-2.1,2.8-2,4.5c-2.4,7.8-9.4,31.1-11.6,41.2c-2.6,12.3-6.8,38.2-10.9,47
		c-4.1,8.9-18.1,31.6-21.8,41.4c-3.7,9.8-10.3,26.5-14.6,30.8c-4.3,4.2-14.8,16.6-15.5,22.4c-0.7,5.8-2.2,13,0.5,12.1
		c1.7-0.6,2.1-5.3,3.2-9.2c-0.4,2.3-0.4,8.9,1.6,8.9c1.8,0,1.1-8.2,1.1-8.2s1,8.4,3.1,6.6c1.3-1.1-1.1-5.3-0.2-8s4.5-7.8,4.5-7.8
		l-7.7,3.9c0.2-0.2,0.5-0.4,0.8-0.6l6.9-3.3c0,0-3.7,8.9-3.9,11.2c-0.2,2.3,1.9,2,5.4-4.1c2.2-3.9,8-3.8,9.9-11.4
		c2-7.5-1.4-8.6,1.7-13.9c3.1-5.4,11.3-16.2,19.6-28.9c7.9-12.1,15.6-27.2,20.2-36.6c4.5-9.4,17.9-59.9,19.6-65.3
		c0.5-1.7,1-3.1,1.5-4.1c2.9,5.3,5.5,11.2,7,17.9c5.4,24.8,4.1,51.5-2.4,75.2c-6.5,23.7-19.1,36.1-14.5,93.3
		c2.7,33.9,16.5,86.1,17.1,121.6c0.5,35.5-5.9,47.9,2.2,82.3c8.1,34.4,10.8,66.7,8.6,74.8c-2.2,8.1-14,39.8,9.1,38.8
		c8-0.4,11.1-4,11.7-9.5c0.6,5.5,3.7,9.1,11.7,9.5c23.1,1.1,11.3-30.7,9.1-38.8c-2.2-8.1,0.5-40.4,8.6-74.8
		c8.1-34.4,1.6-46.8,2.2-82.3c0.5-35.5,14.4-87.7,17.1-121.6c4.5-57.2-8.1-69.6-14.5-93.3c-6.5-23.7-7.8-50.4-2.4-75.2
		c1.4-6.2,3.7-11.8,6.4-16.8c0.3,0.8,0.7,1.8,1,3c1.6,5.4,15,55.9,19.6,65.3c4.5,9.4,12.2,24.6,20.2,36.6
		c8.3,12.7,16.5,23.5,19.6,28.9c3.1,5.4-0.3,6.4,1.7,13.9c2,7.5,7.7,7.5,9.9,11.4c3.5,6.1,5.6,6.4,5.4,4.1
		c-0.2-2.3-3.9-11.2-3.9-11.2l6.9,3.3c0.3,0.2,0.5,0.3,0.8,0.6l-7.7-3.9c0,0,3.6,5.1,4.5,7.8s-1.5,6.9-0.2,8
		c2.1,1.8,3.1-6.6,3.1-6.6s-0.8,8.2,1.1,8.2c2,0,1.9-6.6,1.6-8.9c1.1,3.9,1.5,8.6,3.2,9.2C387.4,206.8,385.9,199.6,385.2,193.8z
		 M138.4,193.5c0.1-0.2,0.2-0.4,0.3-0.5C138.7,193.1,138.5,193.3,138.4,193.5z M138.3,193.7c0-0.1,0.1-0.1,0.1-0.2
		C138.4,193.6,138.3,193.7,138.3,193.7z M138.8,193c0-0.1,0.1-0.1,0.1-0.2C138.8,192.8,138.8,192.9,138.8,193z M267.8,487.3
		c-0.9,12.5-7,27.1-7.9,37.6c-0.9-10.5-7-25.1-7.9-37.6c-1.6-22.1,3.2-65.1,1.6-85c-1.6-19.9-4.9-42-3.3-52.7
		c1.6-10.8,1.1-49,0.6-73.7c-0.5-24.8-1.2-69.4,9-69.4s9.5,44.7,9,69.4c-0.5,24.8-1,63,0.6,73.7c1.6,10.8-1.7,32.8-3.3,52.7
		C264.6,422.2,269.4,465.2,267.8,487.3z M379.8,192.8c0.2,0.2,0.3,0.5,0.5,0.7C380.1,193.2,379.9,193,379.8,192.8z M380.3,193.6
		c0,0.1,0.1,0.1,0.1,0.2C380.3,193.7,380.3,193.6,380.3,193.6z"/>
	<path class="st2" d="M329.5-92c0.6-6.4,0.6-10.8,0.6-10.8s10.8-99.7-68.5-99.7s-68.5,99.7-68.5,99.7s0,4.4,0.6,10.8
		c-2-0.2-6.1,0.1-5.2,5.5c1,6.1,7.5,13.7,9.1,15.6c2.9,9.9,7.6,19.4,15.4,24c19.9,11.6,41.2,20.1,48.6,20.8
		c7.3-0.7,28.7-9.2,48.6-20.8c7.8-4.5,12.6-14.1,15.5-24.1c1.8-2,8-9.4,9-15.4C335.5-91.7,331.6-92.1,329.5-92z"/>
	<path class="st3" d="M265.2,211.1c0,0,9.7-8.2,21.4-11.2c10.8-2.8,23-3.6,23-3.6s0.1-10.1-2.9-26.4c-2.6-14-5.5-19.4-5.5-19.4
		s-21.7,7.5-41.4,7.5s-41.4-7.5-41.4-7.5s-2.9,5.4-5.5,19.4c-3.1,16.3-2.9,26.4-2.9,26.4s12.2,0.8,23,3.6
		c11.7,3.1,21.4,11.2,21.4,11.2s1.1-4.8,5.4-4.8C264.2,206.3,265.2,211.1,265.2,211.1z"/>
	<path class="st4" d="M256.3,127.5c0,0,0.4,3.4,3.3,2.4"/>
</g>
<g id="Calque_5">
	<path class="st5" d="M248.1-52.3c0,0,8.9,2.2,15.6,2.2s16.2-2.8,16.2-2.8s-7.2,9.6-16.3,9.6C254.4-43.3,248.1-52.3,248.1-52.3z"/>
	<path class="st6" d="M258.5-50.1c0,0-2.8,3.2,1.2,4c4.1,0.8,6.1,0.5,8.4-0.4s2.2-3.3,0.6-3.5S258.5-50.1,258.5-50.1z"/>
	<g>
		<path class="st7" d="M285.6-79.6c0,0-2.2,0.4-2.8-0.8c-0.6-1.1,7.7-19,20.2-20.2c14.9-1.4,18.2,14.9,18.2,14.9s-5.8,5.5-16.6,6.4
			C293.6-78.3,285.6-79.6,285.6-79.6z"/>
		
			<ellipse transform="matrix(0.9927 -0.1204 0.1204 0.9927 13.0218 35.8198)" class="st8" cx="302.9" cy="-89.8" rx="10.9" ry="11.1"/>
		<circle cx="302.7" cy="-91.8" r="8.1"/>
		<circle class="st7" cx="305.6" cy="-89" r="1.9"/>
		<path d="M324.1-87c-1.7,0.1-2.1-1-2.1-1s0.9,0.2,2.1-0.3c1.2-0.5,1.9-1.9,1.9-1.9s-1.5,0.4-2.6,0.3c-1.9-0.2-2.1-1.1-2.1-1.1
			s0.9-0.4,1.9-1c1-0.6,1.6-2.2,1.6-2.2s-2,1.3-3.1,1.3c-1.6,0-2.1-0.9-2.1-0.9s1-0.3,2.2-1.1c1-0.7,2-3.3,2-3.3s-1.5,1.9-3.9,2.4
			c-1.6,0.4-2.4-1-2.4-1s0.8-0.1,2.3-1.2c1.2-0.9,1.7-4.5,1.7-4.5s-4.6,5.2-7.3,3.4c-0.1-0.1-0.3-0.2-0.5-0.3
			c0.3-0.7,0.7-1.8,0.9-2.9c0.3-1.5-0.6-3.6-0.6-3.6s0.1,1.9-0.4,3.1c-0.3,1-1.4,1.9-1.9,2.3c-0.5-0.2-1-0.3-1.6-0.5
			c0.2-0.6,0.4-1.5,0.4-1.9c0-1.4-0.9-3.2-0.9-3.2s0.1,1.9,0.1,2.7c-0.1,1-0.5,1.7-0.8,2.1c-0.8-0.1-1.7-0.2-2.7-0.2
			c-0.3-0.4-0.7-1.3-1-2.5c-0.3-1.3,0.1-3.9,0.1-3.9s-1.2,1.8-1.3,3.2c0,1.6,0.4,2.7,0.6,3.3c-0.1,0-0.2,0-0.2,0
			c-0.4,0-0.9,0-1.3,0.1c-0.6-0.6-1.4-1.5-1.9-2.2c-0.9-1.2-1.5-3.7-1.5-3.7s-0.1,2.7,0.4,3.8c0.4,1,0.9,1.8,1.3,2.4
			c-0.7,0.2-1.4,0.4-2.1,0.7c-0.4-0.3-1-0.7-1.5-1.1c-0.8-0.7-1.7-2.5-1.7-2.5s0,1.1,0.4,2.2c0.3,0.7,0.8,1.5,1.2,2
			c-0.8,0.4-1.6,0.9-2.4,1.4c-0.4-0.2-0.9-0.3-1.2-0.6c-0.9-0.6-2.7-2.6-2.7-2.6s0.5,1.7,1,2.4c0.5,0.9,1.2,1.3,1.8,1.6
			c-0.4,0.3-0.7,0.6-1,0.9c-1.6-0.4-3.5-2.1-3.5-2.1s-0.1-0.2,0.5,1c0.4,0.8,1.3,1.7,1.8,2.1c-5,4.8-7.8,10.7-7.8,10.7
			s10.4-15.9,23.3-14.3C318-98.2,321-85.8,321-85.8s-7.2,5.2-16.1,6.2c-6.1,0.7-15.7,0.6-15.7,0.6s7.4,1.4,15.4,0.7
			c3.1-0.3,5.7-0.9,8-1.7c0.2,0.2,0.4,0.3,0.6,0.5c0.6,0.5,1.6,2.1,1.6,2.1s-0.1-1.2-0.3-1.7c-0.2-0.6-0.6-1-0.9-1.3
			c1.1-0.4,2.2-0.9,3.1-1.4c0.4,0.2,0.9,0.4,1.3,0.6c0.9,0.6,2.6,2.7,2.6,2.7s-0.4-1.7-0.9-2.5c-0.5-0.8-1.1-1.4-1.6-1.6
			c2.5-1.5,3.8-2.8,3.8-2.8s1.3,0.1,2.4-0.3c1.1-0.5,1.4-1.1,1.4-1.1S325.8-87.2,324.1-87z"/>
	</g>
	<g>
		<path class="st7" d="M239-79.6c0,0,2.2,0.4,2.8-0.8c0.6-1.1-7.7-19-20.2-20.2c-14.9-1.4-18.2,14.9-18.2,14.9s5.8,5.5,16.6,6.4
			C230.9-78.3,239-79.6,239-79.6z"/>
		
			<ellipse transform="matrix(0.1204 -0.9927 0.9927 0.1204 284.3156 141.2023)" class="st8" cx="221.8" cy="-89.8" rx="11.1" ry="10.9"/>
		<circle cx="222.1" cy="-91.8" r="8.1"/>
		<circle class="st7" cx="225.7" cy="-89" r="1.9"/>
		<path d="M200.4-87c1.7,0.1,2.1-1,2.1-1s-0.9,0.2-2.1-0.3c-1.2-0.5-1.9-1.9-1.9-1.9s1.5,0.4,2.6,0.3c1.9-0.2,2.1-1.1,2.1-1.1
			s-0.9-0.4-1.9-1c-1-0.6-1.6-2.2-1.6-2.2s2,1.3,3.1,1.3c1.6,0,2.1-0.9,2.1-0.9s-1-0.3-2.2-1.1c-1-0.7-2-3.3-2-3.3s1.5,1.9,3.9,2.4
			c1.6,0.4,2.4-1,2.4-1s-0.8-0.1-2.3-1.2c-1.2-0.9-1.7-4.5-1.7-4.5s4.6,5.2,7.3,3.4c0.1-0.1,0.3-0.2,0.5-0.3
			c-0.3-0.7-0.7-1.8-0.9-2.9c-0.3-1.5,0.6-3.6,0.6-3.6s-0.1,1.9,0.4,3.1c0.3,1,1.4,1.9,1.9,2.3c0.5-0.2,1-0.3,1.6-0.5
			c-0.2-0.6-0.4-1.5-0.4-1.9c0-1.4,0.9-3.2,0.9-3.2s-0.1,1.9-0.1,2.7c0.1,1,0.5,1.7,0.8,2.1c0.8-0.1,1.7-0.2,2.7-0.2
			c0.3-0.4,0.7-1.3,1-2.5c0.3-1.3-0.1-3.9-0.1-3.9s1.2,1.8,1.3,3.2c0,1.6-0.4,2.7-0.6,3.3c0.1,0,0.2,0,0.2,0c0.4,0,0.9,0,1.3,0.1
			c0.6-0.6,1.4-1.5,1.9-2.2c0.9-1.2,1.5-3.7,1.5-3.7s0.1,2.7-0.4,3.8c-0.4,1-0.9,1.8-1.3,2.4c0.7,0.2,1.4,0.4,2.1,0.7
			c0.4-0.3,1-0.7,1.5-1.1c0.8-0.7,1.7-2.5,1.7-2.5s0,1.1-0.4,2.2c-0.3,0.7-0.8,1.5-1.2,2c0.8,0.4,1.6,0.9,2.4,1.4
			c0.4-0.2,0.9-0.3,1.2-0.6c0.9-0.6,2.7-2.6,2.7-2.6s-0.5,1.7-1,2.4c-0.5,0.9-1.2,1.3-1.8,1.6c0.4,0.3,0.7,0.6,1,0.9
			c1.6-0.4,3.5-2.1,3.5-2.1s0.1-0.2-0.5,1c-0.4,0.8-1.3,1.7-1.8,2.1c5,4.8,7.8,10.7,7.8,10.7s-10.4-15.9-23.3-14.3
			c-10.2,1.2-13.2,13.6-13.2,13.6s7.2,5.2,16.1,6.2c6.1,0.7,15.7,0.6,15.7,0.6s-7.4,1.4-15.4,0.7c-3.1-0.3-5.7-0.9-8-1.7
			c-0.2,0.2-0.4,0.3-0.6,0.5c-0.6,0.5-1.6,2.1-1.6,2.1s0.1-1.2,0.3-1.7c0.2-0.6,0.6-1,0.9-1.3c-1.1-0.4-2.2-0.9-3.1-1.4
			c-0.4,0.2-0.9,0.4-1.3,0.6c-0.9,0.6-2.6,2.7-2.6,2.7s0.4-1.7,0.9-2.5c0.5-0.8,1.1-1.4,1.6-1.6c-2.5-1.5-3.8-2.8-3.8-2.8
			s-1.3,0.1-2.4-0.3c-1.1-0.5-1.4-1.1-1.4-1.1S198.7-87.2,200.4-87z"/>
	</g>
	<path class="st9" d="M295.9-119.2c0,0,8-0.1,15.2,3.3c7.2,3.4,16.5,11.9,16.5,11.9s-5-10.6-16.8-15.3S293.6-121.7,295.9-119.2z"/>
	<path class="st9" d="M226.8-119.2c0,0-8-0.1-15.2,3.3c-7.2,3.4-16.5,11.9-16.5,11.9s5-10.6,16.8-15.3
		C223.7-124,229.1-121.7,226.8-119.2z"/>
	<path d="M255.4-65.1c0,0,2.2-1.9,3.5-1.5c1.3,0.3,2.4,2.4,0.8,2.3S257.9-66.2,255.4-65.1z"/>
	<path d="M270.9-65.1c0,0-2.2-1.9-3.5-1.5c-1.3,0.3-2.4,2.4-0.8,2.3S268.5-66.2,270.9-65.1z"/>
	<path class="st10" d="M243.6-52c0,0,7,1.8,14.6,1.5c2-0.1,2.6,1.4,5.8,1.4c2.9,0.1,4.4-1.4,5.9-1.4c9.4-0.2,15.4-2.5,15.4-2.5
		s-7.3,0.9-9.8-0.3c-2.5-1.2-5.3-3.2-7.5-3.3c-2.2-0.1-3.7,2.8-3.7,2.8s-2-2.8-4.4-2.8S253.7-52.2,243.6-52z"/>
	
		<radialGradient id="SVGID_1_" cx="215.94" cy="-63.9419" r="11.073" gradientTransform="matrix(1.1942 0.3259 -0.2632 0.9647 -56.136 -72.8076)" gradientUnits="userSpaceOnUse">
		<stop  offset="0" style="stop-color:#F9A7B1"/>
		<stop  offset="0.2423" style="stop-color:#F9ACB4"/>
		<stop  offset="0.5133" style="stop-color:#FBB9BD"/>
		<stop  offset="0.7972" style="stop-color:#FDCFCB"/>
		<stop  offset="1" style="stop-color:#FFE4D9"/>
	</radialGradient>
	<path class="st11" d="M231.8-60.5c-1.6,5.9-8.8,9.1-16.1,7.1c-7.3-2-11.9-8.4-10.3-14.3c1.6-5.9,8.8-9.1,16.1-7.1
		S233.4-66.4,231.8-60.5z"/>
	
		<radialGradient id="SVGID_2_" cx="217.4987" cy="-64.4684" r="11.073" gradientTransform="matrix(-1.1942 0.3259 0.2632 0.9647 582.9871 -72.8076)" gradientUnits="userSpaceOnUse">
		<stop  offset="0" style="stop-color:#F9A7B1"/>
		<stop  offset="0.2423" style="stop-color:#F9ACB4"/>
		<stop  offset="0.5133" style="stop-color:#FBB9BD"/>
		<stop  offset="0.7972" style="stop-color:#FDCFCB"/>
		<stop  offset="1" style="stop-color:#FFE4D9"/>
	</radialGradient>
	<path class="st12" d="M293.1-60.5c1.6,5.9,8.8,9.1,16.1,7.1c7.3-2,11.9-8.4,10.3-14.3c-1.6-5.9-8.8-9.1-16.1-7.1
		S291.4-66.4,293.1-60.5z"/>
</g>
<g id="Calque_7">
	<path d="M336.8-114.9c4.6-3.9,9.7-3.4,10.2-19.2s-10.2-15.8-12.3-22.5s5.3-5.6,0.7-19.4s-14.8-2.4-16.3-13.6
		c-1.5-11.2-7.7-19.6-18.4-20.1c-8.2-0.4-13.1,4.1-14.9,6.2c-0.8-7.2-5.2-13.8-14.2-14.4c-15.6-1-9.5,8.6-18.9,11
		c-7.9,2-7.1-10.2-20.7-6.4c-13.5,3.8-3.6,12.8-11,16.3c-6,2.9-10.7-6.9-20.4-0.5c-9.7,6.4,2.3,17.4-1.5,19.7
		c-3.8,2.3-10.7-2.8-18.9,7.1c-8.2,10,4.6,15.8,1.8,23c-2.8,7.1-4.6,4.1-11.7,12.3c-7.1,8.2,4.9,19.7,10,24.3
		c5.1,4.6,9.2,10.2,3.6,12.5c-5.6,2.3-11.5-1.5-11.5-1.5s3.6,5.1,9.4,8.2c5.9,3.1,15.1-2.3,20.7-11.5c5.6-9.2-4.9-21.7-4.9-21.7
		s0,0,6.9,6.9c6.9,6.9,14.8,2.6,14.8,2.6s-8.7-3.6-10.2-13.8s12.8-10,12.8-10s-1.3,6.6,3.8,11.5s11.7,2.6,11.7,2.6
		s-14.6-6.9-0.3-17.1c14.3-10.2,26-4.1,39.3-15.1c5.7-4.7,8.3-13,9.3-20.9c0,0.7,0,1.2,0,1.6c0,4.3-1.9,15.4,1.9,24.4
		c3.8,8.9,18.6,11.2,20.2,17.4c1.5,6.1-4.6,8.7-4.6,8.7s8.7-1.8,11.7-5.9c3.1-4.1-2.3-11.7-2.3-11.7s6.9,4.3,10.2,9.4
		s0.3,9.2-0.3,19.9c-0.5,10.7,2.2,23.1,10.9,22.1c8.7-1,12.9-9.5,12.9-9.5s-1.2,0.1-10.4,0.9C331.7-100.9,330.2-109.2,336.8-114.9z"
		/>
</g>
<g id="Calque_6" class="st0">
	<path class="st13" d="M204.7,19.8c3.4-10.2,5.4-14.6,10.6-15s22.5-0.7,31.7-5.8c9.2-5.1,5.8-26.8,5.8-26.8s-27.3-12-35.4-16.5
		c-10.9-6.1-17.1-15.4-19.8-25.6s0.7-11.7,1.7-17.5c1-5.8-2.7-8.2,2-10.6c4.8-2.4,7.1-11.2,7.1-17c0-5.8,5.5-10.4,14-11.8
		s3.2-13.7,4.2-17.1c1-3.4,8.7,2,13.8-0.4s1.2-13.6,1.9-16c0.7-2.4,10.3-1.3,13-3.7s-0.1-9.9,4-14.3c4.1-4.4,21.3,14.9,21.3,14.9
		s6.8-8.3,12.4-10.6c5.6-2.2,9,2,8.2,9.5s1.9,5.6,5.3,8.5c3.4,2.9,1.5,5.3,2.7,8.2c1.2,2.9,6,0.9,8.3,5.1c2.4,4.3-6.8,3.7-5.1,10.2
		c1.7,6.5,8.3,2.7,13.3,7.3c4.9,4.6-2.4,7.3-3.7,13.1c-1.4,5.8,4.9,3.4,7.7,7.1c2.7,3.7-2.9,7-1,11.1c1.9,4.1,2.7,1,4.6,6.8
		c1.9,5.8-8.9,15.3-8.9,15.3s-2.8,9.6-4.3,13.7c-0.5,1.6-1.5,3.3-3.2,5.1c-3.2,3.4-9,7.5-20.2,13.1c-11.4,5.8-30.7,12.9-30.7,12.9
		S266-26,266.3-18s1.8,11.5,7.4,15.7c5.6,4.3,24.4,2.8,33.6,6.9c7.8,3.4,9.9,27.4,9.9,27.4c-0.7-6.5,6.3-4.8,13.8-10.2
		s-10.9-16.3-6.5-10.2s15.7,2.7,15.7,2.7s-8.5-2.4-8.2-9.5s7.8,2.4,10.6,6.1c2.7,3.7,9.2,6.8,9.2,6.8s-1.7-5.4-3.4-10.2
		c-1.7-4.8,4.4-5.1,8.5-2.7s12.9,0.3,14.6-5.1c1.7-5.4-5.1-10.9-5.1-10.9s6.8-1.4,10.9,1.4c4.1,2.7-1,6.5-1,6.5s5.1-4.8,10.9-8.2
		c5.8-3.4-5.1-5.1-5.1-5.1s7.1,0,13.8-3.6c6.6-3.6,5.1-10.7,5.1-10.7s12-5.1,14.6-10.5s-4.6-3.8-7.1-5.6s5.6-5.6,7.9-10.5
		c2.3-4.9-3.3-9.4-4.1-15.3c-0.8-5.9,5.2-7.7-1.7-13.8c-6.9-6.1,6.6-2.6,6.6-2.6s1.8,3.8,7.7,3.8s5.1-3.1,10.2-5.1
		c5.1-2,4.3,7.1,4.3,7.1s1.5-3.8,0.3-9.2c-1.3-5.4-11-3.8-17.1-2.6c-6.1,1.3-1.3-2.6-2.6-8.2c-1.3-5.6-4.1,0.8-7.7-0.5
		c-3.6-1.3,0.5-5.4,1.5-10.5s-2.3-3.8-7.4-7.1c-5.1-3.3,1.8-6.9,2.3-12.5c0.5-5.6-0.5-1.5-5.1-4.1c-4.6-2.6-1-4.3,1-12
		c2-7.7-5.6-4.6-11-4.1c-5.4,0.5-8.9-7.9-8.9-7.9s-1-5.1-1-10.7s-7.7-4.6-7.7-4.6s0.5-1.8-0.5-6.1c-1-4.3-4.1-5.6-4.1-5.6
		s-1.3-4.1-6.6-7.1s-8.2,1.3-8.2,1.3s-1.5-6.4-6.1-7.9c-4.6-1.5-6.6,5.1-6.6,5.1s-1.5-5.4-4.3-6.4c-2.8-1-3.3,3.3-7.4,4.6
		s-0.8-3.8-5.9-10.7s-14.3,3.1-14.3,3.1s1.3-4.3-0.3-10.2c-1.5-5.9-4.1-2-8.4-3.6s-2-2.8-3.8-7.1s-10.2-1.5-10.2-1.5
		s-3.3-6.9-8.9-6.4c-5.6,0.5-2.6,6.4-8.4,7.9c-5.9,1.5-2.8,3.1-2.8,3.1s-2.8-0.5-5.4-1.3c-2.6-0.8-4.6-0.8-4.6-0.8s-4.9-5.6-14-6.4
		c-9.2-0.8-15.8,4.9-15.8,4.9s-2.3-6.9-12.5-3.6c-10.2,3.3-4.3,15.3-4.3,15.3s-2.6,0-5.1,0s-3.1,2.3-3.1,2.3s-8.9-5.4-16.6-2.8
		s-1.5,12.3-5.4,15.6c-3.8,3.3-6.1-2.6-13-5.9s-6.4,7.7-10.5,10.5c-4.1,2.8-4.9-1-9.7-5.1c-4.9-4.1-3.6,2.8-8.9,4.9
		c-5.4,2-4.1-6.6-4.1-6.6s-3.3,6.4-2.8,10.5c0.5,4.1,8.7,0.8,11-1c2.3-1.8,20.2,1.8,12.8,7.7c-7.4,5.9-2.8,9.7-2.8,9.7
		s-7.9,2.6-15.8,5.6c-7.9,3.1-1.3,8.4-1.3,8.4s0,0-5.6,2c-5.6,2-0.3,8.9-2.6,15.8c-2.3,6.9-7.7-0.5-18.1,3.8s0,12.8,0,12.8
		s-6.4,0.5-11,4.9c-4.6,4.3,3.1,9.4,5.1,13.8c2,4.3-4.3,5.6-12.3,11s3.3,11.5,3.3,11.5s-0.5,6.9,3.8,10.2c4.3,3.3,7.9-6.4,7.9-6.4
		s2.8,2.8-0.5,10.5c-3.3,7.7-10.2,3.3-7.4,13c2.8,9.7,14.3,0.8,13,8.7s-4.1,4.6-1.3,11s7.4,0.8,7.4,0.8s-4.9,5.6-8.4,10
		c-3.6,4.3,6.4,3.8,7.1,9.7s8.4,5.9,8.4,5.9s-3.6-0.8-5.4-5.4c-1.8-4.6,4.9-1.8,7.7-2.8c2.8-1,4.6-0.8,8.4,1c3.8,1.8,4.1,5.1,2,7.4
		s-10.5-3.3-10.5-3.3s4.6,3.6,7.9,6.4s8.2,0.5,8.2,0.5s1.8,3.3,11,6.9c9.2,3.6,2.8,2.8,2,10.5c-0.8,7.7,4.3,5.6,8.9,6.9
		c4.6,1.3,10.7,5.4,10.7,5.4s-2.3-5.1-3.3-7.9c-1-2.8,7.1-5.4,7.1-5.4s-4.1,4.6-3.6,8.4s8.7,0.8,7.4,4.6s2,5.9,8.4,8.4
		s6.1,8.7,6.1,8.7L204.7,19.8z"/>
	<path class="st14" d="M282.1-169.1v0.9c0,0,6.8-16.3,16-13.4c9.2,2.9,10.4,18.4,16.7,18.6c6.3,0.2,9-15.1,16.7-9.5
		s-2.9,10.7,4.4,13.8c7.3,3.1,11.7,1.7,11.7,1.7s-5.6-7.7,3.1-6.8c8.7,0.9-3.1,12.9,9.2,14.5c12.3,1.5,10.7,8.5,10.7,10.7
		s7.5-10,11.7-1c4.3,9,4.3,9,4.3,9s8.5-3.9,11.1,3.4c2.6,7.3-1.4,12.1-1.4,12.1l7.8,4.6c0,0,8,4.3,6.8,10.4c-1.2,6.1-8,8-8,8
		s5.6,0.5,4.1,4.8s-6.3,6-6.3,6s3.9,7.7,0.5,14c-3.4,6.3-8.3,9.9-3.6,12.3c4.8,2.4,11.7,9.4,5.4,12.1c-6.3,2.7-8.9,2.9-6.5,8.2
		c2.4,5.3,3.6,8.2,3.6,8.2"/>
	<path class="st14" d="M302.4-172.7c0,0,3.1,7.1,8.7,10.9c5.6,3.7,11.1,1,12.3,7.1s10,12.6,7,17.9c-3.1,5.3-8,6.5-3.2,9.7
		c4.8,3.2,9,1,9.2,4.3c0.2,3.2-4.9,4.1-1.5,6.5c3.4,2.4,14,0.9,11.9,8.7s-13.8,10.2-9,17.5c4.8,7.3,18,7.8,13.3,15
		c-4.8,7.1-16,10.7-8.3,17.9c7.7,7.1,16.2-7,16.2,1s-8.2,8.7-5.6,16s12.1,6.5,9,13.3c-3.1,6.8-6.3,12.3-11.6,7.8
		c-5.3-4.4-3.2-9.7,0.7-9.7c3.9,0,3.9,0,3.9,0"/>
	<path class="st14" d="M320.4-166.3c0,0,6.8-3.9,7,3.1c0.2,7-2,9.5,3.7,13.8c5.8,4.3,10.9,3.9,10,8.9s-3.1,7.1-3.1,7.1
		s9.2-4.4,10.4,3.4s-5.4,9.4,0.3,13.8c5.8,4.4,11.2,4.6,11.2,4.6s-8.3,3.6-2.6,9s13.1,3.7,12.3,12.6c-0.9,8.9-4.1,6.1-2.7,9.7
		c1.4,3.6,11.6,0,10.6,7.3c-1,7.3-10.4,10.7-9.5,15s11.1-7.5,8,2.4S362.5-43.5,364-35.9s12.3,4.8,8.3,11.9s-14.6,17.4-15,21.8
		c-0.3,4.4-3.2,5.4-3.2,5.4"/>
	<path class="st14" d="M342.9-156.4c0,0-3.2,4.9,1.7,8.5c4.9,3.6,12.6,2.2,10.6,8c-2,5.8-9.5,10.9-3.7,16.7
		c5.8,5.8,15.3,8.9,16.9,3.4c1.5-5.4-2.2-10.2-5.4-7.8c-3.2,2.4-3.6,11.9,3.1,14.3s11.2-4.3,10,3.1c-1.2,7.3-6.6,8.2-2.7,10.7
		s11.2,1.2,9,6.3s-8.2,5.1-7.5,2.4s8.3-3.1,7.7,3.2s-6.5,9.9,1.4,14.1c7.8,4.3,12.4,5.6,10,9.7c-2.4,4.1-7.8,5.6-7.8,5.6
		s11.6,1.2,7.3,8c-4.3,6.8-9.5,1.7-5.6,8.9s14.3,8.7,8.7,14c-5.6,5.3-12.3,5.8-13.4,10.6"/>
	<path class="st14" d="M370.4-138.2c0,0-4.2,4.9,1.1,8.4c5.4,3.6,13.7-2,13.8,5.6s-11.2,12.8-5.1,19.8s13.8,1.4,14.4,8.8
		c0.6,7.4-6.6,11-0.9,13.8c5.7,2.8,7,0.1,7,0.1"/>
	<path class="st14" d="M322.8-66.2c0,0,15.4,1.7,16.3,7.3s-7.1,8.8-4.6,14.9s14.6-0.9,13.7,6s-12,8.2-11.1,15.4s10.9,5,11.9,10.5
		c1,5.5-7.7,2.6-7.5,9.6s8.2,13,8.2,13"/>
	<path class="st14" d="M319.2-56.1c0,0,14.3,2.2,11.7,9.8s-10,4.6-6.9,12.8c3.1,8.2,13,11,13,11s-7.1,3.7-3.1,6.6s12.8,1.7,6.9,6
		s-13.1,9.1-8.7,16.3"/>
	<path class="st14" d="M318.1-52.8c-1.4,4.3-5.9,7.9-4.5,14.8c1.4,6.9,9.8,5.4,7.8,12c-2,6.6-5.6,3.3-5.4,8.3s8.6,0.4,6.3,7.1
		c-2.3,6.8-6.6,3.8-6.6,10.9s4.3,1,3.7,7.5s-2.9,4.6-0.9,8s12.8-0.4,7.7,8.3"/>
	<path class="st14" d="M282.1-168.3c0,0,3.6-18.7,10.2-18.7c6.6,0,0.3,2.6,7.7,0.9s9-11.2,12.1-1.7c3.1,9.5,1.5,17.2,7.1,14.5
		c5.6-2.7,6.3-13.3,11.1-7.8s6,13.1,11.1,10.7s4.3-10.9,11.1-2.4s8,9.7,11.1,10.2c3.1,0.5,7.7-5.3,9.4,1.5c1.7,6.8-0.3,9.2-0.3,9.2
		s1.4-20.1,6.6-14.1c5.3,6-4.1,18.6,1.2,20.3c5.3,1.7,11.6-8.3,13.3-3.7c1.7,4.6-6.6,3.9-3.7,7.7c2.9,3.7,6.8-2.9,8,3.4
		s-0.7,11.7,1.9,12.1s4.9-0.5,4.9-0.5"/>
	<path class="st14" d="M294.7-187.4c0,0,2-7.1,10.7-7.7s12.6,4.1,12.6,4.1s1.5-7.3,6-3.4s3.7,7,3.7,7s1.7-5.8,5.6-1.7
		c3.9,4.1,3.9,7.5,3.9,7.5s3.7-10.2,9.5-6.3c5.8,3.9,2,10.6,5.3,10.9c3.2,0.3,1.7-5.6,9.4-3.6s1.2,8.3,6.3,8.3s7.8-2.9,9.7,0.2
		c1.9,3.1,1.7,6,1.7,6"/>
	<path class="st14" d="M371.4-189c-5-4.5-9.1,7.1-9.1,7.1s-0.5-3.9-7.8-10.7c-7.3-6.8-9.4,2.7-9.4,2.7s-3.2-2.2-5.4-5.6
		c-2.2-3.4-8.3,1.2-8.3,1.2s-1.7-1.7-8.3-7.8s-18.2,6.3-18.2,6.3s3.1-2.4,4.3-9.4c1.2-7-5.4-12.1-9.5-11.7c-4.1,0.3-6.5,2-7-1.9
		c-0.5-3.9,3.7-7.1-3.2-6.1c-7,1-6.8,0.2-10.7-1.4s-3.9-4.9-3.9-4.9s-12.8,0.9-13.6-4.8c-0.9-5.6,3.2-10.2,5.8-7.8
		c2.6,2.4-2,5.8-2,5.8"/>
	<path class="st14" d="M302.2-195.5c0,0,4.6-8.5-1.4-12.6c-6-4.1-9.5,2.9-13.4-1.7s-2.9-8-9.4-10.9c-6.5-2.9-8.3-4.3-8.3-4.3"/>
	<path class="st14" d="M295.4-189.9c0,0,8-3.9,1.2-6.8c-6.8-2.9-9.9,9.2-12.6,2.6c-2.7-6.6,4.4-8.7-1.2-14.1
		c-5.6-5.4-11.6-6.3-11.6-6.3s2-6.5-4.1-7.8c-6.1-1.4-10.2,4.4-12.3,2.2c-2-2.2,1.5-4.6-1.2-5.4c-2.7-0.9-3.4,1.2-3.4,1.2
		s-3.1-10.2-8-7s-2.7,14-6.3,15.1c-3.6,1.2-6-10.9-12.6-6c-6.6,4.9-5.8,7.1-5.8,7.1s-3.4-4.4-4.8-0.9c-1.4,3.6-1.9,6-6.5,6
		c-4.6,0-12.1-7.7-15.7-2.6c-3.6,5.1,1.7,14-3.6,16.5s-12.6-0.7-16,3.1c-3.4,3.7-2,6.8-2,6.8s-7.3-2.9-11.6,1
		c-4.3,3.9-3.4,7.9-3.4,7.9"/>
	<path class="st14" d="M283.7-174.9c0,0,2.7-14.3-4.3-18.2c-7-3.9-5.1,1.7-9.4-1.4c-4.3-3.1,8.5-6.6,2.4-10.6s-10.4-7.5-15-3.1
		c-4.6,4.4-3.6,9.5-9.2,10.7c-5.6,1.2-5.4-9.2-14-1c-8.5,8.2-9.2,13.1-12.3,15.1s-6.6,4.3-6.6,4.3s-8.9-1-9.5,4.8
		c-0.7,5.8,3.9,9.5,3.9,9.5s-17.5-3.2-18.7,9.4c-1.2,12.6,7.7,15.1,2.6,20.4c-5.1,5.3-22.8,8.9-26.6,14.6
		c-3.7,5.8,10.7,16.9,10.7,16.9S161.1-96,161-90.5s7.8,7,3.4,13.6c-4.4,6.6-10.9,8.7-7,14.1c3.9,5.4,12.6,12.6,6,16
		c-6.6,3.4-14.5,1.4-13.6,8.5s10.9,11.1,10.9,11.1s-9,1-11.2,6.6s-4.3,10.7-4.3,10.7"/>
	<path class="st14" d="M256.3-207.8c0,0-1.5-14.3-8.7-11.7c-7.1,2.6-4.4,11.4-4.4,11.4s-11.2-3.6-15,1.4c-3.7,4.9-0.3,9.4-5.3,10.6
		c-4.9,1.2-7.5-1.9-7.5-1.9s-11.2-11.9-17.2-9.2s-0.5,11.1-7,15.5c-6.5,4.4-12.3,0.5-15.8,7.1c-3.6,6.6,3.4,13.1-5.3,13.8
		c-8.7,0.7-11.1-5.3-16.5,0c-5.4,5.3-6,6.6-6,6.6l-10.6,1"/>
	<path class="st14" d="M235.2-216.8c0,0-17.5,2.2-20.6,6c-3.1,3.7,8.3,14.5,2.9,19.2s-11.7-4.3-16.9,1.2c-5.1,5.4-1.9,10.7-1.9,10.7
		s-8.7-1.2-11.9,3.2c-3.2,4.4-2,9.9-6.5,11.2c-4.4,1.4-13.3-6-16.2,1.2c-2.9,7.1,1.5,10.7,1.5,10.7s-4.9-4.8-10.9,1.7s-6,15-6,15
		s5.8,5.4-4.9,9.4c-10.7,3.9-24.3-2-26.4,8c-2,10,4.6,27.7-0.7,28.6c-5.3,0.9-7.8-0.7-7.8-0.7s-0.7,12.3-5.4,7.3
		c-4.8-4.9-6.5-6.1-0.5-10c6-3.9,10.6-6.6,8.9-11.9c-1.7-5.3-11.2-7.1-5.3-12.3c6-5.1,10.6-4.6,9.4-9s-8.7-11.4-0.9-12.8
		c7.8-1.4,17.4,4.9,19.7-1.9c2.4-6.8-4.1-14.5,4.6-16.9s11.6-2,11.6-2s-4.9-0.7-3.4-3.4"/>
	<path class="st14" d="M284.4-175.4c0,0-10.4-19.6-17.7-18.2c-7.3,1.4-7.1,7.3-7.1,7.3s-6.5-3.4-9.4,1.2c-2.9,4.6-4.8,6-4.8,6
		s-5.6-13.4-9.2-8.9c-3.6,4.6,1,8.2-3.7,11.2c-4.8,3.1-13.6-7.1-15.8,0.5s5.4,19.4-1.9,22.3c-7.3,2.9-16.5-9.7-18.4-0.2
		c-1.9,9.5,9.2,7.8,8.3,12.8c-0.9,4.9-6.3,7.5-8.2,9.4c-1.9,1.9-2.9,6-2.9,6s-8.9,1.7-8.9,9.2s9.2,7.5,5.8,13.1
		c-3.4,5.6-5.6,3.6-6,10.7s-1.4,9.4-1.4,9.4s-9.9-1.9-10,6.1s2.9,13.8,11.9,8c9-5.8,11.2-10,11.2-10"/>
	<path class="st14" d="M281.3-168c0,0-3.4-19.6-14.8-17.4c-11.4,2.2-9.5,7.5-13.4,11.4c-3.9,3.9-8.9-3.2-11.9,2s0.7,12.3,0.7,12.3
		s-9.5-1-11.9,4.4s-4.3,11.1-4.3,11.1s-8.2,0.5-11.9,7.1c-3.7,6.6-1.5,5.8-7.5,11.2c-6,5.4-10.6,3.9-9.5,10.7
		c1,6.8,7.7,6.1,3.2,11.2s-7.7,7.3-6,13.4c1.7,6.1,0.3,14.3,2.2,23.7c1.9,9.4,7.7,12.8,3.2,17c-4.4,4.3-9.4,5.8-2.2,12.3
		s7,7.8,4.1,11.4s-4.9,9-0.7,11.6c4.3,2.6,11.7,4.6,3.4,10.2c-8.3,5.6-13.1,4.4-10.4,9.9c2.7,5.4,5.1,4.8,2.2,8.3s-12.4-0.7-7.1,5.3
		s8.2,11.4,8.2,11.4"/>
	<path class="st14" d="M198.7-179.7c0,0-0.2,9.2-8.7,15.7c-8.5,6.5-14,6.1-11.9,11.2c2,5.1,4.1,7.8,4.1,7.8s-10.6-4.1-8.9,3.4
		s2,5.4,2,5.4s-18,5.1-15.7,14.6s9.9,18.7,3.7,21.8s-18.7-1-16,8.9s11.6,11.9,11.6,11.9s-19.4,2.7-16,10.9
		c3.4,8.2,9.2,13.3,9.2,13.3s-17,3.4-14,8.2s8.9,7.1,8.9,7.1s-6.5,3.1-3.7,7.5s17,5.4,15.7,14.3c-1.4,8.9-8.2,12.9-8.2,12.9"/>
	<path class="st14" d="M180.9-164c0,0-10.2,2.4-9.5,6.1c0.7,3.7,2.4,7.8,2.4,7.8s-13.6-2-14,7.8c-0.3,9.9,3.1,11.6,3.1,11.6
		s-14,7.1-12.3,14.6c1.7,7.5,1.7,7.5,1.7,7.5s-16.7-4.8-13.6,6.5s10.9,17.4,3.1,22.5s-18.4,4.1-13.6,14.3s6.8,8.5,3.4,15
		s-7.5,8.5-2.4,12.9c5.1,4.4,12.6,11.6,5.1,14"/>
	<path class="st14" d="M139.3-126.3c0,0-4.4,2-2,6.5s2.7,7.1-4.8,10.2c-7.5,3.1-13.6,8.5-10.2,13.3c3.4,4.8,9.5,7.8,9.5,7.8
		s-8.5-4.1-6.8,4.1c1.7,8.2,1.4,17.4-1.7,15.7c-3.1-1.7-8.5-12.6-9.9-7.8c-1.4,4.8,7.8,11.2,5.4,16.3s-8.9,5.1-8.9,5.1"/>
	<path class="st14" d="M175.1-68c0,0-3.4,2.7,0.3,9.5c3.7,6.8,5.8,8.2,5.8,8.2s-5.4,0.7-2,7.1s12.9,4.8,10.2,10.2
		s-20.8,5.1-15.7,14.6s20.4,1.4,17.4,9.5c-3.1,8.2-9.7,14.3-9.7,14.3"/>
	<path class="st14" d="M164.9-48c0,0-7.7,7.9-1.3,13s10.2,0.8,7.7,7.9s-10.7,3.8-7.4,12c3.3,8.2,10.7,6.1,7.9,11.7
		C169,2.3,160-1.6,158.5,3.8"/>
	<path class="st14" d="M211.1-47.5c0,0-2.3,2.3-2,7.9c0.3,5.6,5.4,3.3,4.3,8.4s-12.3,6.6-5.4,11s9.2,4.6,7.9,7.9s-11.5,5.6-7.1,9.2
		s6.5,7.9,6.5,7.9"/>
	<path class="st14" d="M220.8-42.7c0,0-5.4,5.1-2,10c3.3,4.9,8.7,7.1,6.1,9.7s-11.7,3.8-7.4,7.9c4.3,4.1,7.7,6.6,7.7,6.6
		s-8.4,1.8-6.1,5.1s5.9,7.7,5.9,7.7"/>
	<path class="st14" d="M226.9-39.6c0,0-3.6,8.2,1,11.5s4.6,3.8,3.3,6.4s-8.7,5.4-4.9,8.2s8.4,2.3,6.4,6.4s-8.9,6.9-4.1,10.2"/>
	<path class="st14" d="M235.9-34.8c0,0-1.3,9.4,2.8,10c4.1,0.5,8.7,0,7.1,4.3c-1.5,4.3-12,1.5-8.9,5.6s13.5-2.3,10.5,2.6
		s-8.7,3.6-9.2,7.4c-0.5,3.8,2.3,5.9,2.3,5.9"/>
	<path class="st14" d="M272.4-29.4c0,0-5.1,2.8-2,6.1c3.1,3.3,5.4,0.5,5.1,4.9s-6.1,3.8-4.3,7.4s6.1,5.1,4.9,10.2"/>
	<path class="st14" d="M278.5-32c0,0,6.4,2.8,4.9,5.6s-5.9,4.3-4.9,6.4c1,2,6.1-2,5.9,2.8c-0.3,4.9-5.9,3.3-3.8,7.9
		c2,4.6,8.2,11.7,8.2,11.7"/>
	<path class="st14" d="M286.9-34.8c0,0,7.9,5.1,5.9,10s-8.9,2.8-5.4,6.6s11-0.8,9.7,4.6c-1.3,5.4-9.7,0.3-6.4,6.4s8.2,9.4,8.2,9.4"
		/>
	<path class="st14" d="M295.3-39.1c0,0-1.3,4.9,2.6,9.4c3.8,4.6,9.7,2,7.7,6.6s-10.7-3.1-8.2,3.6s7.9,2.6,7.4,8.4s-8.9,9.2-1.8,14"
		/>
	<path class="st14" d="M303.3-43.7c0,0-0.5,5.6,4.3,11.5c4.9,5.9,6.1,3.3,4.1,10.2c-2,6.9-6.6,5.6-2.6,9.7s6.1,3.8,6.1,3.8
		s-10.7-0.8-7.1,5.1s4.1,5.1,1.5,9.7"/>
</g>
<g id="Calque_1" class="st0">
	<path class="st15" d="M408.9,460.6c0,0-10.6,10.2-29.5,12.8c-17.1,1.9-31.3-1.3-41.9-4.5l0,0c-16.6-44.6-46.6-124.3-51.3-142.8
		c0.6,4.5,16.6,125,30.7,169c-3,3.8-7.7,5.1-14.2,4.5c-26-4.5-47.7-26.1-59.6-13.4c-10,10.8-37.7,8.3-44.2,3.8
		c11.2-53.6,21.8-131.3,22.4-135.2c-4.2,16.6-28.3,81.6-45.4,126.9c-20.6,1.9-40.7-8.9-40.1-14c65.5-135.8,76.1-210.4,73.7-255
		c-2.4-38.3,15.9-83.4,18.2-101.3c2.7-65-9.9-50.7-5.6-76.3c4.3-25.5,45.8,3.5,66.4-13.8c6.9-8.7,8.9-21,8.9-21l5.3,1.9
		c-9.4,28.7-0.3,32.8-4.3,52c-3,15.9-6.9,30.9-3.9,60.9c2.4,24.2,19.4,47.8,20.1,84.2c0.6,25.5-9.4,47.2,3,88.6
		C334,343.2,369.4,421,408.9,460.6z"/>
</g>
</svg>
