<?xml version="1.0" encoding="utf-8"?>
<!-- Generator: Adobe Illustrator 26.5.0, SVG Export Plug-In . SVG Version: 6.00 Build 0)  -->
<svg version="1.1" id="Calque_5" xmlns="http://www.w3.org/2000/svg" xmlns:xlink="http://www.w3.org/1999/xlink" x="0px" y="0px"
	 viewBox="0 0 800 800" style="enable-background:new 0 0 800 800;" xml:space="preserve">
<style type="text/css">
	.st0{fill:#FFE4D9;stroke:#1D1D1B;stroke-miterlimit:10;}
	.st1{fill:#FFFFFF;stroke:#000000;stroke-miterlimit:10;}
	.st2{fill:none;stroke:#000000;stroke-miterlimit:10;}
	.st3{fill:#FFFFFF;}
	.st4{fill:#1CB6C6;stroke:#000000;stroke-width:0.9428;stroke-miterlimit:9.9997;}
	.st5{fill:#1D1D1B;}
	.st6{fill:#FF7A84;stroke:#1D1D1B;stroke-width:1.0045;stroke-linecap:round;stroke-linejoin:round;stroke-miterlimit:10;}
	.st7{fill:url(#SVGID_1_);}
	.st8{fill:url(#SVGID_00000154387389808974058530000008067297544099510174_);}
	.st9{opacity:0.53;fill:#FFFFFF;}
	.st10{fill:none;stroke:#1D1D1B;stroke-width:1.0045;stroke-linecap:round;stroke-linejoin:round;stroke-miterlimit:10;}
</style>
<path class="st0" d="M536.7,445.4c-0.7-5.8-11.3-18.2-15.5-22.4c-4.3-4.2-10.9-21-14.6-30.8s-17.7-32.5-21.8-41.4
	c-4.1-8.9-8.3-34.8-10.9-47c-2-9.3-5.4-26.1-8.3-35.4c-1.4-4.7-2.1-8.6-4.2-10.4c-7.7-6.5-17.5-3-32.8-7
	c-11.4-3-11.2-19.1-10.4-27.2c10-3.1,26.2-10.2,41.6-19.1c7.8-4.5,12.6-14.1,15.5-24.1c1.8-2,8-9.4,9-15.4c0.8-5.3-3.2-5.7-5.2-5.6
	c0.6-6.4,0.6-10.8,0.6-10.8s10.8-99.7-68.5-99.7s-68.5,99.7-68.5,99.7s0,4.4,0.6,10.8c-2-0.2-6.1,0.1-5.2,5.5
	c1,6.1,7.5,13.7,9.1,15.6c2.9,9.9,7.6,19.4,15.4,24c15.5,9.1,31.9,16.2,41.9,19.3c0.8,8.1,1,24-10.4,27c-15.4,4.1-25.1,0.5-32.8,7
	c-1.5,1.3-2.1,2.8-2,4.5c-2.4,7.8-9.4,31.1-11.6,41.2c-2.6,12.3-6.8,38.2-10.9,47c-4.1,8.9-18.1,31.6-21.8,41.4
	c-3.7,9.8-10.3,26.5-14.6,30.8c-4.3,4.2-14.8,16.6-15.5,22.4s-2.2,13,0.5,12.1c1.7-0.6,2.1-5.3,3.2-9.2c-0.4,2.3-0.4,8.9,1.6,8.9
	c1.8,0,1.1-8.2,1.1-8.2s1,8.4,3.1,6.6c1.3-1.1-1.1-5.3-0.2-8c0.9-2.7,4.5-7.8,4.5-7.8c0,0-3.7,8.9-3.9,11.2c-0.2,2.3,1.9,2,5.4-4.1
	c2.2-3.9,8-3.8,9.9-11.4c2-7.5-1.4-8.6,1.7-13.9c3.1-5.4,11.3-16.2,19.6-28.9c7.9-12.1,15.6-27.2,20.2-36.6
	c4.5-9.4,17.9-59.9,19.6-65.3c0.5-1.7,1-3.1,1.5-4.1c2.9,5.3,5.5,11.2,7,17.9c5.4,24.8,4.1,51.5-2.4,75.2s-19.1,36.1-14.5,93.3
	c2.7,33.9,16.5,86.1,17.1,121.6c0.5,35.5-5.9,47.9,2.2,82.3c8.1,34.4,10.8,66.7,8.6,74.8s-14,39.8,9.1,38.8c8-0.4,11.1-4,11.7-9.5
	c0.6,5.5,3.7,9.1,11.7,9.5c23.1,1.1,11.3-30.7,9.1-38.8s0.5-40.4,8.6-74.8c8.1-34.4,1.6-46.8,2.2-82.3
	c0.5-35.5,14.4-87.7,17.1-121.6c4.5-57.2-8.1-69.6-14.5-93.3c-6.5-23.7-7.8-50.4-2.4-75.2c1.4-6.2,3.7-11.8,6.4-16.8
	c0.3,0.8,0.7,1.8,1,3c1.6,5.4,15,55.9,19.6,65.3c4.5,9.4,12.2,24.6,20.2,36.6c8.3,12.7,16.5,23.5,19.6,28.9
	c3.1,5.4-0.3,6.4,1.7,13.9s7.7,7.5,9.9,11.4c3.5,6.1,5.6,6.4,5.4,4.1c-0.2-2.3-3.9-11.2-3.9-11.2l6.9,3.3c0.3,0.2,0.5,0.3,0.8,0.6
	l-7.7-3.9c0,0,3.6,5.1,4.5,7.8c0.9,2.7-1.5,6.9-0.2,8c2.1,1.8,3.1-6.6,3.1-6.6s-0.8,8.2,1.1,8.2c2,0,1.9-6.6,1.6-8.9
	c1.1,3.9,1.5,8.6,3.2,9.2C539,458.4,537.4,451.2,536.7,445.4z M289.8,445.3c0-0.1,0.1-0.1,0.1-0.2
	C289.9,445.2,289.9,445.3,289.8,445.3z M289.9,445.1c0.1-0.2,0.2-0.4,0.3-0.5C290.2,444.7,290.1,444.9,289.9,445.1z M291,443.6
	c0.2-0.2,0.5-0.4,0.8-0.6l6.9-3.3v0L291,443.6z M419.3,738.9c-0.9,12.5-7,27.1-7.9,37.6c-0.9-10.5-7-25.1-7.9-37.6
	c-1.6-22.1,3.2-65.1,1.6-85c-1.6-19.9-4.9-42-3.3-52.7c1.6-10.8,1.1-49,0.6-73.7c-0.5-24.8-1.2-69.4,9-69.4s9.5,44.7,9,69.4
	c-0.5,24.8-1,63,0.6,73.7c1.6,10.8-1.7,32.8-3.3,52.7C416.1,673.8,420.9,716.9,419.3,738.9z"/>
<path class="st1" d="M416.8,462.7c0,0,9.7-8.2,21.4-11.2c10.8-2.8,23-3.6,23-3.6s0.1-10.1-2.9-26.4c-2.6-14-5.5-19.4-5.5-19.4
	s-21.7,7.5-41.4,7.5s-41.4-7.5-41.4-7.5s-2.9,5.4-5.5,19.4c-3.1,16.3-2.9,26.4-2.9,26.4s12.2,0.8,23,3.6
	c11.7,3.1,21.4,11.2,21.4,11.2s1.1-4.8,5.4-4.8S416.8,462.7,416.8,462.7z"/>
<path class="st2" d="M407.8,379.1c0,0,0.4,3.4,3.3,2.4"/>
<g>
	<path class="st3" d="M435.1,172c0,0-2.2,0.4-2.8-0.8c-0.6-1.1,7.7-19,20.2-20.2c14.9-1.4,18.2,14.9,18.2,14.9s-5.8,5.5-16.6,6.4
		C443.1,173.3,435.1,172,435.1,172z"/>
	
		<ellipse transform="matrix(0.9927 -0.1204 0.1204 0.9927 -16.1908 55.6463)" class="st4" cx="452.4" cy="161.8" rx="10.9" ry="11.1"/>
	<circle cx="452.2" cy="159.9" r="8.1"/>
	<circle class="st3" cx="455.2" cy="162.6" r="1.9"/>
	<path d="M473.6,164.6c-1.7,0.1-2.1-1-2.1-1s0.9,0.2,2.1-0.3s1.9-1.9,1.9-1.9s-1.5,0.4-2.6,0.3c-1.9-0.2-2.1-1.1-2.1-1.1
		s0.9-0.4,1.9-1s1.6-2.2,1.6-2.2s-2,1.3-3.1,1.3c-1.6,0-2.1-0.9-2.1-0.9s1-0.3,2.2-1.1c1-0.7,2-3.3,2-3.3s-1.5,1.9-3.9,2.4
		c-1.6,0.4-2.4-1-2.4-1s0.8-0.1,2.3-1.2c1.2-0.9,1.7-4.5,1.7-4.5s-4.6,5.2-7.3,3.4c-0.1-0.1-0.3-0.2-0.5-0.3
		c0.3-0.7,0.7-1.8,0.9-2.9c0.3-1.5-0.6-3.6-0.6-3.6s0.1,1.9-0.4,3.1c-0.3,1-1.4,1.9-1.9,2.3c-0.5-0.2-1-0.3-1.6-0.5
		c0.2-0.6,0.4-1.5,0.4-1.9c0-1.4-0.9-3.2-0.9-3.2s0.1,1.9,0.1,2.7c-0.1,1-0.5,1.7-0.8,2.1c-0.8-0.1-1.7-0.2-2.7-0.2
		c-0.3-0.4-0.7-1.3-1-2.5c-0.3-1.3,0.1-3.9,0.1-3.9s-1.2,1.8-1.3,3.2c0,1.6,0.4,2.7,0.6,3.3c-0.1,0-0.2,0-0.2,0
		c-0.4,0-0.9,0-1.3,0.1c-0.6-0.6-1.4-1.5-1.9-2.2c-0.9-1.2-1.5-3.7-1.5-3.7s-0.1,2.7,0.4,3.8c0.4,1,0.9,1.8,1.3,2.4
		c-0.7,0.2-1.4,0.4-2.1,0.7c-0.4-0.3-1-0.7-1.5-1.1c-0.8-0.7-1.7-2.5-1.7-2.5s0,1.1,0.4,2.2c0.3,0.7,0.8,1.5,1.2,2
		c-0.8,0.4-1.6,0.9-2.4,1.4c-0.4-0.2-0.9-0.3-1.2-0.6c-0.9-0.6-2.7-2.6-2.7-2.6s0.5,1.7,1,2.4c0.5,0.9,1.2,1.3,1.8,1.6
		c-0.4,0.3-0.7,0.6-1,0.9c-1.6-0.4-3.5-2.1-3.5-2.1s-0.1-0.2,0.5,1c0.4,0.8,1.3,1.7,1.8,2.1c-5,4.8-7.8,10.7-7.8,10.7
		s10.4-15.9,23.3-14.3c10.2,1.2,13.2,13.6,13.2,13.6s-7.2,5.2-16.1,6.2c-6.1,0.7-15.7,0.6-15.7,0.6s7.4,1.4,15.4,0.7
		c3.1-0.3,5.7-0.9,8-1.7c0.2,0.2,0.4,0.3,0.6,0.5c0.6,0.5,1.6,2.1,1.6,2.1s-0.1-1.2-0.3-1.7c-0.2-0.6-0.6-1-0.9-1.3
		c1.1-0.4,2.2-0.9,3.1-1.4c0.4,0.2,0.9,0.4,1.3,0.6c0.9,0.6,2.6,2.7,2.6,2.7s-0.4-1.7-0.9-2.5s-1.1-1.4-1.6-1.6
		c2.5-1.5,3.8-2.8,3.8-2.8s1.3,0.1,2.4-0.3c1.1-0.5,1.4-1.1,1.4-1.1S475.3,164.5,473.6,164.6z"/>
</g>
<g>
	<path class="st3" d="M388.5,172c0,0,2.2,0.4,2.8-0.8c0.6-1.1-7.7-19-20.2-20.2c-14.9-1.3-18.1,15-18.1,15s5.8,5.5,16.6,6.4
		C380.4,173.3,388.5,172,388.5,172z"/>
	
		<ellipse transform="matrix(0.1204 -0.9927 0.9927 0.1204 166.0938 510.971)" class="st4" cx="371.4" cy="161.8" rx="11.1" ry="10.9"/>
	<circle cx="371.6" cy="159.9" r="8.1"/>
	<circle class="st3" cx="375.2" cy="162.6" r="1.9"/>
	<path d="M349.9,164.6c1.7,0.1,2.1-1,2.1-1s-0.9,0.2-2.1-0.3s-1.9-1.9-1.9-1.9s1.5,0.4,2.6,0.3c1.9-0.2,2.1-1.1,2.1-1.1
		s-0.9-0.4-1.9-1s-1.6-2.2-1.6-2.2s2,1.3,3.1,1.3c1.6,0,2.1-0.9,2.1-0.9s-1-0.3-2.2-1.1c-1-0.7-2-3.3-2-3.3s1.5,1.9,3.9,2.4
		c1.6,0.4,2.4-1,2.4-1s-0.8-0.1-2.3-1.2c-1.2-0.9-1.7-4.5-1.7-4.5s4.6,5.2,7.3,3.4c0.1-0.1,0.3-0.2,0.5-0.3
		c-0.3-0.7-0.7-1.8-0.9-2.9c-0.3-1.5,0.6-3.6,0.6-3.6s-0.1,1.9,0.4,3.1c0.3,1,1.4,1.9,1.9,2.3c0.5-0.2,1-0.3,1.6-0.5
		c-0.2-0.6-0.4-1.5-0.4-1.9c0-1.4,0.9-3.2,0.9-3.2s-0.1,1.9-0.1,2.7c0.1,1,0.5,1.7,0.8,2.1c0.8-0.1,1.7-0.2,2.7-0.2
		c0.3-0.4,0.7-1.3,1-2.5c0.3-1.3-0.1-3.9-0.1-3.9s1.2,1.8,1.3,3.2c0,1.6-0.4,2.7-0.6,3.3c0.1,0,0.2,0,0.2,0c0.4,0,0.9,0,1.3,0.1
		c0.6-0.6,1.4-1.5,1.9-2.2c0.9-1.2,1.5-3.7,1.5-3.7s0.1,2.7-0.4,3.8c-0.4,1-0.9,1.8-1.3,2.4c0.7,0.2,1.4,0.4,2.1,0.7
		c0.4-0.3,1-0.7,1.5-1.1c0.8-0.7,1.7-2.5,1.7-2.5s0,1.1-0.4,2.2c-0.3,0.7-0.8,1.5-1.2,2c0.8,0.4,1.6,0.9,2.4,1.4
		c0.4-0.2,0.9-0.3,1.2-0.6c0.9-0.6,2.7-2.6,2.7-2.6s-0.5,1.7-1,2.4c-0.5,0.9-1.2,1.3-1.8,1.6c0.4,0.3,0.7,0.6,1,0.9
		c1.6-0.4,3.5-2.1,3.5-2.1s0.1-0.2-0.5,1c-0.4,0.8-1.3,1.7-1.8,2.1c5,4.8,7.8,10.7,7.8,10.7s-10.4-15.9-23.3-14.3
		c-10.2,1.2-13.2,13.6-13.2,13.6s7.2,5.2,16.1,6.2c6.1,0.7,15.7,0.6,15.7,0.6s-7.4,1.4-15.4,0.7c-3.1-0.3-5.7-0.9-8-1.7
		c-0.2,0.2-0.4,0.3-0.6,0.5c-0.6,0.5-1.6,2.1-1.6,2.1s0.1-1.2,0.3-1.7c0.2-0.6,0.6-1,0.9-1.3c-1.1-0.4-2.2-0.9-3.1-1.4
		c-0.4,0.2-0.9,0.4-1.3,0.6c-0.9,0.6-2.6,2.7-2.6,2.7s0.4-1.7,0.9-2.5s1.1-1.4,1.6-1.6c-2.5-1.5-3.8-2.8-3.8-2.8s-1.3,0.1-2.4-0.3
		c-1.1-0.5-1.4-1.1-1.4-1.1S348.3,164.5,349.9,164.6z"/>
</g>
<path class="st5" d="M445.4,132.4c0,0,8-0.1,15.2,3.3c7.2,3.4,16.5,11.9,16.5,11.9s-5-10.6-16.8-15.3S443.1,129.9,445.4,132.4z"/>
<path class="st5" d="M376.3,132.4c0,0-8-0.1-15.2,3.3c-7.2,3.4-16.5,11.9-16.5,11.9s5-10.6,16.8-15.3
	C373.2,127.6,378.6,129.9,376.3,132.4z"/>
<path d="M405,186.5c0,0,2.2-1.9,3.5-1.5c1.3,0.3,2.4,2.4,0.8,2.3S407.4,185.4,405,186.5z"/>
<path d="M420.5,186.5c0,0-2.2-1.9-3.5-1.5c-1.3,0.3-2.4,2.4-0.8,2.3S418,185.4,420.5,186.5z"/>
<path class="st6" d="M432.6,199.8c-8.8,0.2-13.5-4.3-15.7-4.4c-2.2-0.1-3.9,3.1-3.9,3.1s-1.8-3.1-4.2-3.1c-2.4,0-6.1,4.3-16.3,4.6
	c0,0,2.1,0.5,5.2,1c1.4,1.7,7,7.6,14.8,7.6c9.2,0,15.5-7.8,15.5-7.8L432.6,199.8z"/>
<radialGradient id="SVGID_1_" cx="392.3308" cy="588.0334" r="11.0697" gradientTransform="matrix(1.1942 0.3259 0.2632 -0.9647 -255.1919 624.3599)" gradientUnits="userSpaceOnUse">
	<stop  offset="0" style="stop-color:#EB5E5E;stop-opacity:0.5"/>
	<stop  offset="0.1577" style="stop-color:#EC6362;stop-opacity:0.4212"/>
	<stop  offset="0.3338" style="stop-color:#EE706F;stop-opacity:0.3331"/>
	<stop  offset="0.5188" style="stop-color:#F18683;stop-opacity:0.2406"/>
	<stop  offset="0.71" style="stop-color:#F6A6A0;stop-opacity:0.145"/>
	<stop  offset="0.9041" style="stop-color:#FCCDC4;stop-opacity:4.796129e-02"/>
	<stop  offset="1" style="stop-color:#FFE4D9;stop-opacity:0"/>
</radialGradient>
<path class="st7" d="M381.3,188.5c-1.6,5.9-8.8,9.1-16.1,7.1c-7.3-2-11.9-8.4-10.3-14.3s8.8-9.1,16.1-7.1
	C378.3,176.2,382.9,182.6,381.3,188.5z"/>
<radialGradient id="SVGID_00000124148931700094375140000007282316943404116401_" cx="554.9934" cy="642.985" r="11.0697" gradientTransform="matrix(-1.1942 0.3259 -0.2632 -0.9647 1289.1068 624.3599)" gradientUnits="userSpaceOnUse">
	<stop  offset="0" style="stop-color:#EB5E5E;stop-opacity:0.5"/>
	<stop  offset="0.1577" style="stop-color:#EC6362;stop-opacity:0.4212"/>
	<stop  offset="0.3338" style="stop-color:#EE706F;stop-opacity:0.3331"/>
	<stop  offset="0.5188" style="stop-color:#F18683;stop-opacity:0.2406"/>
	<stop  offset="0.71" style="stop-color:#F6A6A0;stop-opacity:0.145"/>
	<stop  offset="0.9041" style="stop-color:#FCCDC4;stop-opacity:4.796129e-02"/>
	<stop  offset="1" style="stop-color:#FFE4D9;stop-opacity:0"/>
</radialGradient>
<path style="fill:url(#SVGID_00000124148931700094375140000007282316943404116401_);" d="M443.9,188.5c1.6,5.9,8.8,9.1,16.1,7.1
	s11.9-8.4,10.3-14.3c-1.6-5.9-8.8-9.1-16.1-7.1S442.3,182.6,443.9,188.5z"/>
<path class="st2" d="M404.5,224c0,0,3.3,1.3,6.9,1.3s6.9-1.4,6.9-1.4"/>
<path class="st9" d="M407.4,201.5c0,0-2.8,3.2,1.2,4c4.1,0.8,6.7,0.4,9-0.5s0.8-3.8,0-3.4C414.5,203.2,407.9,202.8,407.4,201.5z"/>
<path class="st10" d="M392.9,200.1c0,0,6.8,1.7,14.3,1.4c2-0.1,2.5,1.3,5.7,1.3c2.8,0.1,4.3-1.3,5.8-1.3c9.2-0.2,13.5-1.6,13.5-1.6"
	/>
</svg>
