<?xml version="1.0" encoding="utf-8"?>
<!-- Generator: Adobe Illustrator 26.0.3, SVG Export Plug-In . SVG Version: 6.00 Build 0)  -->
<svg version="1.1" id="Calque_1" xmlns="http://www.w3.org/2000/svg" xmlns:xlink="http://www.w3.org/1999/xlink" x="0px" y="0px"
	 viewBox="0 0 800 800" style="enable-background:new 0 0 800 800;" xml:space="preserve">
<style type="text/css">
	.st0{fill:#FFFFFF;stroke:#020203;stroke-width:1.1548;stroke-miterlimit:10;}
</style>
<path class="st0" d="M491.9,101.3c-3.5,0.1-6.2,3.1-6,6.6c0,0.2,0,0.4,0.1,0.6c-0.7-2.8-3.3-4.8-6.4-4.7c-3.5,0.1-6.2,3.1-6,6.6
	c0,0.1,0,0.1,0,0.2c-0.7-2.8-3.3-4.8-6.4-4.7c-3.4,0.1-6.1,3-6,6.4c-0.5-3.1-3.3-5.3-6.5-5.2c-3.5,0.1-6.1,3.1-6,6.5
	c-0.3-3.3-3.1-5.9-6.5-5.8c-3.3,0.1-5.9,2.8-6,6c-0.2-3.4-3.1-6-6.6-5.9c-3.2,0.1-5.8,2.7-6,5.9c-0.3-3.3-3.2-5.9-6.5-5.8
	c-3.2,0.1-5.8,2.7-6,5.8c-0.2-3.1-2.8-5.7-6-5.8c-3.4-0.1-6.3,2.4-6.5,5.8c-0.2-3.2-2.8-5.7-6-5.9c-3.4-0.1-6.3,2.5-6.6,5.9
	c-0.2-3.2-2.7-5.8-6-6c-3.4-0.1-6.3,2.4-6.5,5.8c0.1-3.4-2.6-6.4-6-6.5c-3.2-0.1-5.9,2.1-6.5,5.2c0.1-3.4-2.6-6.3-6-6.4
	c-3-0.1-5.6,1.9-6.4,4.7c0-0.1,0-0.1,0-0.2c0.1-3.5-2.6-6.4-6-6.6c-3-0.1-5.6,1.9-6.4,4.7c0-0.2,0-0.4,0.1-0.6
	c0.1-3.5-2.6-6.4-6-6.6c-3.5-0.1-6.4,2.6-6.6,6c-0.1,3.5,2.6,6.4,6,6.6c3,0.1,5.6-1.9,6.4-4.7c0,0.2,0,0.4-0.1,0.6
	c-0.1,3.5,2.6,6.4,6,6.6c3,0.1,5.6-1.9,6.4-4.7c0,0.1,0,0.1,0,0.2c-0.1,3.5,2.6,6.4,6,6.6c3.2,0.1,5.9-2.1,6.5-5.2
	c-0.1,3.4,2.6,6.3,6,6.4c3.4,0.1,6.3-2.4,6.5-5.8c-0.1,3.4,2.6,6.4,6,6.5c3.4,0.1,6.3-2.5,6.6-5.9c0.2,3.2,2.7,5.8,6,6
	c3.4,0.1,6.2-2.4,6.5-5.8c0.2,3.2,2.8,5.7,6,5.9c3.4,0.1,6.3-2.5,6.5-5.9c0.2,3.4,3.1,6,6.5,5.9c3.2-0.1,5.8-2.7,6-5.9
	c0.3,3.3,3.2,5.9,6.5,5.8c3.3-0.1,5.9-2.8,6-6c0.2,3.4,3.1,6,6.6,5.9c3.5-0.1,6.1-3.1,6-6.5c0.3,3.3,3.1,5.9,6.5,5.8
	c3.4-0.1,6.1-3,6-6.4c0.5,3.1,3.3,5.3,6.5,5.2c3.5-0.1,6.2-3.1,6-6.6c0-0.1,0-0.1,0-0.2c0.7,2.8,3.3,4.8,6.4,4.7
	c3.5-0.1,6.2-3.1,6-6.6c0-0.2,0-0.4-0.1-0.6c0.7,2.8,3.3,4.8,6.4,4.7c3.5-0.1,6.2-3.1,6-6.6C498.3,103.9,495.4,101.2,491.9,101.3z"
	/>
</svg>
