<?xml version="1.0" encoding="utf-8"?>
<!-- Generator: Adobe Illustrator 24.1.2, SVG Export Plug-In . SVG Version: 6.00 Build 0)  -->
<svg version="1.1" id="Calque_5" xmlns="http://www.w3.org/2000/svg" xmlns:xlink="http://www.w3.org/1999/xlink" x="0px" y="0px"
	 viewBox="0 0 800 800" style="enable-background:new 0 0 800 800;" xml:space="preserve">
<style type="text/css">
	.st0{fill:#FFE4D9;stroke:#1D1D1B;stroke-width:1.054;stroke-linecap:round;stroke-linejoin:round;stroke-miterlimit:10;}
</style>
	 <path class="st0" d="M413.1,285.2c0,0-6.6-7.5-18.2-7.1c-12.5,0.4-18.6,13.2-18.6,13.2s0.2-4.7,4.2-9.3c3.5-4.1,7.7-6.8,7.7-6.8
	s-6.1-0.3-10.9,2.7c-5.1,3.2-7.2,8.7-6.9,13.2c0.3,5.8,6.7,40.8,8.2,52.6c1.1,8.9-0.5,20.6-3,26.5c-2.4,5.9-9.9,11.4-21.2,12.5
	c-11.2,1.1-25.6-1.4-40.6,3.1c-15,4.5-34.4,19.2-34.4,19.2s-7.5-7-15.3-5c-14.8,3.9-11.8,20.3-11.8,20.3s-3.2,1.2-6.4,2.5
	c-6.4,2.6-2.9,11.6-2.9,11.6s-4.1-2.4-10.7-1.2c-6.6,1.2-10.9,3.8-10.9,3.8s5.1,0.3,6.3,2.3s1.7,5.3,1.7,5.3s-5.5,3.1-12.5,3.6
	c-10.2,0.7-10.3-4.3-10.3-4.3s-4.5,2-5.7,3.8c-2.4,3.5,0.7,6.3,0.7,6.3s-4.5-1.9-11.2,3.1c-6.7,5-6.3,11.4-4.8,14.9
	c1.5,3.5,8.8,6.2,8.8,6.2s1.1,0.6-8.4,5.4s-11.9,11.7-14.3,16.7s-0.8,16.2-0.8,16.2s-10.8-0.2-17.3,8.7
	c-6.5,8.8-15.6,17.4-15.6,17.4s-4.2-0.9-8.4,5.3c-4.1,6.2-7.8,15.5-3.6,26.1c4.2,10.5,11.5,16.4,11.5,16.4s-3.7,0.1-6.5,6.9
	c-2.8,6.8,3.3,13.6,1.3,18c-2,4.4-8.6,10.5-5.9,27s6.7,21.7,6.7,21.7s-19.6,5.6-14.1,24.4s16.8,14.9,16.8,14.9s-1.8,13.8,7.2,23.4
	c13.4,14.3,42.6,7,42.6,7s-4.2,22,6.1,35.6c8,10.5,28,2.6,28,2.6s9.4,19.4,43.6,21.8c34.2,2.4,49.1-10.4,49.1-10.4s4.7,9.4,21.5,8.9
	c15.9-0.4,20.7-9.1,20.7-9.1s2.7,12.4,31.9,11.9c22.9-0.4,25-9.6,25-9.6s12.4,15,48.4,9.4c29.7-4.6,26-31.7,26-31.7
	s8.4,14.8,39.8,9.2c31.4-5.6,34.8-10.1,34.8-10.1s-0.4,22.8,34.4,19.6c32.6-3,37.3-22.8,37.3-22.8s20.6,1.9,29.1-11.2
	c8.5-13.1,10.4-20.6,10.4-20.6s18.9-5.7,18.9-21s-4.7-25-4.7-25s24-1,21.3-15.9s-7.7-16.6-7.7-16.6s3.6-6,2.5-11.7s-2.5-8.4-2.5-8.4
	s17.3-6.8,14.2-20.8c-6.1-27.9-24.6-33.7-24.6-33.7s13-18.2,6.3-34.7c-6.7-16.5-25.7-22.9-25.7-22.9s-2.8-12.5-9.4-28.5
	s-8.9-32.5-30.2-34.8c-21.3-2.3-29.2,2.8-29.2,2.8s-4.5-4.9-7.3-5.7c-2.8-0.8-5-1-5-1s6.2-6.1,3.6-14c-3.5-10.6-15.9-10.3-15.9-10.3
	s0.8-4.7-5.8-6.9c-6.5-2.1-9.3,1.3-9.3,1.3s-1.7-13.1-15.1-17.5c-12.9-4.2-20.9-0.1-20.9-0.1s7.1-21.4-7.1-23.4
	c-14.2-1.9-13.6,8.9-12.9,11.5c0.7,2.7,1.1,3.6,1.1,3.6s-0.8,0.9-15.3-1.9c-14.6-2.9-29.5-4.7-37-10.6c-7.5-5.9-11.3-16-11.4-33.3
	c-0.1-15.5,7.9-40.6,7.4-51.6c-0.5-11-2.7-14.9-1.7-20.4c1-5.5,6.8-3.3,6.8-3.3s-9.1-9.4-12.9,1.3c-1.7,4.8,0.9,13.1,0.9,13.1
	s-3.1-7.5-13.6-8.3C417.5,277.5,413.1,285.2,413.1,285.2z"/>
<g>
	<path class="st0" d="M430.6,303.2c-4.9,8.2-18.4,18.7-22.6,30.7c-4.2,12-4.6,27.7-3.7,39.3c0.9,11.6,9.9,34.7,20.1,43.2s19.5,12.4,20.5,18.1
		s-1,7.6-1,7.6s-1.8-4.2-5.3-3s-5.2,7.1-3,10.9s8.4,7.8,16,7.7c7.7-0.1,13.8-6.1,13.8-6.1s-13.5,34.9-14.1,51.4
		c-0.6,16.5-3.9,45.5,8.9,68c9.2,16.2,30.5,42.7,70.9,41.4s63-28.6,64.1-64.4s-28.5-43.8-41.4-43.2S523.5,516,525,533.3
		c1.5,17.3,15.7,25.6,26.9,17.8c8.8-6.1,2.3-17.2,2.3-17.2s2.3,11.7-3.8,14.5c-6.1,2.8-20.8,2.1-20.7-14.5
		c0.1-16.6,14.7-25.4,24.7-25.5c14.7-0.1,30.8,7.1,35,26.7c4.1,19.6-4.4,46.9-22.4,58.4c-18.3,11.6-39.6,16.2-69.3,4.8
		c-29.7-11.4-42.5-46.8-43.4-73.7c-0.9-26.8,2.7-29.6,2.7-29.6s-1.9,36.9,4.3,53.5c6.2,16.6,25.8,47.5,65,48.3
		c39.2,0.8,58.3-29,57.7-49.3c-0.6-20.2-13.5-35.3-29.2-34.4c-15.7,1-20.6,14.6-20,20.9c0.7,7,4.3,11.5,9.7,11.2
		c5.4-0.4,5.7-4.8,5.6-7.3c-0.1-2.5-2.4-3.4-4-2.9c-3.2,0.9-1.8,5.2-1.8,5.2s-6.6-0.7-5.8-8.6c0.8-8,7.1-14.4,16.5-13.2
		c9.3,1.2,19.8,9.9,19,23.9c-0.8,13.9-8.4,31.5-23.5,38.1c-14.7,6.5-33.7,10.6-57.2-2.7c-23.5-13.4-34.5-47.7-33.2-74
		c1.1-21.1,8-49.3,8-49.3s5.8,15.5,13.8,21.1c8.3,5.8,19,11.1,33.3,10.7c13.8-0.3,16.4-1.2,16.4-1.2s-3.8,5.2-3.1,8.8
		c0.6,3.7,2.9,13.3,2.9,13.3s5.6-6.9,6.4-11.6s-2.6-6.5-2.6-7.9s-0.1-3.5-0.1-3.5l2.1-0.7c0,0,1.8,10.2,6.5,12.7
		c4.7,2.5,20.4,3.1,20.4,3.1s-4.4-2.5-6.2-5.7c-1.9-3.2-5.7-7-10.8-8.9c-5.1-1.9-6.8-3.2-6.8-3.2l2.2-1.9c0,0,7.6,5,16.6,5.1
		c9,0.2,15.2-8.4,15.2-8.4s-3.7,1.6-8,0c-4.2-1.7-8.5-4.6-12.6-3.3c-4.1,1.3-8.1,3.8-8.1,3.8s13.9-14.4,24.8-14.6
		c11-0.2,15.7,1.7,16.9,6.8c1.2,5.1-2.6,7.2-2.6,7.2s-1.2-3.2-3.8-1.5c-2.6,1.8-0.3,4.4,3.2,4.4c3.5,0,7.5-3.5,7.6-8.5
		c0-5-5.6-11.8-16.3-11.9c-10.8,0-18.1,4.7-27,12.1s-11.1,12.6-25.6,13.2s-18.3-1.1-18.3-1.1s18.5-0.8,25.1-4.2
		c6.6-3.4,15.3-8.6,21.4-19s7.9-22.8,7.4-31.9s-3.4-18.1-11.5-21.4c-8.1-3.3-21.5-1.5-21.5-1.5s6,0.1,9.9,8.1
		c3.9,7.9,3.7,11.6,8.1,15.7s10.5,7.1,9.8,16.2c-0.7,9-3.5,13-5,15s-4.4,4.7-4.4,4.7s2.5-7.8,1.7-15.1c-0.7-7.2-4.9-20.8-11.4-26.2
		c-6.5-5.3-9.6-5.8-9.6-5.8s4.3,3.9,5.4,13.6s-3.2,15.7,0.5,23.7s9.8,12.7,9.8,12.7s-6.5,5.9-15.2,8.3s-17.8,2.7-17.8,2.7
		s8.4-5.7,11.2-13.9s1.6-27.4,1.6-27.4s-8.2,4.5-11.9,12.6s-3.2,17.3-3.2,20.7c0,3.4-0.7,8-0.7,8s-12.1-0.4-18.9-5.3
		c-6.8-4.9-13.8-12.8-14.3-23.3c-0.5-10.4,0-25.9-1.9-34.8c-3.3-15.2-14.7-20.9-14.7-20.9s12.6,10.7,13.6,29.1
		c1,18.4-3.3,31.3-17.4,31.3c-12,0-12.1-7.3-12.1-7.3s2.2,0.7,4-0.8s2.1-2.8,2.1-2.8s3-4.8,2.1-8.8c-0.9-4-6.2-10.9-11-15.1
		c-4.8-4.2-15.3-10.5-21-21.9c-5.8-11.4-8-16.5-8.7-30.6c-0.7-14,0.2-28.3,7.8-36.6c7.6-8.3,14.7-7.9,19.5-7.4
		c4.8,0.5,11.8,6,11.8,6l1.8-8.6c0,0-4-1.8-11.8-1.3s-14.7,2.5-14.7,2.5s23.7-7.1,27.9-15.1c3.9-7.3,1.7-16.7,0.4-24.5
		c-1.7-9.8,5.2-10.2,5.2-10.2s-6.4-2.7-9.6,4.1c-4.9,10.7,10.6,13.4-2.4,30.6c-4.9,6.5-19.4,11.2-19.4,11.2s21.6-19.4,18.2-27.4
		c-6.1-14.3-20.9-6.6-26-3.2C414.4,287.1,442.9,282.5,430.6,303.2z"/>
	<path class="st0" d="M429.1,338.2c0,0,2.5,1.3,2.5-1.1c0.1-2.4-4-1.3-5,0.4c-1,1.7-0.9,6.2,1.7,8.2c2.6,2,10.6,1.4,13-3
		c3.1-5.8,0.3-18.4-11.3-16.9c-13,1.7-20.2,15.3-20.4,29.4c-0.2,14.1,0.4,24.2,4.8,33.8s15.6,20.1,15.6,20.1s-9.7-12.2-12.6-18.7
		c-2.9-6.5-2.3-11.2-2.3-11.2s5.3-6,7.5-13.7c2.2-7.7,2.4-18.7,2.4-18.7s-7.1,3.8-9.3,10.9s-1.5,14.5-1.7,16.9
		c-0.2,2.4-1.3,3.3-1.3,3.3s-2.8-12-1.8-22.4c1-10.4,6.9-27.5,19.3-26.9c12.3,0.6,9.4,15.3,3.7,15.3s-6.1-1.5-6.6-3.5
		C426.7,338.4,428.1,337.2,429.1,338.2z"/>
	<path class="st0" d="M492,432.5c-0.7-0.2-1.1-0.5-1.1-0.5S491.3,432.3,492,432.5z"/>
	<path class="st0" d="M443.2,367.7c-4-8.7-2.7-19-2.7-19s-13.6,1.1-16.9,19.1c-3.3,18,5.4,33.1,10.3,40.1c5,7,14,18.3,15.6,21.7
		c1.6,3.5,1,6.9,1,6.9s5.4-11.6-2.9-24.4c-8.3-12.8-17.1-25.6-17.5-34c-0.3-8.4,2.2-17.4,2.2-17.4s-2.3,9.5,1.8,22.2
		c4.1,12.7,11.5,17.8,14.6,20.9s7.3,6.6,7.8,9.4c0.5,2.8,0.1,6.9,0.1,6.9s4.1-2.7,1.3-13.1s-9.9-15.4-14.1-22.7
		c-4.2-7.3-7.9-13.1-6.9-19.3s1-6.2,1-6.2s3.9,15.8,12.1,22.2c8.6,6.7,20.7,7.6,21.1,13.4c0.5,5.8,0.4,7.7,3.2,13.3
		c2.8,5.6,3.4,7.2,3.3,9.1c-0.1,1.9-1,3.4-1,3.4s5.6-3.3,5.2-11.7s-8.9-17.2-8.9-17.2s5.6,0,9.6,6.4c4,6.4,3.6,11.4,7.1,15.7
		s5.3,4.6,5.3,8.7c0,4.1-1.4,6.1-1.4,6.1s8-6.9,7.1-14.8s-4.5-13.2-4.5-13.2s5.6,0.5,8.4,7.8c2.8,7.3,3.5,15.8-2,20.2
		c-5.6,4.4-7,4.4-8.9,4.4c-0.7,0-1.3-0.1-1.7-0.2c2,0.7,6.3,1.6,10.9-1.6c6.2-4.4,7.6-9.2,7.3-15.6c-0.4-6.4-3.5-10.9-5.8-12.7
		c-2.3-1.8-3.1-3.1-3.1-3.1s4.2,1.3,8.4,0.9c4.1-0.4,14-4.4,13.9-11.4c-0.1-7-4.6-9.3-8.1-9.3c-3.4,0-6.3,2.9-6.2,5.7
		s1.8,4.2,3.7,4.2c1.9,0,2.9-1.2,2.4-2.8s-2.1-0.6-2.3-0.3c-0.1,0.3-0.4,1-0.4,1s-2.4,0.3-1.8-2.6c0.6-2.9,2.8-3.8,5-3.6
		c2.2,0.2,5.6,1.7,5.5,6.4c-0.2,4.7-3.1,9.3-11.5,9.6c-8.4,0.3-12.9-5.6-19.9-6.9c-7.1-1.3-23.1-3.1-30.1-6.4
		C452.9,380.6,447.2,376.5,443.2,367.7z"/>
	<path class="st0" d="M384.8,443.9c-5.5,9.7-4.8,22.2,1.2,26.6s13,1.5,14.5-1.9c1.5-3.4-0.4-5.5-0.4-5.5s0.7,4.5-3.4,5
		c-4.1,0.4-6.1-5.8-2.1-13.8c4-8,9.1-13.8,11.4-17.3s5.8-13.3,5-24.8c-0.7-10-5.1-28.7-7.9-32.6c0,0-1.3,14.7-7,20.9
		s-13.4,7.8-13.4,7.8s8.8,1.2,14.3-5c5.5-6.3,7.2-13.1,7.2-13.1s0.7,19.5-1.9,26.4C399.8,423.5,390.3,434.2,384.8,443.9z
		 M406.4,406.1c2.8,12.2-2.7,22.2-5.8,27.7c-3.1,5.5-10.3,14.9-11.9,21.6c-1.6,6.7,2.5,13.5,2.5,13.5s-5.1-1.6-7.2-8.6
		c-1.3-4.5,1.9-10.9,4.3-16.7c2.4-5.8,11.9-15.6,14.8-21.6C406,416,406.4,406.1,406.4,406.1z"/>
	<path class="st0" d="M375.6,531.3c0,0,1,5.3,4.3,4.3c3.3-1,4-4.9,1.2-7.9s-8.7-1.5-10.3,0.4c-1.6,2-7.9,6.4-7.5,16.6
		c0.3,10.2,9.5,24.4,26.3,24.8c16.7,0.3,30-10.1,36.6-18.6c6.6-8.5,11.7-23.8,12.4-35.7c0.7-11.3,0.1-17.5,0.1-17.5s4.8,12.3,3,28.7
		c-1.8,16.4-6.4,23.9-6.4,23.9s-14.9,7.3-22.4,19c-7.5,11.7-10.9,19.4-15,22.3c-4.1,2.9-8.1,5.2-8.1,5.2s12.5-0.5,19.4-6.2
		c6.8-5.7,12.8-11.9,16.5-20.3c3.7-8.3,7.2-13.3,7.2-13.3s-9.2,23.6-8.3,37.7c0.9,14,7.7,32.6,28.9,31.7c21.1-0.9,23.1-20,22.7-24.1
		c-0.5-4.1-4-12.7-13-12.1c-9.1,0.6-8.7,9-5.8,9.3c2.9,0.3,2.9-2.1,2.8-3.2c-0.1-1.1,0.9-3.6,4.7-3c3.8,0.6,8.9,3.8,8.6,10.2
		c-0.3,6.4-7.3,18.6-19.4,18c-12.1-0.6-22.5-9.8-23.7-21.6c-1.2-11.8,2-34.5,10-50.2c8-15.6,5.2-35.2,4.1-47.1
		c-1.1-11.9-14.5-43.1-14.5-43.1s4.8,5.6,8.4,9.6c3.5,4,10,6.9,13.8,4.1s3.8-10,3.8-10s-0.8,2.4-5.3,1.7c-4.5-0.7-12.2-9.5-17-11.3
		c-4.8-1.8-6-1.2-6-1.2s-8.3-27-10.4-34.2s-5.1-12.4-5.1-12.4s2.2,4.9,1.4,15.6c-0.8,10.6-3.4,20.1-5.3,24.8s-3.2,8.6-3.2,15.1
		s1.5,12.9-6.4,26.1c-8,13.2-30.1,32-50.6,30.4c-20.5-1.6-35.7-11.1-35.3-29.6c0.3-18.5,13-22.7,20.2-22.5c7.2,0.2,13,5.9,12.9,13.4
		c-0.1,7.5-3.2,12.1-10.8,13.3c-7.6,1.1-8.9-6.5-8.7-8.1c0.2-1.6,0.8-4.5,2.8-5c2.1-0.6,3.6,0,3.6,0s-0.2,2.5,2.5,2.3
		c2.7-0.2,0.9-4.5-1.2-5.4c-2.1-1-6.3-1.5-9,1.7c-2.7,3.2-3.9,12.1,3.3,15.8c7.2,3.6,17.1,0.9,20.2-8.8c3.1-9.7-3-18.4-9.7-20.5
		c-6.6-2.1-14.7-2.5-21.5,3.5c-6.8,6.1-12.3,18.8-7.5,33.7c4.8,14.8,25.8,21,38.8,21.2c13,0.2,33.3-9.8,44.9-24
		c11.6-14.2,20.5-30.3,21.8-41.6c1.3-11.3,0.6-26.3,0.6-26.3s5.8,10.8,5.7,21.7c0,10.8-7.4,20.7-13.2,29.4s-9.4,19.2-9,30.2
		c0.4,10.9,1.9,20,0.2,26.5c-1.7,6.4-3.1,9.8-3.1,9.8s11.8-6.9,18.7-17.5c6.9-10.6,11.5-19.8,13-35.1c1.5-15.3-2.1-35.9-2.1-35.9
		s6.1,10.1,8.1,25.9c2,15.9,2.5,35.1-4,49.1c-6.5,13.9-20.8,30.1-37.9,29c-17.1-1.1-24.8-10.3-24.6-19
		C368,534,375.6,531.3,375.6,531.3z M420.6,506.9c-5.4,26.9-18.2,33.5-18.2,33.5s5.4-9.5,5.9-16.8c0.5-7.3,0.6-22.2,3.1-32.4
		s10.9-19.7,10.9-19.7S426,480,420.6,506.9z"/>
	<path class="st0" d="M505.6,527.9c13.5-0.2,20.1-10.8,20.3-20.4c0.1-8-4.6-17.7-17.5-17.8c-11.1,0-12.9,13-12.2,16.2c0.6,2.9,2.2,5.5,5,5.5
		c2.9,0,3.4-1.9,3-3.5c-0.4-1.6-3.8-2.3-3.8-2.3s-2-11.2,8.4-11.6c10.4-0.3,12.2,10.7,11.9,14.9c-0.3,4.8-5.4,13.8-16.4,13.4
		c-11-0.4-23.9-13-28.9-24.3c-5-11.3-6.7-31.2-6.7-31.2s-3.8,22.8-1.8,43.3c2.1,20.5,9.1,41.9,26.2,53c14.4,9.3,28.5,11,36.7,10
		s15.6-5.8,15.6-5.8s-14.6,2.6-30.6-2.9c-16.1-5.5-26.5-16.2-34-29.1s-7.5-25.2-7.5-25.2s5.3,21,20.6,31.4
		c18.5,12.6,32.7,6.1,32.7,6.1s-20.6-1.2-32.5-13c-11.9-11.8-14.1-23.2-14.1-23.2S492.2,528.1,505.6,527.9z"/>
	<path d="M554.3,457.5c0,0,12.5-8,23.1-7.4s16.8,5.7,19.8,10.9c3,5.2,4.4,17.9-2.8,25.1c-7.2,7.2-15.3,5.8-15.3,5.8s1.3-2.2-0.1-3.6
		c-1.4-1.4-4.1,1.5-4.1,1.5s0.9-3.1-1.7-4.2c-2.6-1.1-3.7,2.4-3.7,2.4s-1.1-1.9-2-2.5c-0.9-0.6-3,0-2.4,3.4s5.1,7.7,15.7,7.8
		c10.6,0.2,23.3-7.4,23.5-23.3c0.2-15.9-11.4-25.5-26.2-25.4C565.9,448.2,554.3,457.5,554.3,457.5z"/>
	<path class="st0" d="M562.6,438.5c-1,7.7-7.3,15.1-7.3,15.1s1.7-0.4,5.3-2.9c3.6-2.5,7.6-8.7,8.6-11.3c0.9-2.6,5.4-15,13.5-11.7
		c8.1,3.3,5.3,12.4,2.7,14.7c-2.6,2.3-7.7,2.9-9.3-0.6c-1.3-2.9,2.5-2.8,3.1-4.2s-0.9-3.1-3.7-1.8c-2.8,1.3-3.9,9.8,4.3,10.2
		s9.9-6.6,10.2-9.9c0.3-3.3-2.8-11.2-10.5-11.2c-7.7,0-10.2,6.3-11.9,11.4c-1.8,5.1-3.6,6.6-3.6,6.6s3.5-7.4,1.9-12
		c-0.9-2.7-1.7-7.8,1.3-9.4c2.9-1.6,5.9,1.1,5.9,1.1s-0.9-3.2-3.6-3.9c-2.7-0.7-6.3,0.8-7.3,4.2
		C561.2,426.1,563.6,430.8,562.6,438.5z"/>
	<path class="st0" d="M282.1,763.3c-10-5.7-13.8-5.8-15.8-7.2c-2-1.3-3.7-3.3-3.7-3.3s20.2,0.8,27.8-11.9s9.1-29.3,3.1-39.5
		c-5.9-10.2-22-18.1-35-9.9s-9.4,27.6,0.9,29.2c10.4,1.6,15.8-5.1,14.2-11.3c-1.6-6.3-7.8-7-9.5-5.6c-1.7,1.3-2,2.7-2,2.7
		s6.7-4.9,8.7,3.4c1.9,8.4-10.9,9.4-14.8,4.1c-3.3-4.4-4.1-15.5,4.4-19.6c9.1-4.4,22.6-3.4,28.9,8.8s3.4,29.6-3.4,35.7
		c-6.7,6.1-15.5,10.1-26.1,8.6c-10.6-1.5-24-7.3-28.8-22.5s-0.7-38.2,7.3-52.8c8-14.7,16.3-23.5,35.9-34.3
		c19.6-10.9,31.2-18.6,35.9-26.6s10.4-16.5,12-28.3s1.9-20.4,2-20.1c0.1,0.3,2.8,22.3-2.3,34.9c-5.1,12.6-10.1,17.8-22.5,28
		c-12.5,10.2-23.1,22.8-26.7,32.1c-3.7,9.3-4.4,18-4.4,18s2.5-8,14.2-13.4c11.7-5.5,21.1-8.3,24.6-16.3s17.7-38.3,19.3-48.6
		c1.6-10.3,1.2-12.5,1.2-12.5s5.6,10.7-1.6,29.6c-7.2,18.9-20.6,39.7-20.6,39.7s16.6-12.2,22.2-26.3c5.7-14.1,6.7-22.3,6-38.3
		c-0.7-16-2.4-25.3-2.4-25.3s5.2,12.8,6.6,28c1.4,15.2-1,27.7-1,27.7s11-22.2,7.1-38.4c-3.1-13.1-12.8-30.4-16.4-36.7
		c2.2,3.5,6.7,9.9,12.1,12.6c7.6,3.8,12.6,2.1,17.7,7.8c5.1,5.7,7.7,13.6,7.7,13.6s3.3-16.1-5.3-25.2c-8.7-9-21-6.5-28.3-13.4
		c-7.3-6.9-10.2-12.8-10.2-12.8s10.3,7.4,22.9,7.6c12.5,0.1,18-8.9,18-8.9s-9.5,5.9-18.3,2.7c-8.9-3.3-23.7-3.5-32-14.1
		c-8.3-10.6-13.4-18.1-12-30.2s10-18.2,13.8-20.8c3.6-2.5,13.4-3.9,16.9-3.5c3,0.4,14.3,2.6,21,2.5c0.8,1.8,1.5,4.4,1.4,7.9
		c-0.1,7.4-0.2,10.5,1.7,14.3c1.9,3.8,3.6,6.8,1.5,11.8s-4.4,7.8-4.4,7.8s10.1-1.4,13.7-12.3c3.6-10.8,0.2-20-5.3-25.3
		c-2-1.9-3.9-3.4-5.5-4.5c2.7-0.6,5.2-1.7,7.5-3.1c4.2,0.2,10.3-0.3,14.1-3.6c6.2-5.5,3.1-19,3.1-19s-2.5,7-8.3,10.7
		c-0.6,0.4-1.1,0.9-1.5,1.4c0.2-1,0.2-2.1,0.1-3.3c-0.7-9.6-5.5-18.5-14.3-17.6c-8.8,0.9-12.3,8.9-10.3,12.8s4.6,6,8.2,3.2
		c3.7-2.8-0.1-6.5-1.3-6.2c-1.2,0.3-1.8,0.1-1.8,0.1s0.5-5.3,7.3-2.8s6.9,9.6,3.7,14.9c-3.2,5.3-8.4,5.4-18.4,5.3
		s-19.6,1.4-19.6,1.4s13.5-7.3,16.9-16.4c3.4-9.1,3.9-24-10-27.7s-17.9,9.7-18,12.5c-0.1,4.3,2.5,10.5,7.9,10.2
		c5.4-0.4,5.2-3.5,5.2-3.5s-7,4.6-7.4-4.2c-0.1-2.7,0.9-4.7,2.6-6.1c-0.7,2.3,0.7,4.4,0.7,4.4s0.7-6.5,4.9-5.9
		c4.2,0.6,6.2,4.1,5.3,8.2c-0.9,4.1-5.8,10.4-13.7,9.5c-7.9-0.9-13.6-4-16.5-11.4c-2.9-7.3-0.2-20.2,10.2-28.7
		c10.4-8.5,23-11.6,23-11.6s-3,5-3,8.9c0.1,5.5,5.6,8.9,5.6,8.9s-3.7-7.6-1-11.9c2.8-4.3,6.5-7.7,14.4-5.4s9.5,8.9,9.6,12.2
		c0,5.4-2.5,8.9-2.5,8.9s0.3-9.6-5-13c-5.3-3.3-14.1-1.6-14.1-1.6s1.7,8.4,6.9,11.7c5.2,3.3,9.3,4.3,9.3,4.3s-2.6,0.5-4.8,3.5
		s-3.1,6.8-3.1,6.8s4.5-6.8,13.1-6.3c8.6,0.5,14.1,4,15.7,9.4s0.1,14.1,0.1,14.1s7.4-8.8,6.7-17.1c-0.8-8.3-7.3-10.5-12.2-10.9
		s-8.4-0.1-8.4-0.1s-0.1-1.9,5.7-2.8c5.8-0.8,12-2.3,16.5-5.1c4.5-2.8,11.7-9.2,14.1-16.3c2.5-7.1,4-11.8,4.4-20.7
		c0.4-8.9,1.3-21.1-3-28.3c-4.2-7.2-9.2-10.9-14-14.5c-4.8-3.5-8.4-6.2-8.2-12.8c0.2-6.6,5.1-12.6,12-12.4s11.8,5.5,11.7,10.5
		c0,5.1-3.2,9.5-8.8,10c-5.5,0.5-8.3-4.6-6.6-8.5s5.2-2.1,5.2-2.1s-0.3,2,1.7,2c2,0,1.8-1.8,1.2-3c-0.6-1.2-2.6-2.2-5.7-1.9
		c-3.1,0.4-5.2,3.3-5.2,7.6c0,4.3,4.8,8.7,9.4,8.7c4.6,0,8.2-2.9,10-5.9c1.8-3,2.6-9.5,0.8-12.8c-1.9-3.3-7.3-7.3-13.6-7.3
		c-6.3,0-11,5.5-11,5.5s1.8-9.2,11.2-9.5c9.5-0.3,13.9,11.6,20.8,13.5c7,1.9,20.1-1.7,20.1-1.7s-9.8-2.9-12.7-7
		c-3-4.1-10.6-11.6-19.1-12.5c-8.5-1-16.1,3.8-19.2,9.2c-3.1,5.4-5.3,12.8-5.3,12.8s-1.3-6.9,0.8-14.7c2.1-7.8,13.6-14,13.6-14
		s-14.9,0-16.6,15.8c-1.8,16.5,2.2,24.2,8,28.6c9,6.7,14.3,11.5,16.8,15.1s4.1,9.6,4.1,9.6s-5.9-9.6-11.5-14.5s-11-4.3-11-4.3
		l2.8,8.4c0,0,1.4-1.8,4.7,2.1c3.4,4,6.9,9.3,10.2,10c3.2,0.7,4.3,0.6,4.3,0.6s-0.1,3.8-6.8,3.6C387,350,382.4,340,382.4,340
		s-0.5,12.1,5.4,14.6c5.9,2.5,12.6-2.5,12.6-2.5s0.2,7.9,0.2,12.9c0,5-3.3,13.5-3.3,13.5s1.7-13.3-2.7-16.7
		c-4.5-3.3-6.4-1.7-9.6-5.9c-3.1-4.2-4.2-7-4.2-7s-5.4,14.5,0.8,20.5c6.2,6,12.4,7.5,12,14.4c-0.4,6.8-5.2,12.1-12,16.1
		s-15.6,5.4-15.6,5.4s8-6.8,10.1-11.3c2.1-4.5,2.2-16.7,2.2-16.7s-4.9,2.6-8.8,7.8c-3.9,5.3-5.8,11.5-5.8,11.5s-0.4-5.2-2.8-8.2
		c-2.4-3-4.8-4.8-4.8-4.8s9.1-0.7,14.1-4.7c7.4-5.8,6.9-14.6,6.9-14.6s-3.2,10.8-9.2,13.4c-5.9,2.6-12,4-25.9,3.8
		c-14-0.2-29.4,5.3-37.7,14.8c-8.3,9.5-11.7,18.7-10.6,27.1c1.4,10.4,9.5,17.6,17.3,18.8c8.2,1.3,17.7-0.8,20.8-7.3
		c2-4.2,2.3-8.6,1.1-11.7c0.6,0.5,1.1,1.1,1.6,1.8c5.6,7.6-0.7,17.7-2.8,20.8c-6,8.9-18.5,11.5-26.9,21.6
		c-6.5,7.8-6.9,15.3-6.8,21.5s-0.5,11.1-0.5,11.1s-4-3.1-7.4-3.3c-3.4-0.3-6.6,0.8-6.6,0.8s-6.3-2.4-14.9,1.9
		c-8.5,4.3-15,15.7-15,20.9s0.4,7.3,0.4,7.3s0.7-4.2,6.1-6.9c-0.1,1.3-1.4,17.6,13.8,24c15.8,6.7,24.6-9.3,24.6-9.3
		s-0.2,0.1-0.6,0.3c0.7-1.3,1.1-2.6,1.2-3.8c0.3-4-2.7-7.8-6-7.9c-3.3-0.1-5.4,3.8-3.2,5.1c2.2,1.3,3.4-1.7,3.4-1.7s5.2,2.5,1.7,7.5
		c-3.5,4.9-15.6,3-15.5-8.3c0-11.3,11.6-15,19.3-10c7.8,5,7,15.9,7,15.9s-2.9,4-5.1,10c-2.2,6.1-5.5,21.1-10.7,29.7
		c-5.2,8.7-16.5,11.8-16.5,11.8s6.9,1.4,18.5-4.3s15.4-30.1,15.4-30.1s-1,15.7-4.5,23.9c-3.5,8.2-17.9,30.9-44.3,30.8
		c-26.4-0.1-37.1-14.1-38-15.3c-0.9-1.2-1.6-0.1-1.6-0.1s13,20.3,40.7,20.4s41.5-17.8,48.5-32.8c7-15,3.2-38.4-0.3-49.8
		s-9.9-15.3-16.7-15.4s-16.5,5.6-15.9,15.6c0.3,5,2,8.4,4.4,10.6c-1.3-0.4-2.6-1-3.9-1.7c-10.5-5.9-15.5-14.5-15.9-15.1
		c0.6-0.3,1.3-0.6,2.1-0.9c7.4-2.6,15.7-5,18.8-11.1c3.1-6.2,3.6-9.7,3.6-9.7s2.2-1.9,6.2-0.6s8.1,4.6,12.2,11.9
		c4.1,7.3,14.8,25.2,14.8,47.1s-10.5,46.8-28.6,56.9c-18.1,10.1-46.1,11.2-65.3-0.7s-24.2-26.6-22.8-40.5s12.1-35,32.3-34.2
		c20.2,0.8,29.6,10.8,29.5,25.1s-6,21.8-16.8,21.8s-14-5.5-14.6-10.1c-0.6-4.7,1.1-8.1,2.6-6.6s2.9,3.1,4.9,1.6
		c2-1.5-0.6-6.7-4.5-6.6c-3.8,0.2-8.6,4.5-7.2,12.2c1.4,7.7,8.3,14.2,18.7,14.5c10.5,0.3,23-9.4,21.5-26.5s-9.6-28.9-33.7-29.8
		c-24.1-0.9-38,19.6-39.5,37.5c-1.5,17.8,5.3,36.4,26.7,48.8c21.4,12.4,54.7,10.5,69.7,0.1s28.2-31.8,29.8-50.1s-0.8-27.2-0.8-27.2
		s6.4,15.5,0.6,39.4c-5.8,23.9-18.5,35.1-28.8,41.3c-10.3,6.2-18.1,10.5-24.3,12.3c-6.3,1.8-25.2,5.3-42.4-1.3
		c-17.3-6.6-30.2-19.9-35.4-39.3c-5.2-19.4-5.2-38.6-1.8-45.8c4.4-9.5,10.7-7.1,10.7-7.1s-4.8-6-13.4-1.3
		c-8.5,4.7-15.9,27.6-11.3,46.1c4.6,18.5,18.6,35.2,28.9,40.9s15,7.4,15,7.4s-14.2-1-27.9-8.5c-13.7-7.5-22.9-17.2-25.9-21.7
		c-3-4.6-9.8-18.5-9.8-18.5s11.1-7.7,11.2-15.1s-1.4-15.7-0.6-20.9c0.9-5.2,2.7-8.5,2.7-8.5s-10.2,0.9-12.9,10.5
		c-2.7,9.6-0.8,13.9-0.4,19.5s-0.9,12-0.9,12s-6.8-19.5-3.2-36.9s14.4-23.5,20.9-22.4c6.5,1.1,7.7,5.2,7.2,7.2s-1.9,4-2.5,2.6
		c-0.6-1.4-1.1-3.2-2.8-2.5c-1.7,0.8-1.4,4.1,0.9,4.8s4.6-0.6,6.1-3.7c1.5-3,0.3-11.5-8.6-12.7c-8.9-1.3-22.9,8.7-25.1,25.4
		c-2.2,16.8,0.3,26.8,0.8,29.3s3.1,9.4,3.1,9.4s-9.5-5.3-12.3-16.6c-2.8-11.4-2.1-24.4-2.1-24.4s-14.8,18.6-5.5,32.1
		c9.3,13.4,19.4,8.8,22.1,14.4c2.7,5.6,2.9,6.3,2.9,6.3s-9.6-6.6-16.7-2.2s-5.6,13-3.9,17.2c1.8,4.2,1.6,6.2,0.9,7.4
		c-0.7,1.2-1.3,2.2-1.3,2.2s6.9,0.2,8-6.7c1-6.9-0.4-14.6,5.4-15.4s10.2,1.1,10.2,1.1s2.1,3.8,4,6.5c1.9,2.7,3.7,5.3,3.7,5.3
		s-5.7-2.2-10.5,0.5c-4.8,2.7-3.7,8.5-3.7,8.5s3.4-5.6,8.9-6.4c5.5-0.8,7.7-0.2,7.7-0.2s8.6,9.5,21.6,15.4s24.5,10.3,42.8,11
		c18.2,0.6,31.1-1.6,31.1-1.6s-9.5,9.2-19.2,13c-9.7,3.9-23.1,5.8-38.1,6.6s-18.2,1.6-24.2,4.7c-4.9,2.5-8.7,5.7-8.7,5.7
		s-18.6-0.3-24.2-12.5s-0.6-23.9,6.5-28.1c7.1-4.2,18-3.6,22.6,4.2c4.6,7.8,2.6,20.4-8,20.7s-11.8-9.7-9-14.2
		c2.8-4.5,8-4.4,10.4-2.1c3.5,3.4,0.9,8.1,0.9,8.1s5.3-6.5,0.7-10.8c-4.6-4.3-15.1-3.4-16.3,8c-1.1,10,8.4,14.8,13.7,14.2
		c5.7-0.6,15-6.1,14.2-15.3c-0.8-9.2-5.4-21.3-22.1-19.4c-16.7,1.8-20.9,14.4-21.3,25.3c-0.4,10.9,4.8,18,9.3,21.6
		c4.5,3.6,15.1,8.4,15.1,8.4s-8.4-2-15.7,4.7c-6.8,6.2-8.4,11.1-15.5,10.9c-7.1-0.2-8.1-8.5-7-11.6c1.1-3.1,6.6-7.8,10.3-5.9
		c3.7,1.9,4.7,6.8,2.2,9.4c-2.5,2.6-2.5,2.6-2.5,2.6s6-1.1,5.9-7.3c-0.1-6.2-5-7.9-9.1-7.7c-4.1,0.2-9.4,2.8-10.7,11.3
		s4.5,13.1,10.4,13.4c8.4,0.5,12.8-6.6,15.9-10.3c8.6-10,14.9-8,14.9-8s-13.2,13.2-10.4,27.6s12.8,18.9,20.1,17.7
		c7.3-1.2,13.8-6.1,13.3-14.8c-0.4-8.6-6.7-11.4-11.2-11.3c-4.5,0.1-8.7,3.9-8.9,8.8c-0.2,4.9,4.4,7.2,6.6,6.4s2.3-3.6,2.3-3.6
		s-1.5,3.1-4,2c-2.5-1.1-4.5-5.7-0.7-9c3.7-3.3,9.6-1.8,12.2,3.1c2.6,4.8,1.3,13.8-7.1,15.2c-8.3,1.4-17.3-4.7-18.1-13.7
		c-0.8-9,1.1-18.5,7.3-25.9c6.2-7.4,14.2-17.1,38.6-17c24.4,0.2,35-7.9,35-7.9s-11.7,12.9-24,20.5c-12.3,7.6-19,13.5-21.6,21.4
		c-2.5,7.9-1.9,15.7-1.9,15.7s0.9-8.3,12.5-15.2c11.6-6.9,20-14,24.3-23.1s10.9-16.8,12.8-17.8c1.9-1,4-2.1,4-2.1s-6.1,7.7-10,14.2
		s-7.2,15.4-7.2,15.4s-24.9,19.5-32.6,39.8c-11.9,31.1,2.3,44,2.3,44s-3.7-8.2,6-18c9.7-9.8,15.9-18.6,16.9-30.7s5.5-26,5.5-26
		s-3.4,19-1.2,27.1c2.2,8.2,4.1,12,4.1,12s-8.1,16.6-4.1,28.4c4,11.8,11.1,18.4,19.4,22.3c8.3,3.8,10.3,3.3,10.3,3.3
		s-4.8-3.7-6.5-10.2c-1.7-6.5-4.2-16.3-8.6-22.1c-4.4-5.8-7.5-7.5-8.5-12.6c-0.9-5-0.2-6.4-0.2-6.4s4.8,9,12.7,12.3
		c7.8,3.3,15.5,4.5,15.5,4.5s-1,14.5,10.5,22c11.5,7.4,28.3,9.3,28.3,9.3S292.1,769,282.1,763.3z"/>
	<path class="st0" d="M278.3,487.2c5.2-1.3,9.9,1.4,9.9,1.4s-7-8.2-15.5-10.6c-8.5-2.4-16.8,3.2-23.4,3.3c-6.5,0.1-9.1-3.9-9.1-3.9
		s0.5,5.6,4.2,8.9c4.3,3.9,12,5.9,17.6,6C267.7,492.4,273,488.5,278.3,487.2z"/>
	<path class="st0" d="M295.6,480.4c0-6.3-2.5-13.9-8.9-19.9c-6.4-6-8.3-10.3-8.3-10.3s-3.5,14.1,1.4,25.1c4.9,10.9,15,14.5,15,14.5
		S295.6,486.7,295.6,480.4z"/>
	<path class="st0" d="M298.4,457.6c0-5.6-2.4-16.4-13.9-20.2c-13-4.3-19.3,3.7-19.8,8.3c-0.6,4.5,1.3,6.8,4,5.7c2.7-1,0.2-4.3,0.2-4.3
		s0.4-10.3,15.2-6.4c14.8,3.8,13.2,30.9,13.2,30.9S298.3,463.2,298.4,457.6z"/>
	<path class="st0" d="M272.3,473c0,0-6.5-11.5-21.7-10.9c-15.2,0.6-20.8,7.1-23.2,10.3c-2.4,3.2-5.8,16-1,16.7c4.8,0.8,5-3.8,3.8-4.7
		c-1.1-0.9-1.8,0.1-1.8,0.1s-1.8-8.8,6.2-14.6C242.7,464.2,257.1,461.6,272.3,473z"/>
	<path class="st0" d="M260.9,495.1c0,0-17.1-2.2-23.2,9.3c-6.1,11.4,1.5,15.6,5.1,15.4c3.6-0.3,6-3,6-5.3c0-2.3-3.8-3.2-4.3-1.5
		c-0.5,1.8-0.4,2.6-0.4,2.6s-8.5,1.8-3.1-9.7C245.2,496.7,260.9,495.1,260.9,495.1z"/>
	<path class="st0" d="M213,500c1,1.9,2.6,7.8,11.8,7.8c9.3,0,11.5-9.6,9.6-12.5c-2-2.9-5.8-2.1-6.6,0.1s1.8,2.4,1.8,2.4s1.1,0.5-1.3,2.8
		c-2.4,2.3-9.8,1.6-12.1-4.3s-2.8-15.2,3.9-25.2c7-10.5,24.7-15.5,37.4-12.3c12.7,3.3,20.1,17.4,20.1,17.4
		c-3.1-11.9-15.1-21.2-30.4-21.2c-13.8,0-28.6,6.6-35.8,19.2c-7.1,12.6-5.8,22.4-4.7,29c1.1,6.6,0.3,16.1-10.1,16.1
		c-10.5,0.1-12.4-7.1-12.5-12.5c-0.1-5.5,4.2-6.6,4.2-6.6s1.3,4,4.1,1.6c1.6-1.4,1.7-5-2.8-5.7s-8.6,4.3-9.8,9.3
		c-1.2,5-1.7,20.2,16.8,20.3c18.6,0.1,16.4-14.9,14.2-25.2c-2-9.1,0-16.3,0-16.3S211.1,496.6,213,500z"/>
	<path class="st0" d="M217.6,458.1c6.5,0.3,11.7-5.5,26.2-6.1c8-0.3,16.6,3.9,16.6,3.9s-5.4-10.3-12.9-18.3c-7.5-8.1-19-5.3-19-5.3
		s2.8,1.4,4.2,3.2c1.4,1.8,0.9,4.3,5.8,9c4.8,4.6,11.9,5.1,11.9,5.1s-2.5,0.7-6,0.4c-3.5-0.3-9.5-3.6-16.1-5.3
		c-6.5-1.7-8,2.5-14.6,3c-6.5,0.5-7.8-5.6-7.8-5.6s-1.3,1.4-1.2,5.7S210,457.7,217.6,458.1z"/>
	<path class="st0" d="M197.5,469.5c0,0-8.3-0.9-7.5-7.3c0.5-4.6,8.6-10,15.6-4.7c7,5.4,2.6,18.7,2.6,18.7s2.5-2.7,3.3-10.4
		c0.8-7.8-7-13.4-12.1-13.7c-5.1-0.3-12.4,2.3-12,10.5C187.8,470.7,197.5,469.5,197.5,469.5z"/>
	<path class="st0" d="M204.5,472.6c-0.1-5.6-1.6-6.8-8.5-6.6c0,0,6.1,0.6,5.6,5.8s-5.1,5.4-11.1,7.1s-10.3,6.3-10.3,6.3s5.1-2.8,11.1-3.7
		C197.4,480.8,204.6,479.1,204.5,472.6z"/>
	<path class="st0" d="M179,497.7c6.2-9.4,13.2-4.5,19.6-7.7c9.6-4.8,7.2-14,7.2-14s0.4,4.9-9.7,7.5s-16,0.2-21.2,10.4c-5.1,10.1,2.8,21,2.8,21
		S173.9,505.4,179,497.7z"/>
	<path class="st0" d="M260.9,437c13.9,0,20.8-7.3,25.4-15.3s6.1-15.7,10.3-20c4.1-4.3,7.9-8.8,7.9-8.8s-11,1.9-17.6,12.2
		c-6.6,10.3-9.7,16-18.2,15.9c-8.5,0-9.8-6.5-9.6-10.2c0.2-3.7,3.5-8.3,8.2-8.1c4.8,0.2,5.5,2.1,5.5,2.1s-2.8,2.2,0.1,3.6
		c2.9,1.4,3.8-2.6,2.8-4.4c-1-1.9-4.8-6.5-11.5-4.3s-9.2,8-8.7,14.2c0.4,6.2,7,11.5,12.4,11.4s13.6-3.7,13.6-3.7
		s-6.8,12.4-20.5,11.7c-15-0.8-9.9-9.3-7.9-9.2s0.5,1.8,3.3,1.8c2.8,0,3.1-3.5,0.1-5c-3-1.5-8.5,0.4-9.3,5.7S251.5,437,260.9,437z"
		/>
	<path class="st0" d="M362.7,463.9c1.1,5.1,8.7,7.5,12.3,17.3c2.1,5.7-1,11.3-1,11.3s12.2-2.9,8-18.7C378.9,462.5,362.7,463.9,362.7,463.9z"/>
	<path class="st0" d="M384,659.9c0.4,0.8,2.6,1.9,3.5,0.4c0.9-1.5,1.4-6.1-3.9-6.8c-5.3-0.8-10.4,5.9-11.1,10.2c-0.6,4.4-0.9,12.8,8.8,18.8
		c9.6,6,19.5,3,27.7-3.7c8.2-6.7,10.1-23.5,5.4-37s-19.7-21.9-31.9-21c-9.3,0.6-17.2,2.5-17.2,2.5s0.7-1.8,5.9-3.7
		c5.2-1.9,17.6-0.9,30.5-4.6c12.9-3.7,13.7-20.8,13.7-20.8s-0.8,1.6-5.5,5.7c-4.7,4-14,2.7-27.9,7c-13.8,4.3-18.8,16.9-18.8,16.9
		l-4.2,2.4c0,0,7.9-20.2,4.2-34.5s-14.9-19.7-14.9-19.7s3.5,9.2,1.9,20.6c-1.5,11.4,1.2,16.7,4.3,21.5c3.1,4.8,2.1,13.5,2.1,13.5
		s-14.9,7.8-22.6,26.1c-8.9,20.9-8,44.5-10.8,61.5c-2.8,16.9-7.4,23.6-13.8,29.2c-6.4,5.5-16.5,7.3-16.5,7.3s2.2-0.9,13.5-7.9
		c11.2-7,14.5-28.3,15.6-36.5c1-8.2-0.2-23.5-3.3-32.2s-3.2-18.7-3.2-18.7s-1.5,2.5-5.3,10.1c-3.8,7.6-1.8,19,0.7,27.6
		c2.5,8.6,5.9,19.9,3,31.9c-2.9,12-10,16-10,16s5.3-8.5,7-13.8c1.8-5.3,1.4-12.4-2-21.9c-3.5-9.5-6.8-21-6.8-21s-1.9,5.2-3.6,10.6
		c-1.8,5.4,1,13.5,2.2,17.3c1.2,3.8,3.8,15.6-1.6,28.2c-5.4,12.6-18.5,12.1-18.5,12.1s13.3,1.9,26.2-3.7
		c12.9-5.6,18.7-23.5,20.7-40.6c2-17.1,3.9-36.2,10-53.4c6.2-17.2,21.7-29.1,44.3-31.9c16.6-2,32,18.3,31.7,32.6
		c-0.3,14.3-10,24.3-20.3,25.4c-9.2,0.9-16.8-4.4-17.4-14.9c-0.5-9.3,7.6-10.5,7.6-10.5S383.6,659.1,384,659.9z"/>
	<path class="st0" d="M328.1,636.8c0,0-8.6,9.9-8.7,18.8c0,8.9,6.6,19.4,6.6,19.4s1.6-9,2.2-15.1s-2.1-9.5-1.6-15.1
		C327.1,639.2,328.1,636.8,328.1,636.8z"/>
	<path class="st0" d="M324.5,752c0,0,11.2-8.4,13.9-23.4c2-11.2,0.7-36.3,1.9-44.9c1.1-8.6,6.2-14.4,6.2-14.4s-2.1,0.5-6.9,6.9
		c-4.8,6.4-4.6,23.4-4.6,23.4s3.3,31.3-13.7,45.9c-17,14.6-36.7,10-36.7,10c6.8,2.6,16.8,5.7,25.9,6.7c9.1,0.9,13.8,6.1,13.8,10.3
		s-5,8-5,8s7.5-0.2,8.5-8.3s-8.8-11.7-8.8-11.7s18.1-4.7,21.4,9.2c2.2,9.1-9.1,15.2-9.1,15.2s6.1,1.5,11-1.4
		c4.9-2.9,9.1-11.6,3.2-22.5S324.5,752,324.5,752z"/>
	<path class="st0" d="M395,661C394.9,661.1,394.9,661.1,395,661C394.9,661.1,394.9,661.1,395,661z"/>
	<path class="st0" d="M392.9,759.9c7.5-11.5,4.7-24.3,2.5-32.8s-13.9-18.3-19.7-25.1c-5.8-6.8-9.7-14-9.7-14s6.7,5.8,11.9,9.6
		c5.2,3.8,16.3,4.1,16.3,4.1s-5.1-9.1-12.2-14.2c-7-5.1-18.9-3.6-18.9-3.6s-0.8-0.1-3.5-6.7c-2.7-6.6-2.1-16,3.3-25.4
		c5.3-9.3,17.7-11.8,26.2-6.9c8.1,4.7,6.4,15,5.8,15.9c0.4-0.4,2-2.1,3-6c1.2-4.5-0.9-19.4-19.8-19c-18.8,0.4-24.7,15.9-25.6,28.6
		c-1,12.7,7.5,21.7,7.5,21.7s-1.9,2.8-3,10.2c-1,7.3,1.6,13.7,5.9,19.1c4.3,5.3,5.1,11.2,5.1,11.2s1.2-2.5,1.9-5.9
		c0.7-3.4,0.5-8.4-2.6-16c-3-7.5-3.9-13.9-3.9-13.9s3.6,6.2,6.6,9.9c3,3.7,7.9,8.7,7.9,8.7s-3.7,6.8-6.6,14
		c-3,7.1-1.4,12.7,0.2,18.5S374,756,374,756s6.4-4.7,10-9.7c3.6-5,2.8-14.7,0.3-23.2s-2.7-10.6-2.7-10.6s0.9,0.7,5.5,6.1
		c4.5,5.4,6.6,14,7.4,23.1s-8.2,23.8-25.2,23.8s-23.4-14.2-24.1-22.7c-0.7-8.5,4.7-14.3,10.1-15.7c5.4-1.4,5.7,3.6,5.7,3.6
		s-0.7,0.6-1.4,2.3s0.2,3.2,2.4,3c2.1-0.2,3-2.5,3.1-5.2s-1.5-8.4-9.9-7.7c-8.4,0.7-15.9,12.2-13.4,23.7c2.5,11.6,9.2,16.6,17,20.9
		C366.4,772,385.4,771.4,392.9,759.9z"/>
	<path class="st0" d="M436.3,704.7c9.1-6.7,20.7-13.1,27-19.1s18.1-18.7,22.5-35.5c4.4-16.8,2.2-35.6-1.9-43.7c0,0,4,32.7-12.6,42.7
		c-16.6,10.1-29.8,6.5-36.1,1.5c-6.3-5-4.4-16-0.7-16.7c3.7-0.7,3.7-0.7,3.7-0.7s-3.5,3.8,0.7,5.2c4.2,1.4,5.9-1.1,5.9-3
		c0-1.9-1.5-7.2-8.8-7c-7.4,0.2-11,8.2-9,15.8c2,7.6,9.9,16.6,23.5,15.5c13.6-1.1,22.6-6.5,22.6-6.5s-1.8,6.2-11.5,9.5
		c-9.7,3.3-30.7,6.7-37.7,15.1c-7,8.3-16.3,18-15.3,33c0.9,14.9,7.4,22.2,7.4,22.2s-2.6-16.8,6.6-28.2c9.1-11.4,14.6-13.5,22.6-17.4
		c7.7-3.8,20.6-12,25.6-18.1c5-6.2,10.5-13.8,10.5-13.8s-7.2,16.7-19.5,26.8s-22.5,15.1-27.6,19c-5.1,3.9-10.1,10.7-10.4,19.6
		c-0.3,8.9,4.7,12.5,9.5,14.1c4.9,1.5,5.6,0.1,5.6,0.1s-9.3-4.3-10.4-9.7C427.4,720,427.2,711.4,436.3,704.7z"/>
	<path class="st0" d="M470.4,762.6c-3.1,0.6-4.5,5.2-1.6,6.7c2.9,1.5,4-2.5,4-2.5s2.6,0.3,3,5.1s-6.4,12.3-19.7,12.6s-21.4-4.4-32.5-14.7
		c-9.4-8.7-17-30-17-30s2.8,5.8,10.9,10.8c8.1,5,20.2,5.5,30.8-2.7c10.6-8.2,2.8-24.3,2.8-24.3s1.1,6.1-2.8,12.1
		c-3.9,6.1-15.6,11.1-29.9,2.9c-14.3-8.1-11.2-37.9-11.2-37.9s-2,6.4-3.9,10.9c-1.9,4.4-2.5,11.6-2.1,20.2
		c0.5,8.6,2.3,22.9,2.3,30.8c0,7.8-4.3,21.3-20.7,22.2c-13,0.8-16.7-5.1-16.7-5.1s4.4,7.1,12.4,9.2s16.7,2.7,26.7-5.8
		c10-8.4,1.1-35.6,1.1-35.6s6.2,16.1,14.9,25.4c8.7,9.3,19,14.6,35.7,15.3c16.7,0.7,21-11.3,21.4-17
		C478.6,765.6,473.5,762,470.4,762.6z"/>
	<path class="st0" d="M477.3,697.8c10.9-10.4,24.9-24.6,27.6-37.9c2.7-13.3,2.7-39.7-13.7-49.4c0,0,6.6,28.5-2.8,50.1
		c-9.4,21.6-19,32.4-21.8,41.7c-2.8,9.3-2.1,23.2-2.1,23.2S466.4,708.2,477.3,697.8z"/>
	<path d="M515.1,692.8c0,0,17.4-8.5,18.4-29.7c1-21.3-10.7-41.8-31.6-48.7c0,0,15.8,14.9,14.3,41.4c-1.6,26.6-9.2,29-12.8,29.2
		c-3.6,0.2-6.5-0.6-6.5-0.6s3.5,5.1,10.5,2.7c6.9-2.4,14.1-19.3,13.7-31.3s-4.4-23.7-4.4-23.7s9.9,9.9,9.8,31.2
		C526.3,684.5,515.1,692.8,515.1,692.8z"/>
	<path class="st0" d="M565.3,654.6c-10-15-13.4-18.1-13.4-18.1s10.6,8.4,14.2,13.5s6.7,13.3,13.2,22.4c6.5,9.1,8.6,10.3,10.4,17.9
		c1.8,7.6,2.9,17.3,2.9,17.3s5.5-14.2,1.2-31.1c-4.2-16.9-17.5-31.9-32-40.2c-14.6-8.2-29.9-15.9-45-19.7c0,0,16.4,10.9,19.9,23.6
		c3.5,12.7,0.5,18,3.1,30.4c2.6,12.3,5.7,21.1,4,30c-1.7,8.9-4.2,15-4.2,15s14.8-13.6,15.4-35.1c0.6-21.4-4.9-31.5-12.8-42.4
		S528,622.6,528,622.6s21.8,12.2,30.9,28.8c9.1,16.5,14.7,28,14.4,43.9c-0.2,15.9-0.8,17.8-0.8,17.8s-9.9-5.2-20.7-0.1
		c-10.9,5.1-20.4,17.4-29,19.8c-8.6,2.4-12.3,2.2-12.3,2.2s13.2,9.2,27.3,5.8c14-3.4,24.1-12.1,28.5-16.8c4.3-4.7,4.7-5.9,4.7-5.9
		s-7.2,34.3-36,39.4c-31.5,5.5-46.5-9.8-51.5-23.3c-5-13.5,0.1-33.2,11-35.5s12.5,5.5,12.5,5.5s-5.6,1.9-4.3,6.6
		c1.3,4.7,7.5,4.6,10.1,0.6s0.6-18.4-12.7-18.5c-13.3,0-24.7,9.4-25.7,27.8s9.4,37.4,30.5,42.8s45.2-2.1,54.4-13.1
		c9.2-11,16.9-29.5,17.7-41.9C577.9,693.7,575.3,669.6,565.3,654.6z"/>
	<path class="st0" d="M648.2,716.3c-7.3-6.5-13.1-6.9-19.1-2.5c-6,4.3-5.8,12.5-2.1,15.9c3.7,3.4,9,3.4,12.7,1.6c3.7-1.9,3.2-7.4,1.3-8.9
		s-5.2-2.5-6.5-0.6s-0.6,5.5,1.1,6.1c1.7,0.6,1.7,0.6,1.7,0.6s-5.3,3-8.5-2.3c-3.2-5.3,1.6-8.9,4.2-10c2.6-1.1,8.6-1.1,11.4,3.6
		c2.8,4.8,3.5,13.9-3.1,19s-17.9,6.3-31.5-3.8c-13.6-10.1-16.7-14.5-21.9-23.2s-9.3-18.6-9.3-18.6s2.4,11.2-0.4,22.8
		c-2.8,11.6-10.4,24.8-10.2,37.5c0.1,5.7,3.8,8.4,7.5,12.5c3.4,3.7,3.5,12.1,3.5,12.1s7.6-5.7,6.1-15.1c-2.3-14.2-6.3-12.1-7.4-21.6
		s2.1-19.1,2.1-19.1s0.1,21.4,10,34.8c9.9,13.3,36.6,3.7,36.6,3.7s-16-3.5-24.4-11.6s-11.3-12.2-14.8-21.5
		c-1.8-4.7-3.7-14.1-3.7-14.1s8.3,16.2,25.1,26.7c16.8,10.5,27.5,9.3,35.6,3.5C652.1,737.8,655.4,722.7,648.2,716.3z"/>
	<path class="st0" d="M603.7,622.1c7.1,0.2,9.5,5.2,11.7,8.6s9.9,3.3,15.3,6.7s4.5,8.2,4.5,8.2s6.6-13.6-7.2-24.7c-13.8-11.1-33.8-2-46.7,0.8
		s-21.9,3.3-21.9,3.3s8.4,3.3,13.4,7.1c5,3.8,3.9,12.7,14,21.1s26.7,5.2,26.7,5.2s-3.2,0-10.6-4s-4.8-8.4-7.8-16.9
		c-3-8.6-22-10.1-22-10.1s6-3,12.7-1.3c6.7,1.7,7.3,5.1,9.9,9.5c2.6,4.4,7.3,8.8,13.2,11.2s6.9,6.3,6.9,6.3s1.7-12.9-1.8-20.7
		c-3.5-7.8-23.3-9.4-23.3-9.4S596.6,621.9,603.7,622.1z"/>
	<path class="st0" d="M642.5,656.8c7.9-3.6,12.4-19.9,8.3-30.7s-12.5-21.3-26.3-23.1s-26.2,4.1-38.9,8.4c-12.7,4.3-27.1,9.6-50.5,3.8
		c0,0,14.2,9.2,35.3,3.7s51.6-19.8,67.3-6.2c15.7,13.5,14.5,35.7,4.2,39.9c-10.3,4.1-15.7,1.1-18.3-2.9c-2.6-4,1.1-6.3,1.1-6.3
		s3.4,3.6,4.7-0.4c1.3-4-3.7-5.7-6.5-4.6c-2.8,1.1-6.2,8-2.3,13.5C624.5,657.5,634.6,660.3,642.5,656.8z"/>
	<path class="st0" d="M632.5,524.3c0,0,0-2.5-0.6-3.2c-0.6-0.8-2.8-2.7-4.3,0.2c-1.5,2.8,0.7,6.9,6.1,7.1c5.3,0.2,11.4-3.9,14.2-14.9
		c2.7-11-3.6-21-17.6-24.4s-22.7,4.4-28.1,14.5c-5.4,10.1-1,31.1-2,43.4s-5.7,20.8-5.7,20.8s3.1-5.1,5.7-7.1c2.6-2,4.8-0.5,12.1-4
		c7.3-3.6,8-11.6,10.1-16.2c2.2-4.5,8.1-5.2,8.1-5.2s-3.5-1.1-10.4-1.2c-6.8-0.1-11.5,8.7-13.3,13.4c-1.8,4.7-5.6,6.9-5.6,6.9
		s1.4-6,1.6-8.5c0.2-2.6,0.2-7.8,0.2-7.8s2.5-0.1,8.9-3.6c6.4-3.5,6.7-10.5,9-20.6c2.4-10.1,12.8-8.2,12.8-8.2s-9.3-6.2-18.3,0.4
		c-9,6.6-7.8,15-8.3,21.7c-0.5,6.7-4.1,7.7-4.1,7.7s-0.2-3.1,0.4-17.3c0.6-14.1,8.8-25.7,26.7-24.1c17.9,1.6,13.5,23.5,9.3,28
		S632.5,524.3,632.5,524.3z"/>
	<path class="st0" d="M630.9,479.8c7.8,0.6,17.9,5.5,23.7,16.4s-2.8,26-2.8,26s12.3-10.3,6.2-26.6c-4.9-12.9-18.8-17.5-26.7-17.7
		c-7.8-0.1-11.7,2.1-11.7,2.1s4.3-3.8,7.2-8.1c2.9-4.3,1.3-14,1.3-14s-3.3,3.7-11,10.1c-7.7,6.4-8.6,15.4-8.6,15.4
		s-2.4-10.9,1.4-19.1c2.7-5.8,7.5-10.6,14.1-10.6c6.6,0,10.1,4.4,11.8,8.4c1.8,4-2.4,11.6-2.4,11.6s3.8-5.4,4.5-9.1
		c0.7-3.7-0.8-9.5-7.4-13.2c-6.6-3.6-18.5,0.9-22.7,10.2c-4.2,9.3,0.5,24.8,0.5,24.8S619.7,479,630.9,479.8z"/>
	<path class="st0" d="M630.1,476.7c10.4-2.1,11.8-4.8,13.1-7.6c1.3-2.9,0.3-7.7,0.3-7.7s-0.9,3.8-3.5,6.2c-2.6,2.4-1.4,2.7-3.9,5.4
		C633.6,475.8,630.1,476.7,630.1,476.7z"/>
	<path class="st0" d="M638.3,476.1c6.4-1.5,6.6,0.9,10.6,5c4,4.2,5.4,3.1,5.4,3.1s-0.6-7-5.7-10.5C643.7,470.3,638.3,476.1,638.3,476.1z"/>
	<path class="st0" d="M661.2,573.7c-2.1,5.1-7.9,9.7-7.9,9.7s11.2,0.7,25.9-8.3c14.7-8.9,12.4-34.6,12.4-34.6s-1.5,5.8-5.5,10.1
		c-4,4.3-7.2,2.6-15.1,5.4C663.3,558.7,663.4,568.6,661.2,573.7z"/>
	<path class="st0" d="M686.7,584.5c-17.6,2-15.8,19.7-10.8,24.8c5,5.1,13.1,6.2,16.9,1.7c3.9-4.5,0.9-8.2-2.5-8c-3.4,0.2-1,6.3-1,6.3
		s-10.5,0.1-12.1-5c-1.6-5.1,0.2-14.2,9.1-15.3c9-1.1,14.6,6,16.3,11.2c1.7,5.2,1.3,19.4-14.9,19.2c-16.2-0.2-16.2-13.3-18.7-24.1
		c-0.2-0.7-0.4-1.3-0.6-1.8c0.4,0,0.7,0,0.7,0s-0.4-0.5-1.2-1.2c-3.8-7.2-12.9-5.2-12.9-5.2c0.9,0.2,1.7,0.4,2.5,0.6
		c-0.3,0-0.6-0.1-0.9-0.1c-8-0.7-14.5,3.5-14.5,3.5s5.8-4.9,10.3-13.3c0.8-1.5,1.5-3.2,2-5c0.7-1.3,1.4-2.7,1.9-3.9
		c2.3-5.6,1.2-16.1,1.9-22.1c0.8-6.1,3-12.5,12.5-13.5c9.5-1,13,11.4,13,11.4s0.4-7.2-4.8-12.3c-5.2-5.1-15.3-3.2-21.3,2.3
		c-3.9,3.6-4.5,10.1-4.3,16.8c-0.5-1-1.1-1.9-1.8-2.7c-3.1-3.4-10.3-5-13.3-3.1c-3,1.9-1.5,6.9,1.1,6.1c2.6-0.8,1-3.6,1-3.6
		c0-1.6,11-1.9,11.2,12.7c0.1,11.3-2.9,18.5-10.4,25.9c-6.9,6.9-20.6,8.8-20.6,8.8s12.3-4.7,18.1-15.8c3.6-6.9,3.2-19.9,3.2-19.9
		s-1.9,2.8-3.4,5.5s-6.2,6.3-13.6,11c-7.5,4.7-8,10.6-13.1,17.3c-5,6.6-18.7,11-18.7,11s13.5-10.1,16.4-14.8s4.1-8.7,5-14
		c0.9-5.3,4.7-13.5,4.7-13.5s-11.8,7.6-19.4,14c-7.7,6.5-6.5,14.4-8.2,23c-1.7,8.5-8.4,10.1-8.4,10.1c6.3,0.7,5.5-1.1,21.8-7.5
		c16.3-6.4,29.9-3.7,39.2,0.3c9.3,4,18.8,19.5,16.6,35.8c0,0.3-0.1,0.6-0.2,0.9c-0.9-1-1.3-1.8-1.3-1.8s-0.6,5.2-2.3,11.6
		c-5.5,9.4-14.7,14.4-14.7,14.4s-5.8,0.3-10.7,0.3c-5,0-13.2,3.4-16.9,9.6c-3.7,6.2-0.6,13.9-0.4,17.5c0.2,3.6-3.1,6.9-3.1,6.9
		s2-0.3,6.6-3.4c4.7-3.1,6.3-13,10.3-21.2c4-8.2,12.3-8.4,12.3-8.4s-1.3,1.3-3.2,2.8c-1.9,1.4-11.7,10.6-11.1,21.1
		c0.6,10.4,7.6,20.2,20,19.6c4-0.2,7-1.4,9.3-3.3c-0.5,3.6,0.2,7.8,4.3,11.2c9.4,7.7,27.3,2.9,27.5-13.3
		c0.2-16.2-9.2-19.5-18.7-29.8c-9.6-10.3-7.2-16-7.2-16s1.7,5.1,3.7,8.4c2,3.3,7.1,7.5,15.7,8.7c8.6,1.2,14.1-5.6,16.7-6.8
		c2.6-1.1,5.5,2,5.5,2s-0.2-1-2.1-4.1c-1.9-3-6.6-2.7-11.1-1.3c-4.5,1.4-9.7,3.6-17.9-1.8c-8-5.3-8.8-17.4-8.8-18
		c0,0.5,0.8,8.4,17.2,10.4c16.9,2.1,15.5-19.8,15.5-19.8s-1.5,12.6-16,12.7c-8.9,0-14.5-3.7-17.5-6.6c0.5-4.1,0.5-8.6,0.3-14
		c-0.5-12.8-15.3-24.2-15.3-24.2s7.6,1.2,12.6,11.7c2.2,4.6,3.8,11.9,6.8,15.5c3,3.6,9.6,2.8,9.6,2.8s-4-2.7-4.7-4.7
		c-0.7-2,1.7-9.5-4.7-19s-21.1-7.5-21.1-7.5s-2.2-1-6.5-2.6c-4.3-1.5-8.7-2.1-8.7-2.1l11.6-3c0,0,3.5,4.8,10.3,4.9
		c3.4,0,6.5-1.9,10-3.5c1.2-0.6,2.5-0.9,3.6-1.2c0.9,2.2,1.6,5.1,2.2,9.3c2.1,13.7,6,22,21,21.6c15-0.5,18.8-10.9,19.4-18.5
		C708.9,598.6,702.3,582.8,686.7,584.5z M631.7,687.3c0.6-13,14.1-21.8,21.8-29.5c-1.5,3.7-2.6,7.6-1.3,12.5
		c0.9,3.3,2.6,6.6,4.9,9.7c-1.6-1.1-3.5-1.8-5.2-2c-4.7-0.7-7.6,2.8-7.8,6c-0.2,3.2,3.7,6.5,5.9,3.7s-2.1-3.9-2.1-3.9
		s0.9-3.1,5.6-2.6c2.4,0.3,5.6,4.5,5.7,10.9s-7.6,12.3-13.1,12.4C640.6,704.7,631,701.6,631.7,687.3z M657.9,702.1
		c2.8-3.8,3.7-8.7,3.8-12.6c0.1-1.8-0.2-3.4-0.8-4.7c3.3,3.5,7.1,6.8,10.9,9.5c8.8,6.2,6,19-5.8,18.3
		C659.1,712.2,657.8,706.6,657.9,702.1z M673.8,684.3c7.8,6.4,13.3,16.5,7.4,25.5c-5.9,9-15.1,5.4-15.1,5.4s14-0.2,14-12.6
		c0-9.6-17.5-18.3-23.3-27.9c-5.8-9.6,0.7-18.3,0.7-18.3s-0.4,5.3,0.3,10.3C658.6,671.5,666,678,673.8,684.3z"/>
</g>
        </svg>
