<?xml version="1.0" encoding="UTF-8"?>
<svg xmlns="http://www.w3.org/2000/svg" version="1.1" viewBox="0 0 65 57">
  <!-- Generator: Adobe Illustrator 29.3.0, SVG Export Plug-In . SVG Version: 2.1.0 Build 146)  -->
  <defs>
    <style>
      .st0 {
        fill: #fff;
      }

      .st0, .st1 {
        stroke: #000;
        stroke-miterlimit: 10;
        stroke-width: .4px;
      }

      .st2 {
        display: none;
      }

      .st1 {
        fill: none;
      }
    </style>
  </defs>
  <g id="Calque_3" class="st2">
    <g>
      <path class="st0" d="M16.4,40c-5.9,0-9,.8-9,.8l-2.7,6.1s-.7-1.4-1.6-2.3-1-1.5-1-1.5c0,0,0-12.4,1.5-18.1s6.1-16.1,6.1-16.1c0,0,2.1-.9,6.5-.9s6.5.9,6.5.9c0,0,4.7,10.4,6.1,16.1s1.5,17.5,1.5,17.5c0,0-.2.8-1,2.1s-1.6,2.3-1.6,2.3l-3.1-6.3s-2.6-.6-8.6-.6"/>
      <path class="st0" d="M22.7,9.1s5.2.4,9.9.4,13.9-1,13.9-1l-9,38.5s0,.9-4.3.9-5.6-.9-5.6-.9c0,0,.6-.8,1.6-2.3s1-3.6,1-3.6c0,0-.1-13-2.6-19.7s-5-12.3-5-12.3h.1Z"/>
      <path class="st1" d="M30.3,43.2s-.9-3.1-13.9-3.1-14.3,3.1-14.3,3.1"/>
    </g>
    <g>
      <path class="st0" d="M48.9,40c-5.9,0-9,.8-9,.8l-2.7,6.1s-.7-1.4-1.6-2.3-1-1.5-1-1.5c0,0,0-12.4,1.5-18.1s6.1-16.1,6.1-16.1c0,0,2.1-.9,6.5-.9s6.5.9,6.5.9c0,0,4.7,10.4,6.1,16.1s1.5,17.5,1.5,17.5c0,0-.2.8-1,2.1s-1.6,2.3-1.6,2.3l-3.1-6.3s-2.6-.6-8.6-.6"/>
      <path class="st1" d="M34.5,43.2s1.4-3.1,14.3-3.1,13.9,3.1,13.9,3.1"/>
    </g>
    <path d="M4.7,46.8s-.8-1.3-1.4-2-1.7-1.3-1.1-1.9,2.1-1.4,3.1-1.6,2.1-.4,2.1-.4l-2.7,6h0Z"/>
    <path d="M27.5,46.8l-3-6.1s2.1.3,3.3.8,2.2,1.4,2.2,1.4c0,0-.2,1-1,2.2s-1.4,1.7-1.4,1.7h-.1Z"/>
    <path d="M37.2,46.9l2.7-6.1s-2,.3-3.2.8-2.3,1.5-2.3,1.5c0,0,.8,1,1.7,1.9s1.1,1.9,1.1,1.9Z"/>
    <path d="M60,46.9l-3.1-6.3s1.9.3,3.3.8,2.3,1.5,2.3,1.5c0,0-.5,1.4-1.2,2.3s-1.4,1.7-1.4,1.7h.1Z"/>
    <path d="M12.8,10.1s-2.1,1.1-2.6,3-1.3,6.2-1.3,6.2c0,0,4.1-6.8,3.9-9.2Z"/>
    <path d="M15.1,10.1s-1.4,1.9-1.1,3.8,1.5,6.2,1.5,6.2c0,0,.8-7.9-.4-10Z"/>
    <path d="M19.6,10.1s1.9,1,2.5,2.9,1.5,6.1,1.5,6.1c0,0-4-6.6-4-9Z"/>
    <path d="M45.4,10.1s-2.1,1.1-2.6,3-1.3,6.2-1.3,6.2c0,0,4.1-6.8,3.9-9.2Z"/>
    <path d="M47.8,10.1s-1.4,1.9-1.1,3.8,1.5,6.2,1.5,6.2c0,0,.8-7.9-.4-10Z"/>
    <path d="M52.2,10.1s1.9,1,2.5,2.9,1.5,6.1,1.5,6.1c0,0-4-6.6-4-9Z"/>
  </g>
  <g id="Calque_2">
    <path d="M1.7,4.5c0,.3.1.2.3.2.3,0,.6.2.9.2s0-.3,0-.4h.3l.2.4c.4,0,.8.1,1.2.1v-.5h1.2l-.8.6,1.1,1.3.9-1-.7-.9h1.2v.7c.4-.3,1.5-.1,1.7-.7h.3c-.3.4.2.3.4.3s.9,0,1-.3h.3c-.4.4.3.6.4,1l1.1-1h1.1l-.9.9h1.1c.2-.3.1-.6,0-.9h.3c-.3,1.2.6,1.4,1.4,2l.5-.4c-.7-.4-1.3-.7-1.7-1.5h1c.4.9,1.9,1,2.3,0h.9l-.2.6,1.9.9.5-1.5h.3l-.6,1.6,1.4,1,1.2-1.6-.6-1h.3l.4.7.3-.7h2.1c.5.4,1.6.4,2.1,0h2.4l-.2.6.8.5.2-1.1h1.6c-.3.4.5.8.7.9s.2-.7.2-.9h4.2c-.2.3,0,.2.2.2s.6,0,.8.1.3,0,.2-.3h.3c0,.3,0,.6.3.7s.3-.5.3-.7h.3l-.3.8c.4,0,.7,0,1.1-.1v-.7c0,0,7.2,0,7.2,0-.2.3,0,.7,0,1,.4-.3,1.1-.3,1-1h1.1c-.5.6-.9.8-.3,1.6.5-.5,1.2-.8.6-1.6h2.8l-.2.4c.7.3-.1.8.3,1.2.8-.4.8-1.1.1-1.7h1.4l-.3.9c.8,0,.9-.7,1.5-.9h1.2l-.8,1.7c.5-.5,1.4-.8,1.2-1.7h1.2c.4,1-.3.8-.8,1l-2.1,1.6c1.5-.4,3.1-1.2,3.9-2.6h1.7c.3.6,1.1.9,1.6,1.4v-1.4h.3v1.3s.7-.5.7-.5v1.2h-.7c0-.1-.1,1.4-.1,1.4h.9v.8c-1.4,0-2.9.1-4.3.3l4.3.5v1.4h-.9c0,.4.5.4.9.5v3.6c-.8.3-.9-.1-1.3-.7l-.9.2c-.3,0-.4-.7-.5-.7-.3,0-.6.1-.8,0s-.3-.3-.5-.5c-.3-.2-2.7-.8-3.2-.9s-.3-.1-.4,0c.8.4,1.8.7,2.6,1s2.3,1.2,3.5,1.6,1,.4,1.6.2v1l-.8.2c.1.5.5.1.8,0v.4c-.4,0-.4.9,0,1v.9h-.8c.7,0,.5.4.8.9v15.8c-.3,0-.4.3-.4.5s.3.3.4,0v2.2l-.9.8v2l.9-.2v.3c-.5,0-1,.2-1.5,0s-1.1-.5-1.5-.5-.3.6-.8.5l.3-.3-2.4.5c.3.4.8.7.8,1.3s-.3.7-.4.9c-.1.6.1,1.1-.5,1.6-.9.7-1.2,0-1.7,0s-.6.3-.9.3-.6-.3-.8-.5c-.4.4-.6.7-1.3.7s-.4-.2-.5-.2c-.2,0-.5.3-.9.2-.7-.1-.7-1.1-.9-1.2s-1.1-.3-1.3-.1c.1.5.2.9-.2,1.3s-.7.2-.9.3,0,.9-.9,1-.7-.4-1.1-.7-.3-.1-.5-.2c-.7-.5-.4-.8-.3-1.5l-3-.9c1.1,1.6.3,4.8-1.8,5.1s-2.1,0-3.1-.4c.3.7.9,1.5.8,2.3-2.3,0-4.2-1.2-6.2-2.1,0,1.1-.4,2.8-1.9,2.6s-1.9-2.7-1.6-4.1c-.5.1-1,.4-1.5.4s-1.2-.4-1.3-.4c-.1,0-1.9,1.6-2.2,1.9-4,3.1-8.1,4.6-13.3,4.2s-8.9-4.6-10.3-9.4-.3-1.5-.5-2.2v-2.2l.3-1.6h-.3c0,.1,0-3.6,0-3.6.5,0,.4-.4.4-.8l-.4.2v-15.9c.6.4,1.2.4,1.2-.4s-.7-1.2-1.2-.6v-7.4c.3,0,.6.1.9,0s.5-.3.8-.4c.6-.2,1,.2,1.6.3l.3-1-3.5.2v-.9h1.4c0-.3.2-.8,0-.9l-1.4-.4v-.3c.3.1,1.4.5,1.7.4l.5-1.3c-.8-.3-1.5-.4-2.2.3v-.4c.3-.1.6-.4.7-.7h.3ZM31.8,4.7c-.2.9-.4,1.2.7,1.3.6-.7,0-1.3-.7-1.3ZM34.9,4.7h-.4c-.1.5-.4.8.2,1.1.2,0,.1,0,.1-.2,0-.3,0-.6,0-.8ZM43.3,4.8c-1.3-.5-1.2,1.1,0,1,0-.2-.3,0-.5-.2s-.1-.3-.1-.4c0-.2,1,0,.7-.4ZM48.5,4.8c-.4,0-.5.3-.9.4l.2.6.8-.2v-.8ZM11.4,5.3c-.5-.5-1.1-.3-1.7-.2l.7,1.2,1.2-.5c0,0-.2-.4-.2-.5ZM39.3,5.1c-.4,0-1-.3-1.4,0,.3.5.3.6.9.5s.5-.2.4-.6ZM63.5,6.2l-1.4-1.1c-.8.3-1.2.5-1.1,1.5,1,1,1.6,0,2.6-.3ZM9.2,5.1c-.2,0-1.4.3-1.4.4l1,1.3,1.4-.5c-.1-.3-.6-1.2-.9-1.2ZM4.8,5.3c-.5,0-1.1-.3-1.5,0s-.6,1.3-.6,1.4h1.3s.8-1.4.8-1.4ZM20.6,6.4c0,0-.4-.4-.5-.4-.2,0-1.2-.7-1.3-.7-.2,0-.8.5-.7.8s.7.9.7,1.4l1.8-1.1ZM33.8,6.7c.4-.7,0-1.2-.8-1.4-.2.8-.2,1.4.8,1.4ZM39.4,6.6c.2,0,.6.1.8-.1.2-.5-.3-1.5-.6-1.1s-.4,1-.2,1.2ZM49.1,6.6c1-.1,1.4-.3.7-1.3-.7.4-1.2.3-.7,1.3ZM31.1,7.1c.1-.8.1-1.3-.7-1.7v1.1c0,0,.7.6.7.6ZM46.2,6.5c-.3.3,1,.6,1.1-.2s-.7-.8-1.3-.9v.5c.1,0,.8,0,.8,0,.5.6,0,.8-.6.6ZM5.7,6.2c-.1-.1-.5-.8-.7-.6-.4.3-.8,1.6-.6,2.1.9-.3,2.7.2,1.6-1.3s-.2-.1-.3-.2ZM25.9,5.6c-1.8.2-2.3,2.9.3,2.6s1.5-2.8-.3-2.6ZM36.7,5.6c-1.6.3-1.4,2.7.2,2.5s1.1-2.8-.2-2.5ZM45.1,5.7c-.3-.3-1.1,0-1.1.5,0,1.1,2,.4,1.1-.5ZM50.9,6.3c.8.4,1.1.3.7-.6-.2-.3-.8.5-.7.6ZM55.7,5.6c-.2-.2-1.6.5-1.6,1,0,0,1.4-.6,1.5-.6.1-.1.1-.2.1-.3ZM7.5,5.7c-.6.3-1.1,1-.9,1.7l1.6-.4-.7-1.2ZM14.3,5.7c-1.2,0-2.8.2-2.4,1.9,1.6.5,2.1-.5,2.4-1.9ZM30.2,5.7l-.9.5v.3c0,0,.7,0,.7,0l.2-.7ZM53.6,5.7c-.2-.1-.5.1-.6.4s.3,0,.3.4l-.2.7c.5-.1.8-1.2.5-1.5ZM15.8,8.4l.2-1.7-1.5-1c0,.4-.5,1.2-.3,1.5s1.5,1.2,1.6,1.1ZM34.8,6.1l-.5-.2c-.1.6-.5,1.3.4,1.3v-1.1ZM39,6h-.6s0,1,0,1l.7-.2-.2-.8ZM48.6,5.9h-.7c0,0-.1.8-.1.8h1s-.2-.8-.2-.8ZM17.8,6c-1.4,0-1.4,1.4-1.7,2.4l2.6-.7-.9-1.8ZM32.3,7.4c.4-.8,0-1.2-.8-1.4v1.1c0,0,.8.3.8.3ZM42.4,6.4h-1s0,.3,0,.3c0,.4,1.2-.2,1-.3ZM61.9,8.1h1.6c.2-.3,0-1.5.2-1.8-.3.2-1.6.7-1.7,1s0,.6,0,.8ZM48.9,7.7l1.3-.2c.2-.1,0-.7,0-.9-.8.2-1.3.2-1.4,1.2ZM11.6,6.7c-.6.3-1.4.4-1.9.8.7.2,1.2-.4,1.9.2v-1ZM19.1,7.7l1.8.7,1.4-1.1c0-.1-1.4-.9-1.6-.6l-1.6,1.1ZM33.4,8.2l.3-1.1c0-.1-.9-.5-1-.5v1c-.1,0,.7.6.7.6ZM52.4,6.7c-.3.4-.2.6.1,1,.4-.3.3-.8-.1-1ZM30,6.8h-.8s0,1.3,0,1.3h.5c0,0,.2-1.3.2-1.3ZM61.7,8.1c-.1-.3,0-.6-.1-.8-.4-.6-1.6-.8-1.8,0s1.3,1.1,1.9.8ZM40.3,6.9h-.7c0,0,.2,1,.2,1l.7-.2c0-.1-.1-.7-.2-.8ZM54.4,6.9c-.4,0-.9.1-1,.6.6.1.8,0,1-.6ZM4.1,7.7c0-.2,0-.6,0-.7h-1.5s-.1.8-.1.8h1.7ZM30.1,8.2c0,0,.5.3.6.3.5-.6.5-1.5-.4-1.6s-.1,0-.1.1c0,.3-.2.9,0,1.1ZM43.2,7c-.6,0-1,.9-.3,1.1s.9-.5.8-.5c-.3.2-.5.3-.8.2l.4-.8ZM39.3,7.1c-.6.1-.8.2-1,.8h1.2c0,0-.2-.8-.2-.8ZM58.1,8.2c.5.2,1.1,0,1.3-.5s.3-.7-.2-.7l-.3.7-.7.5ZM34.6,7.4l-.6-.2c-.3.5-.5,1.2.3,1.2l.3-1ZM44.9,7.6c-.6.6.2,1.6.9,1s0-.8,0-1.2v.8c-.4.7-.8-.2-.8-.6ZM9.8,7.8c-.7-.3-1.5-.3-1.7.5.5-.2,1-.3,1.5,0v-.5ZM32.2,7.7l-.9-.2-.3,1.3.8.2.4-1.2ZM46.7,7.5c0,.4.7,1.2,1,.8s-.6-.9-1-.8ZM15.6,8.6c-.8-.3-1.4-1.4-2.4-.8,0,.8.7,1,1.1,1.6l1.2-.6v-.2ZM41.2,8.6l.9-.3-.3-.5h-.8c0,0,.2.8.2.8ZM7.9,7.9c0,0-1.2.2-1.4.3s-.3,0-.2.2c.2.5,1.2.3,1.6.4v-.9ZM33,9.5l.3-.9-.9-.7c-.2.8-.6,1.5.6,1.6ZM40.7,7.9l-.6.3v.8c.9,0,1-.4.6-1.1ZM51.4,7.9c-.1-.1-.9.8-1.1.9.3.1,1.3-.7,1.1-.9ZM18.8,8l-2.5.6,2.7,1.9-.2-2.6ZM20.8,8.6l-1.8-.6.2,2.7,1.1-.5c0-.6.4-1,.5-1.5ZM58.3,8.6l-.9-.6c-.3.3-.7.5-.6,1,.5.1,1.4.2,1.6-.4ZM39.8,9.2c.3-1.1-.7-.9-1.5-1.1l.5,1.3,1-.3ZM48.6,8.2c0,.2-.2.8,0,.9l.5-.4-.6-.5ZM59.9,8.4c-.3-.5-1,0-1.2.3l1.2-.3ZM6,9.5l.4-.6c-.5-.9-2.1-.7-2,.4.6-.5,1.1-.3,1.6.2ZM30.4,9.6c.9-.8-1.7-2.1-1.7-.4s1.1.9,1.7.4ZM38.1,8.4l-1.1.5c.2.4.4.7.4,1.1l1.1-.4-.4-1.2ZM22.2,9.8c.7.7,2.7-.2,1.7-1s-2.5.2-1.7,1ZM34.2,8.8l-.6-.2c-.2.7-.6,1.1.1,1.7l.4-1.5ZM41.5,9.8c.9,0,.8-.4.7-1.2l-.9.3.2.9ZM56.4,9.1c-.1-.5-1.1-.3-1.6-.5,0,.8,1,.3,1.6.5ZM43.2,8.8h-.8c0,0,0,.6,0,.6.4,0,.8-.1.7-.6ZM54.6,9.1l-.2-.4-1.4.5h1.6ZM12.5,9.4c-.4-.5-1.3-.6-1.9-.5l-4.5,1.6c.7,0,1.6,0,2.3-.1s.7-.4,1-.5.5.2.8.2.4-.6.7-.7.6.2.9.2.5-.3.7-.3ZM15.9,9c0,0-1.3.6-1.4.7-.3.3-.2.5-.3.7s-.8.1-.7.7l2.8-.2-.4-2ZM18.9,10.9l-2.7-1.9c0,1.3.5,2.5,1.1,3.6.2,0,.2,0,.2-.1.5-.5.9-1.1,1.3-1.7ZM31,9c-1.3,1.8.8,2.2,1.8.9,0-.1,0-.2-.2-.2-.5-.3-1.2-.4-1.7-.7ZM35.7,9.1c-.3,0-1,.6-1,.9-.4,1.8,2.2,1.4,2-.1s-.7-.9-1-.8ZM40.8,9.1c-.6,0-.5.9-.2,1.3,0,0,.5-.2.5-.2.2-.2,0-1.1-.3-1ZM45.1,10c0-.6-.8-1-1.3-.5l.3.6h1ZM46.5,9.6v-.4c-.1,0-1.2.4-1.2.4v.3c.1,0,1.2-.4,1.2-.4ZM40,9.5l-1.1.2.2,1.3c.9-.2,1.2-.5.9-1.5ZM48.1,9.8c0-.6-.9-.2-1.3-.2v.8c-.1,0,1.3-.6,1.3-.6ZM29.1,10.2c-.5-.9-1.1-.2-1.8-.2l.7.9,1.1-.7ZM12.7,9.8c-1.2.1-.9,1.6-2.3.7-.4.3-.4.8-1.1.7s-.3-.2-.5-.2c-.5-.1-1.1,0-1.6,0l-1,.2c1.4.3,2.8.7,4.3.4s2.2-.7,2.2-1.6ZM42.7,11.5c1.1,0,1.4-.6,1.1-1.7l-1.1,1.7ZM55.2,9.8c0,.5,1.1.7,1.2.2s-1-.2-1.2-.2ZM58.5,10.2l-.2-.3h-1.5c.2.6,1.1.5,1.7.3ZM38.6,9.9l-1.2.6.6,1.1c.9-.3.8-.9.5-1.7ZM42.3,9.9l-.7.2v.9c.7,0,.8-.6.7-1.1ZM45.2,10.8l1.1-.3v-.2c.1-.4.2-.4-.2-.3s-.7.4-.9.8ZM54.7,9.9h-1.2c.3.4.9.4,1.2,0ZM60.4,10.1l-1.5-.2c-.3.3,1.5,1.2,1.5.2ZM53.1,10h-1c.3.6.8.4,1,0ZM29.4,11.7l1.4-.7c-.2-.6-.6-1-1.3-.7v1.5ZM32.8,12.1c.5.2.8-.9.8-1.3s-.3-.5-.5-.7c-.9.4-.3,1.2-.3,2ZM25.7,10.7c.9.4,1,1.3,2,.3l-.8-.8-1.1.3v.2ZM52,10.6c-.2-.4-.6-.5-1-.3v.3s1,0,1,0ZM60.6,10.2c-.2.7,1.3.9,1.4.4s-1.1-.4-1.4-.4ZM41.4,11.4c0-.2,0-1-.2-1l-.6.3.3.9.6-.2ZM45.1,10.4c-.7,0-1,0-1.1.7.5,0,1-.1,1.1-.7ZM57.4,11.1c0-.7-.8-.9-1.3-.4h.7c0,.1.6.4.6.4ZM63.5,11.1c0-.7-.8-.5-1.2-.7,0,.7.6.9,1.2.7ZM20.4,10.5l-1.2.5c.3.6.1,1.2.8,1.6s1.4.3,1.9-.2c-.7-.5-1.3-1.1-1.5-1.9ZM29.2,10.5c-1.1.5-1.3.7-1.1,2l1.1-.6v-1.4ZM59.5,11.1c-.2-.6-1-.8-1.5-.3.5,0,.7.2,1,.5l.4-.2ZM32.5,12.7c.2-1,0-2.2-1.3-1.7l-.2,1.3,1.5.3ZM40.3,10.9l-1,.4.5,1,.9-.6-.4-.9ZM61,11.6c.1-.8-.5-.7-1.1-.7,0,.2.3.1.5.2s.3.4.6.5ZM25.3,11c-.5,1.1.3,1.4,1.2.8,0-.2-1-1-1.2-.8ZM37.4,11c-.4,0-.4.7-.4,1s-.1.2,0,.3c.9-.3.6-.6.3-1.3ZM62.7,11.9c0-.7-.6-1-1.2-.7l.8.3.4.4ZM17,12.9c.1-.1-.6-1.5-.8-1.6-.8.1-1.8,0-2.5.2s-.3.3-.4.4l.7.6c.8.4,2,.3,2.9.4ZM17.7,13c1.6,0,2,0,1.4-1.7,0,0-1.5,1.6-1.4,1.7ZM29.3,13.3c1.2,0,1.7-1.1,1.6-2.1l-1.4.8v1.3ZM39,11.4l-.8.5.5.9.8-.4-.6-1ZM64.5,12.4c.3-.8-.8-1-1.4-.9,0,.4.2,0,.4.1.5.1.6.4,1,.7ZM27.8,11.5l-.8.4.3,1.3c.6-.4.4-1,.4-1.7ZM2.2,11.8c-.4-.4-1.5-.3-1.4.4s1.1.4,1.3.2c.2,0,.1-.4.1-.6ZM2.7,11.6c-.3.1-.2,1.4.5,1.2s.5-1.6-.5-1.2ZM34,12.3c.1.1.6-.3.7-.4-.1-.2-.4-.3-.6-.2v.7ZM35.8,12.8c.8,0,1-.5,1.1-1.2-.5.4-1.2.3-1.1,1.2ZM45.7,11.7c0,0-1,0-1.1.1s-.2,0-.1.2l1.3.5v-.8ZM47.1,11.7h-1.1s0,.7,0,.7c.4-.2.9-.2,1.1-.7ZM48.7,11.8c-.5,0-1.3-.3-1.6.3l.9.5.6-.9ZM49.4,11.8c-.3-.2-1,.8-.9,1,1,.4,1.3,0,.9-1ZM3.9,12.6c.3.2.6.3,1,0,.5-.5-.6-.9-1-.8v.8ZM51,12h-1.3c.2.5,1.2.7,1.3,0ZM35.7,12.1c-.6-.1-.9-.2-1.2.4l1,.3.2-.7ZM25.5,13.9c0-.7.4-1.7-.6-1.9-.4.5-1.3.5-.6,1.1s1.1.8,1.2.7ZM38.4,13c0-.1-.4-1-.4-1l-.8.5.8.6.5-.2ZM43.2,12.8l.2-.7-.9.2c-.2.2.5.5.7.5ZM52.1,12.2c-.3-.2-.7,0-.9.2-.3.4-.2.8-.1,1.3l1.5-.4s-.4-1-.4-1.1ZM14.1,12.9c-.3,0-.6-.5-1-.6s-1.1.2-1.6,0c-.6.9-1.4,1.1-2.2.3l-.2.4c0,.1,1.7.8,1.9.9.4,0,1.9-.5,2.3-.6s.5-.1.6-.3ZM26.7,12.2c-1,0-.9.9-.9,1.7l1.2-.4-.3-1.3ZM43.6,13.1c.2.2.4.1.5-.1l-.3-.8c-.2.3-.5.7-.2,1ZM45.4,12.7l-1.3-.5c0,.7.9,1.1,1.3.5ZM53.3,12.4l-.9-.2.4.9.4-.7ZM64.3,13.8c-.2-.3-1.8-.9-2.2-1-1.5-.4-3.1-.5-4.6-.6l3,.9c.2.1.5,0,.7,0s.5.5.8.5.6-.3,1,0,.2.4.4.4.6,0,.9,0c0,0,0-.2,0-.3ZM6.6,12.7c-.4-.2-.9-.4-1.4-.4,0,.7.9.9,1.4.4ZM29.1,12.3l-1.6,1.2c1.4.8,1.7.3,1.6-1.2ZM41.4,12.7c.2.4.6.4.9,0-.1-.5-.6,0-.9,0ZM47.8,12.8c-.6-.3-1.1-.4-1.8,0,.2.8,1.3.6,1.8,0ZM54.7,12.8c-.8-.5-1.3-.3-1.7.6.7.4,1.6.4,1.7-.6ZM2.7,13.9c.4-.4,0-1.3-.5-1.2s-.4,1-.4,1.2.7.3.9,0ZM50.7,12.8c-.4-.2-.9-.2-1.1.3,0,.1,1.1.6,1.2.5v-.9ZM23.5,14.7l.2-1.6c-.6-.2-1.4-.6-2-.2,0,.3,0,.5,0,.7s-.4.5,0,.9,1.1.1,1.7.1ZM30.6,13.3c.3,0,2.1.5,2.2,0s-1.1-.6-1.4-.6-.7.1-.7.6ZM33.8,13c0,0-.2.2,0,.4.5.4,1.1,0,1.4-.3-.3-.3-1.1-.3-1.3,0ZM4.4,13.6c0-.4-.3-.7-.7-.7s-.7.3-.7.7.3.7.7.7.7-.3.7-.7ZM36.3,12.9c-.2,0-.4,0-.5.2l.7.7,1-.5c-.4-.4-.7-.5-1.3-.4ZM41.5,13.2c-.1-.3-.5-.4-.7-.4s-.7.2-.8.4h1.6ZM54.9,12.9c-.1.1.4.9.5,1l.5-.6c0-.1-1-.4-1.1-.3ZM5,13c-.5.1-.3,1.6.5,1.3s.3-1.6-.5-1.3ZM6.2,14.1c.6.6,1.9-.4.9-.9s-1.4.5-.9.9ZM49.1,13.3l-.8-.2c0,.4.4.6.7.9v-.7ZM7.8,13.3c-.1.7.4,1.1,1,.8.3-.4-.6-1.1-1-.8ZM16.9,13.2h-2.2l.7,2.1c.1-.9.8-1.6,1.7-1.6,0-.2-.1-.5-.2-.5ZM48.2,13.2l-.8.2.2.5.7-.2v-.5ZM14.2,13.3l-2.7.7,2,1,.7-1.8ZM19,13.2h-1.5c0,.7.9.7,1.3,1.1l.2-1.1ZM25.4,15.7v-1.4l-1.5-1c0,.4-.4,1.4,0,1.6s1.3.5,1.5.8ZM34.6,13.7l.6.9,1.1-.6-.7-.7-.9.5ZM56.6,13.3c-.5,0-.8.4-.9.8l1,.7c0-.3-.3-.5-.3-.8s.2-.4.2-.6ZM15.4,16.2l-.6-1.9-.4-.8-.6,1.8,1.6,1ZM29.6,14.6c0-.4.5-.7.4-1.2l-1.3.7.9.4ZM50.8,14.5c.3-.5-1.3-1.2-1.4-1.1v.8s1.4.3,1.4.3ZM54.6,15.2c.4-.8,1-1,.1-1.8-.8.4-.8,1.2-.1,1.8ZM31.5,13.7l-1.2-.2-.5,1c.9.5,1.4,0,1.7-.8ZM33.9,13.9c.1-.2-.3-.4-.5-.4l-.2.6.7-.2ZM52.5,13.5c-.9.2-1.7.2-1.5,1.4,1,.3,1.5-.4,1.5-1.4ZM54.1,15c0-.9-.5-1.3-1.3-1.5-.2,1,.6,1.1,1.3,1.5ZM26,14.2c.7.4,1.6.5,2.2-.1-.5-.5-1.5-.4-2,0s-.2,0-.1.2ZM32.5,13.7c-.9-.2-1.4,1-1.2,1.8.2,0,.2,0,.2-.1s1-1.6,1-1.6ZM20.2,15.2c.3-.3.6-1.1,0-1.2-.6,0-.9,1.2-1,1.6.3.1.9-.2,1-.4ZM58.4,14.1c-.6-.5-1.3.2-1.5.9h1.3s.2-.9.2-.9ZM33,16l1.8-1.2c-.2-1.2-.9-.8-1.6-.2l-.2,1.4ZM2.8,14.1c-.5.1-.6,1.4.2,1.4,1.1,0,.5-1.6-.2-1.4ZM52,19.3c0,0,.3.2.4.3,1-.8,0-1.7-.6-2.4-1.3-1.3-3.8-2.4-5.6-2.7s-2.9-.4-4.3-.4l4.3,1.6c.4,0,.6-.2,1.1,0s.5.8,1.1,1,.7-.2,1.1,0,.5,1,.7,1.2c.3.2,1-.2,1.4.3s0,.9.3,1.2ZM4.1,15.4c.6.5,1.3-.2.8-.8s-1.4.3-.8.8ZM7.5,14.2c-.7.2-.7,1.3,0,1.3s.9-1.5,0-1.3ZM9.8,15.2c.4-.6-.9-1.3-1.2-.7s.8,1,1.2.7ZM5.8,14.3c-.9.3,0,1.9.8,1s-.3-1.1-.8-1ZM11.4,15.2c.2-.8-1.9-1.2-1.2-.2s.7.5,1.2.2ZM46.3,16.1c-.1-.1-3.3-1.2-3.7-1.4-.7-.2-1.6-.4-2.2-.4s-.4,0-.3,0c2.4.7,4.9,1.5,6.9,3s2.7,2.7,4.3,2.7.8,0,.8-.2c-.4-.7-1.2-.1-1.7-.5s0-.9-.3-1.3c-.3-.2-.9.4-1.5,0s-.2-.9-.3-1.1-.5-.2-.5-.2c-.4,0-.7.8-1.3-.1s-.1-.5-.2-.5ZM18.1,16.5c0,0,.2-.4.2-.4.3-1.7-2.1-2.2-2.1-.6s.3,1.5.8.9c-.2-.3-.5-1.5,0-1.5,1.1-.1.5,1.2,1,1.8,0,0,.2,0,.2-.1ZM27.2,16.7v-1.7l-1.5-.5c0,.4-.3,1.2,0,1.5l1.5.8ZM56.5,15l-1-.6-.6,1.1c.3,0,.5.3.9.2s.9-.5.8-.7ZM27.4,16.5l1.9-1.6c-.4-.5-1.8-.4-1.8.3s0,.9,0,1.3ZM54,15.3c-.5-.1-1-.8-1.6-.5s-.3.5,0,.7.9,0,1.2,0,.4,0,.4-.2ZM29.7,16.3l1.2.2c.4-.4.3-.9.3-1.4h-1.3c0,0,0,1.3,0,1.3ZM31.4,17.1l1.2-.9v-1.3c.1,0-1.2,2.2-1.2,2.2ZM35.6,15.4c.6.2,1.1.8,1.7.2-.4-1-1-.9-1.7-.2ZM58.6,16.7l1-.4.3-.8-.5-.5-.8.5v1.3ZM25,15.9c-.9-.9-2.4-1.3-3.4-.5,0,.2,0,.2.1.2.3.2,1.2.7,1.5.8.5,0,1.3-.4,1.8-.5ZM29.5,15.1l-1.7,1.7c1.3.8,1.9-.5,1.7-1.7ZM38.9,15.6l-1.5-.4c0,.7.8.7,1.3.6s.3,0,.1-.2ZM62.3,16.5c.2-.9-.7-1.1-1.4-1.3,0,.4.5.2.7.4s.5,1.1.6.9ZM8.5,15.4c-.8,0-1.2,1.6-.3,1.7s1.3-1.7.3-1.7ZM58.3,15.3c-.4,0-.8,0-1.1,0s-.2,0-.1.1c0,.4.8,1.4,1.3,1v-1.1ZM9.5,16.8c.7.7,1.8-.8.7-1.3s-1.3.6-.7,1.3ZM11.2,15.5c-.8.6.1,1.9,1,1.1s-.4-1.6-1-1.1ZM3.6,15.5c-.6.2-.6,1.2,0,1.5,1,.4.9-1.8,0-1.5ZM5.3,15.5c-.8,0-1,1.5-.1,1.5s.9-1.5.1-1.5ZM33.8,16.3c.2.2.7.6,1,.6s1.2-.2,1.4-.3c.6-.4-.6-.9-.9-1l-1.5.8ZM56,16.8l1-.6-.3-.7c-.6.3-.9.6-.6,1.3ZM6.7,15.6c-.7.2-.8,1.1-.1,1.4,1,.1,1-1.6.1-1.4ZM2.8,16.8c.2-.2,0-.9-.2-1.1s-.3.6-.5.7l-.4.2c.1.5.9.4,1.2.2ZM14.3,16.4c-.4-.1-1.9-1.3-1.7,0s.9.7,1.5.3.2,0,.1-.2ZM54.3,15.7c-.1,0-1.8,0-1.9.5.8-.2,1.2.6,2.1.4l-.2-.9ZM22.9,17.6c.1-.2.2-.7,0-.9s-1.6-1-1.8-.9l.7,1v1.1c0,0,1-.2,1.1-.3ZM55.7,17c.1-.7-.4-1.2-1.1-1.2.2.7,0,1.6,1.1,1.2ZM38.4,17.5c-.2-.7,0-1.5-1-1.5s-.7.2-.7.6c0,.8,1.2.7,1.8.8ZM38.4,16.2l.3,1.1c.8,0,1.1-.6.7-1.3l-1,.2ZM41.1,17.2c.1-.8-.7-1.1-1.4-1.2l.2,1.2h1.2ZM25.3,16.1c0,0-1.9.6-2,.6-.1.1-.3.7-.2.8,1.3.7,2.5.1,2.1-1.5ZM27.2,19.1v-1.5c0-.8-1-1.1-1.7-1.2v1.7c0,0,.5.9.6,1,.3.2.7.2,1.1,0ZM60.7,16.3c-.5,0-1.2.6-1.3,1.1.4.5,1.8-.3,1.8-.8s-.3-.3-.4-.3ZM19.2,18.2c.9.5,1.9,0,1.8-1s-2-1.1-2.2,0c.6-.2,2.2-.5,1.4.6l-1,.4ZM30.7,16.7c-1.5-.4-2.1.6-1.1,1.8l1.1-1.8ZM56.5,17.1c.5.2,1.1.4,1.5-.1-.3-.5-1.3-.5-1.5.1ZM34.3,17.2c-.4-1-1.3-.4-1.8.2.7.3,1.2,0,1.8-.2ZM59.5,16.7l-.9.3.3.3.5-.7ZM8.7,17.2c-.6.7,0,1.7.8,1.2s.3-1.3-.3-1.5c0,0-.4.3-.5.3ZM11.2,17c-.8-.8-1.8,1.6-.4,1.4s.9-1,.4-1.4ZM13.1,18.4c.2-1.2-.3-1.8-1.4-1.2-.2,1.2.4,1.5,1.4,1.2ZM36.4,16.9c0,0-1.1.2-1.2.3s-.2,0-.1.2l.5.6c.1-.1,1-.9.8-1.1ZM54.2,16.9c-.3,0-.5,1.2,0,1.4.2-.3,1-1.1.4-1.3-.1,0-.3,0-.4,0ZM63.5,18.3c.2.2.7-.8.4-1-.2-.3-1-.3-1.3-.4,0,.4.7.2.9.4v1ZM3.5,18.3c.6-.6-.3-1.8-1-1.2s.4,1.7,1,1.2ZM4.5,17.1c-.8.1-.5,1.6.3,1.5s.6-1.6-.3-1.5ZM6.4,17.2c-.2-.2-.6-.1-.8.1-.5.6,0,.9.4,1.3.6,0,.7-1.1.4-1.4ZM7.2,17.1c-.7.2-.4,1.7.5,1.4s.4-1.7-.5-1.4ZM27.4,17.2c0,.6,0,1.2,0,1.8.4,0,1.8.4,1.8-.2s-.5-1.3-.6-1.4-.9-.3-1.1-.3-.2,0-.2,0c0,0,0,.1,0,.1ZM17.2,17.2c-.8.2-.6,1.5.5,1.5s.7-1.8-.5-1.5ZM58.7,19.2c0-.7.4-1.6-.4-2.1-1.1.3-.7,1.1-.4,1.9h.9ZM15.9,17.8c-.3-.6-2.1-.7-2,.1s.5.8.9.9.8,0,1.1-.3c-.4.1-1.7,0-1.4-.6s1,0,1.5-.2ZM55.9,17.3c-.8,0-1.2.6-1.5,1.3.8-.3,1.4-.2,1.5-1.3ZM57.1,17.5l-1-.2c-.4,1.1.5,1.3,1.3,1.7,0-.3,0-1.3-.3-1.4ZM34.9,17.5c-.5-.4-.9.1-1.3.3.3.9,1,.7,1.7.3,0,0-.3-.6-.3-.6ZM36.6,17.4c-.1,0-.8.8-.9.9.2.8.5,1.2,1.3.9s0-1.9-.4-1.8ZM41,17.5c-1-.1-2.9-.3-1.8,1.2.9.2,1.6-.3,1.8-1.2ZM42.6,17.5c-.4-.1-.7-.1-1,0s-.2,0-.1.1l.5.8.6-1ZM44.4,18.3c.2,0,.5-.1.6-.3l-.3-.5c-.2.3-.4.4-.2.8ZM60.5,18.6c.2.2,1.2.6,1.4.3.4-.6-.6-1.1-1-1.4-.3.2-.8.8-.4,1.2ZM33.6,18.6c-.3-.6-.9-1-1.6-.9v1s1.6,0,1.6,0ZM37.4,17.7c0,.8.4,1.3,1.2,1,.2-.9-.5-1-1.2-1ZM43.8,18.8l-.9-1.1-.5.8c0,.2,0,.1.1.2.4.2.9,0,1.3,0ZM41.8,18.7l-.6-.9-.4.9h1ZM30.5,19.3c.8,0,1.4-.7,1.3-1.5-.2,0-1.4,1.3-1.3,1.5ZM60.2,17.9h-1.1s0,1.4,0,1.4c.7-.4,1.4-.4,1.2-1.4ZM24.5,20.1c.5.2,1.2-.4,1.3-.8s-.4-1.3-.6-1.3l-1.2.3c-.1.9,1,.9.5,1.9ZM2.8,18.7c-.6-.4-1.6-.3-1.4.6.3,1.4,1.9.7,1.4-.6ZM45.9,18.4c-.4,0-.9,0-1.2.3.4.2.9.1,1.2-.3ZM3.7,18.5c-1,.2-.7,2,.4,1.7.7-.4.3-1.9-.4-1.7ZM35.9,19.3l-.5-.9-1.1.3.5.9,1-.3ZM55.6,18.5c-.1,0-1.1.3-1.1.4-.6.9,2.6,1.3,2.7.5s-1.2-1-1.6-.9ZM5.7,18.8c-.6-.7-1.3.4-.8,1.2.7,1.2,1.6-.4.8-1.2ZM7.2,18.8c-.5-.7-1.3.3-.9.9h.9c.2-.3.3-.7,0-.9ZM8.5,18.7c-.7-.3-1,.3-1,.9s-.1.1,0,.3l.9-1.2ZM10.6,19.4c.1-.6-.4-1.2-1-.7l1,.7ZM12.2,19.3c.4-.9-1.5-1.2-1.4-.2l1.4.2ZM46.1,19.6c0-.4.7-.7.2-1.1l-.5.4.3.7ZM13.6,20.6s.4-.8.4-.8c.1-1.3-2.1-1.5-1.5-.1s.6.6.7,1c0,0,.3,0,.4,0ZM21.9,18.8c-.2,0-.8.1-1,.2s-.1.1,0,.2c.4.3,1.8.8,2.1.2s-.8-.7-1.2-.7ZM33.7,18.9h-1.7c.2.5.3.9.7,1,.2,0,1-.9.9-1ZM40.2,19.6v-.8c0,0-.7.2-.7.2l.7.6ZM34.7,20.1l-.6-1.2-.8.9,1.4.2ZM38.9,19.1c-1.3-.2-1.8,0-1.2,1.4.9-.1,1.4-.4,1.2-1.4ZM42.2,20.5c.4-1.3-.5-1.7-1.7-1.6-.4,1.3.5,1.7,1.7,1.6ZM20.2,20.9c0,0,.2-.5.2-.6,0-.9-.8-1.1-1.5-1.2,1.4,1.1.8,2-.5.7-.1,0,0,.3.1.4.3.4,1.4,1.2,1.8.8ZM31.8,19.1h-.3c0,0-.7.7-.7.7h1.3s-.3-.7-.3-.7ZM43.9,19.1c-.4,0-1.1,0-1.5,0,.1.9,1.2.5,1.9.6.1-.1-.2-.6-.3-.6ZM45.7,19.7c0-.5-.1-.8-.7-.7,0,.5.2.7.7.7ZM61.3,19.3c-.7-.3-1.3-.5-2,0s-.6.7,0,.8,1.5,0,1.9-.8ZM17.1,20.1c-.1.4-.5,1.1-1,.9-.3-.6.5-1.2.6-1.7s0-.2-.2-.2c0,.3-.4.4-.6.7-.8,1.1,0,2.3,1,1.5s.2-.7.4-1.1h-.2ZM63.3,19.1c-.7,0,.2,1.1.5.9l-.5-.9ZM46.3,19.9c1.6.7.9-.8.4-.7l-.4.7ZM62.2,19.3c-.4,0-1.2.7-1.1,1.1s1,1.7,1.5,1.4.5-.6.5-.7c0-.2,0-.3,0-.5s0-.3,0-.5c0-.4-.5-.9-.9-.8ZM39.2,19.9h.6c0-.1-.4-.6-.4-.6-.3-.1-.1.5-.1.6ZM28.8,19.4h-2.8c-.3.7-1,.8-.8,1.8l1.4.4,2.1-2.2ZM57.2,19.7c-.5.5,0,1.3.7,1.1s1.1-.8.7-1.2c-.4-.3-1-.3-1.4,0ZM30.6,19.8c-.2-.5-.9-.3-1,.2l1-.2ZM37.1,19.6h-.9c0,.9.4,1,1.2.9l-.3-.9ZM48.1,20.2c-.1-.2-.2-.7-.6-.7v.6s.6,0,.6,0ZM15,19.6c-.8-.2-.8.3-1.1.9l.8,1c.3.1,0-.5,0-.6,0-.5.1-.9.3-1.3ZM53.7,20.3l.7.5c.8-.8.3-1.6-.6-.7s-.1,0-.1.2ZM35.9,19.8h-.8c-.2.1-.2.4-.2.6l1,.4c.3-.2,0-.7,0-1ZM43.6,21.2c.3.2.6-1,.7-1.1,0-.3-1-.1-1.3-.1l.6,1.3ZM2.7,20c-.5.1-.9,1.4,0,1.6,1.7.3.8-1.8,0-1.6ZM43.4,21.5l-.3-.7-.5-.7-.3,1.5c.4,0,.7.2,1.1,0ZM45.5,21c.8,0,.6-1.2-.2-1l.2,1ZM55.2,20.1l-.4.9c.4.7,1.9,0,2-.4.2-.8-1.2-.5-1.6-.5ZM39.7,20.2c-.5,0-.6.5-.6,1s.9,1,1.4.9c1.3-.2.3-2.1-.8-1.9ZM10.1,20.5c0,0-.3-.1-.5-.2l.3,1.5c.2.2.2,0,.2-.1,0-.3.2-.9,0-1.1ZM47,21.2l.2-.7-.8-.3c0,.5,0,1,.7,1ZM4.4,20.3c-.8.2-.5,1.4.2,1.6,1.3-.2,1-1.9-.2-1.6ZM9.3,20.3c-.9,0-.5,1,.2,1l-.2-1ZM11,20.5h-.5c0,.4-.4,1.1,0,1.6l.5-1.1v-.5ZM24.9,20.4c-.9,0-1.9-.2-2.1.9s.4,1.1,1.1,1.1,1-.6,1.1-1-.2-.7,0-1ZM38.9,20.4c0,0-.6.1-.7.2s-.3,0-.2.2l.8.5v-.9ZM44.9,21.6l-.4-1.2c-.3.6-.3,1,.4,1.2ZM58.9,20.4c-1.3.6-.7,2.1.6,2.1.7-.7-.1-1.5-.6-2.1ZM61.2,21.4c-.2-1-1-1.1-1.9-1,.2,1,1,1.1,1.9,1ZM8.6,21l-.2-.5-.9.4c0,.2.2,0,.3,0,.2,0,.5,0,.7,0ZM22.6,21.2c-.5-.1-1-.3-1.3-.7h-.1c-.2.6-.5,1.3-1.2,1.3s-.8-.2-.6,0l.7.9c1.5.4,2.7.3,2.7-1.5ZM37.5,23c-1.6-2.4-5.5-2.8-8.1-2.2-.1.1,0,.2.1.2.7,0,1.3.1,1.9.2,2,.4,4,1.1,6,1.7ZM48.4,20.5c-.2-.1-1,.1-1.1.3-.3,1.7,1.7,1.2,1.1-.3ZM1.1,21.9c.7-.1.5-1.2,0-1.3,0,.3.3.3.3.5s-.1.5-.2.7ZM53.9,21.7c.1-.1.2-.5.3-.6l-.5-.4c-.2.2-.8.6-.7.9s.7.3.9.1ZM11.1,22.6l.8-1.4-.5-.4c0,.3-.8,1.7-.5,1.9h.3ZM37.4,20.8h-1c-.2,0,.7.5.8.6v-.6ZM49.9,21.2c-.4-.5-.4-.5-1.1-.5,0,1.2.4,1.3,1.4.9.1-.3-.2-.3-.3-.4ZM42.2,20.8h-.9s0,.8,0,.8c.5.2.7-.4.8-.8ZM38.5,21.7c.1-.2-.6-.7-.8-.8-.3.9-.1,1.2.8.8ZM55.3,22.4c.9-.2,2-.1,2.4-1.2-.7-.7-2.2.4-2.4,1.2ZM11.3,23.2c.3-.2,1.3-1.3,1.4-1.5s-.3-.7-.6-.4-.9,1.3-.8,1.9ZM18,21.1c0,.5-.5,1.2-.5,1.7,0,.8,1.2.7,1.2-.5s-.4-1.5-.7-1.2ZM52.7,21.4c0,0-1.1-.3-1.2-.3-.4.1-.6.3-.4.8s.9.4,1.3.5c.2-.2.6-.7.3-.9ZM46,21.2c-.5,0-.5.8-.2.9.2.1.9-.3.9-.4,0-.3-.4-.5-.7-.4ZM63.6,21.2c-.8.2-1.1,1.1-.7,1.9.8-.1.7-1.2.7-1.9ZM54.1,22.2h1c.4-.4.3-.7-.2-.8s-.8.4-.8.8ZM36.2,23c-1.4-.4-2.7-.9-4.1-1.2s-1.9-.2-2.8-.4c0,.3,0,.2.2.2,1.9.8,4.5,1.2,6.5,1.5s.1,0,.1-.2ZM43.5,22.5l1.2-.5c-.2-.2-.5-.6-.8-.5-.6.3-.5.5-.4,1ZM58,21.5c-.2,0-.2,0-.2.1s-.4.5-.3.6.5.9.7.8c.2-.5,0-1,0-1.5ZM24.7,24c.2-.7,1.4-1.3,1.7-1.9s0-.2,0-.2l-1.1-.2c0,0-.8.9-.8.9s0,.9.1,1.1,0,.3.1.2ZM50.7,21.6c-.5.2-1.4.4-1.3,1.2s1.5.6,1.5-.5-.2-.5-.2-.7ZM2.2,23.3c1.5-.4.2-2.4-.7-1.1l.7,1.1ZM3.6,21.7c-.9.1-.4,1.5.3,1.7,1-.2.5-1.9-.3-1.7ZM4.9,23.2c0-.5.2-1,.6-1.2v-.3c-.6.2-1.3,1-.6,1.5ZM62.6,23.1c-.2-1.1-1-1.5-2.1-1.4.2,1.1,1,1.5,2.1,1.4ZM8.3,22.6c0-.2-.6-1-.7-.7v.7s.7,0,.7,0ZM40,22.3c0,0-.9-.5-1-.5-.3,0-.6.3-.9.4.2.5.8.9,1.3.9s1.2-.2.6-.8ZM43.2,21.9h-.9c-.1.6,0,1,.9.8v-.8ZM47.6,22.9c.1-.8-.5-1.5-1.1-.6l1.1.6ZM12.5,23c.2-.2.5-.4.7-.7,0-.1-.3-.5-.5-.4-.2.5-1.7,1.4-1.3,2s.2,0,.2,0c.3-.3.6-.6.8-.9ZM16.5,22.4l-1.8-.5c-.3,1.1,1,.9,1.1,1.9h.6c0-.1,0-1.4,0-1.4ZM42.1,21.9c-.5,0-1,.3-1.5.4l1.5.8c.2-.4,0-.8,0-1.3ZM49,23.2c.3-.3.4-1.2-.2-1.3-1.1-.1-1.3,1.7-.6,1.7s.8-.4.8-.4ZM60.9,24.2c.4-1-.2-1.6-.9-2.3-.4.9-.3,2.2.9,2.3ZM7.3,22c-.6,0-.8,1-.3,1.1s.2-.9.3-1.1ZM36.7,23.7c-2.5-.3-5-.9-7.4-1.7-.1.1.8.7.9.8,1.7,1,4.2,1.3,6.1,1.1s.3,0,.3-.2ZM8.9,22.1c-.5.2-.2,1,.3,1.2.6-.3.4-1.4-.3-1.2ZM52.9,23.4c0-.4.6-.7.7-1s-.5-.3-.7-.2c-.4.2-.7,1.1,0,1.2ZM24.2,22.7c-.5,0-1.3-.5-1.7,0s-.4.5-.4.5c0,.1.4,2.1.5,2.2s.4.4.5.4c.1,0,1.2-1.3,1.3-1.4.1-.5,0-1.1,0-1.6ZM52.3,23.5c0-1-1-1.4-1.4-.3.4.4.8.6,1.4.3ZM1.6,23.8c.3-.3,0-1.2-.5-1.3l.4.7-.5.7s.5-.2.6-.2ZM11.5,25c0,0,.9-.6,1-.7.2-.2,1.2-1.2,1.2-1.3,0-.2-.2-.4-.4-.3-.3.2-2.2,1.8-1.8,2.3ZM59.6,23.8c.4-.6-.7-1.1-1.2-1.2-.5.9,0,.9.6,1.5,0,0,.6-.3.6-.3ZM10,22.7h-.2c0,.7.7,1.3.6.6s-.3-.4-.4-.6ZM40.7,23.9c.4-.1,1,0,1.3-.3,0-.2-1.3-.7-1.5-.8l.2,1.2ZM28.1,22.8h-.2c.1.6.1,1,.3,1.5.6,1.8,2.5,4.4,4.5,4.5-1.4-2.1-3.5-3.7-4.6-6ZM20,25.3h2.1c.4,0-.1-1.7-.3-1.9-.4-.4-1.3-.1-1.8-.3-.2.5-.3.9-.9.9l1,1.3ZM43.2,23.1c-.5,0-.8-.1-1,.4s.1.8.4.9.4-.8.6-.9v-.4ZM64.3,23.1l-1.2.2c.2.5.7.6,1.2.6v-.9ZM29.3,23.2c0,0,.9,1.3,1,1.5.2-.1.1-.2.1-.3,0-.7-.7-.8-1.2-1.2ZM2.9,23.3c-.7.2-.5,1.6.2,1.8,1.1-.3.6-2-.2-1.8ZM39.5,24.3c-.2-.4-.2-.9-.7-1,.2.3,0,.5,0,.8l.7.2ZM40.3,23.3h-.7c-.1.7.2,1.1.7.7v-.7ZM27.4,23.4v1.7c0,.1.4,1.1.5,1.3.5,1,1.7,1.9,2.9,2.2-1.1-1-2.1-2.1-2.7-3.5s-.3-1-.4-1.4,0-.3-.2-.2ZM49.8,23.6c-.4-.4-1.4,0-1.3.5s.4.9.5.9c.8.4,1.3-.9.8-1.4ZM63.2,24.7c0,0,.1-.5.1-.6,0-.7-1-.8-1.6-.7,0,0,.6,1.5.7,1.5s.7,0,.8-.2ZM4.5,23.5c-.5.1-.7.8-.4,1.3.7,1.1,1.8-1.5.4-1.3ZM8.3,24.2v-.6c-.4-.5-1.1.7,0,.6ZM9.4,23.5c.3.4.5.6.4,1.1s-.4.8-.1.7.6-.8.5-1-.4-.9-.8-.8ZM11.5,25.8c0,.1,2.4-1.7,2.5-1.9s0-.3,0-.4c-.2-.2-.2,0-.3,0-.4.3-1.7,1.2-2,1.6s-.3.4-.2.7ZM43.1,27.2c1.3-.7,1.8-2.3,1.7-3.7-1.7.5-1.5,2.3-1.7,3.7ZM45.9,23.6c-.4-.5-.7,1-.8,1.3,0,.9,0,1.8.5,2.6.2,0,.2,0,.2-.1.2-.3.5-1.3.5-1.7s-.3-1.9-.4-2.1ZM51.5,23.8c-.4-.2-.8-.3-1.3,0v.8c.7.4,1.1-.2,1.3-.8ZM56.1,23.6l-1.1.2c-.4.2.5.9,1.1.5v-.7ZM61.2,25.4l.9-.4-.7-1.4c-.1,0-.2.3-.2.4-.2.6-.1.9,0,1.5ZM48.1,26.9c0-1.2-.5-2.5-1.6-3.1,0,.8.1,1.7.6,2.4s.8.9.9.8ZM2.1,24.6c0-.1,0-.6,0-.8l-.5.5c.1.2.4.5.6.2ZM10.7,23.9c-.2,0-.2,0-.2.1-.1.3-.1.8.3.8v-1ZM17.4,24.3c-.2-.3-1.3-.5-1.5-.2s-.1.5-.2.7-.3.3-.3.5.5.9.8.9.6-.1.6-.2.7-1.3.7-1.4,0-.3-.1-.3ZM32.4,24.5l-1.8-.5c-.3.3,1.5,1.5,1.8.5ZM42.5,24.8c-.1-.8-.9-.8-1.6-.6.3.8.8.8,1.6.6ZM60.5,24.4c-.8-.6-1.7-.2-1.5.9.6.4,1.3-.3,1.5-.9ZM5.9,24.3h-.5c0,.3,0,.5.3.7.2-.2.2-.4.1-.7ZM18.9,24.2c0,0-.3.4-.4.5-.2.1-.4,0-.6.2s-.8,1.4-.8,1.4c.5.7.8,1.5,1.9,1.1s.9-1.6.7-2.1-.7-.5-.7-1.1ZM38.1,25.2c.3.3.9,0,1.1-.2.3-.8-1.3-1.2-1.3-.4s.1.5.2.6ZM11.2,26.7c.2.2,2.6-1.5,2.9-1.8s.3-.4.1-.7l-2.8,1.9-.3.5ZM41.3,25.5c0-1.2-.9-1.3-1.9-1.1,0,.3,0,1.1.4,1.1h1.4ZM26.4,30.8c-1.1-1.6-1.3-3.1-.8-4.9s.3-.7.4-1.1.1-.3,0-.3c-1.1,1.6-1.5,3.7-.5,5.4s.8,1,1,.9ZM37.5,24.5l-1.3.2c.1,1.6,1.8,1.5,1.3-.2ZM34.3,24.9l-.2-.3h-1.1c0-.1.7.5.7.5l.5-.3ZM34.8,24.7c-.1,0-.2,0-.3.2,0,0,.8.8.9.8.5.2.9-.5.6-.9,0,0-1-.1-1.1,0ZM54,24.7l-.3.7c0,.5,1.5-.2.3-.7ZM55.6,24.7c0,0-1.2.2-.8.7.1.2.2,0,.3,0,.2,0,.8-.4.5-.7ZM.9,26.2c.9-.1,1.1-1,.3-1.5,0,.4.3.6,0,1.1s-.4.1-.3.4ZM26.5,28c-.1-1,0-2.2,0-3.3l-.4.9c-.5,1.6-.4,3.4.7,4.7l.9.7c-.4-1-1-2-1.1-3ZM32.7,24.8c-.8.1-.4,1.4.2,1.8.9.6,1.3,0,.8-.8s-.9-1-1-.9ZM2.1,24.9c0,.7,0,1.2-.6,1.6.3.2.6.6.9.4,1-.7,0-2.2-.3-2ZM4.8,26.7c.1,0,.7.3.8.3,1-.7.5-1.6-.4-2.1-.8.3-1,1.3-.4,1.8ZM32,26.6c.2-1.3-.2-1.7-1.5-1.8l1.5,1.8ZM60.8,24.9l-.8.7.4.9c.6-.3.5-1,.4-1.6ZM3.8,25c-.8,0-.9,2,0,1.9s.6-1.9,0-1.9ZM24.2,26.8l.6-1.9-1.5,1.7h.9ZM49.9,25.1c-.2.2,0,.8.2.9.5.1,1.5-.5.8-1.1-.2,0-.8,0-1,.1ZM10.4,25.1c-.8.7-1,1.4-.2,2.2.1,0,.9-2.3.2-2.2ZM64,26.1c0-.3.4-.9.1-1s-1.2,0-1.5.2l.3.8h1.1ZM11,27.4c1-.2,2-.6,2.8-1.2s.7-.5.6-1.1c-.7.5-1.5,1.1-2.2,1.6s-.9.2-1.1.7ZM42.5,25.1h-.9c0,.1,0,1,0,1h.7c0,.1.2-1,.2-1ZM34.3,25.3c-.7.2.2,2.1,1,1.6s-.7-1.7-1-1.6ZM52.8,26.2c0-.4,0-.7-.3-1l-.3.7c0,.2.5.3.7.3ZM49,26.7c.8-.3.8-1.1,0-1.4v1.4ZM61.4,25.7c0,.8.6,1.4,1.4.8l-.6-1.1-.8.3ZM39.3,25.4c-1,0-.3,1.1.2,1.5l-.2-1.5ZM9.4,25.5h-1.4c-.3,1.9,1.7,2,1.4,0ZM20.9,28.5l1.9-2.4c0-.1-.3-.4-.4-.5-.2,0-2.1,0-2.3.2s-.5.9-.4,1.2,1.1,1.3,1.3,1.5ZM59.8,25.8c0,0-.6-.3-.7-.2v1.1s1.1,0,1.1,0c-.2-.2-.3-.7-.4-.9ZM6.4,25.7c-.1.7.1,1.2.7,1.5.7-.3.7-.9.7-1.6-.5.3-.8.3-1.4,0ZM38.3,26.6c.2-.1.3-.7.2-.9-.4-.2-1-.2-1.1.4s.6.7.9.5ZM54.7,26.6c0-.4.2-.9-.3-1-.2.4-.1.8.3,1ZM56.7,26.3c.2.1.7-.1.8-.3l-.6-.3c-.3,0-.3.6-.2.7ZM35.8,26c-.3.4.6,1.4,1,1.1.7-.6-.4-1.7-1-1.1ZM41.3,25.8h-1.6l.2,1.1c.2,0,1.6-.9,1.4-1.1ZM61.7,28s-.1-1-.1-1.2-.4-.8-.5-.7c-.5.8-.2,1,.4,1.6s0,.3.3.2ZM14.3,26.2c0,0-.6.4-.8.5-.8.4-2.2.8-2.8,1.2s-.2.2-.2.3c1-.2,2-.5,2.9-.9s.9-.4.8-1ZM50.2,27.5c0-.4.3-1.8-.4-1.1s0,1,.4,1.1ZM52.9,27.1c.1-.6-.5-.6-.9-.9l-.3.8h1.2ZM16.1,26.4c-.2,0-.4.9-.3,1.2.4,1,1.3.6,1.9.1-.2-.6-.9-1.5-1.6-1.3ZM42.1,26.6l-.7-.2v.8s.7,0,.7,0v-.6ZM38.9,26.5c-.7.2-.4.9-.2,1.4h.5c0,.1.3-.5.3-.5l-.6-.9ZM41.2,26.5c0,0-.8.6-.9.7s-.1,0,0,.2l.6.3c.3-.3.5-.7.3-1.2ZM55.9,27.8c-.1-.6-.3-1-.8-1.2v.4c.3.1.4.7.8.8ZM54.7,27.1c-.3-.3-.6-.4-1-.3l.3.9c.6-.4.8.2,1.3.4,0-.1-.5-.9-.6-.9ZM3.5,27c-.9-.9-1.6,1.2-.4,1.5.6,0,.7-1.3.4-1.5ZM4.4,26.9c-1.1.5-.6,2.3.6,1.7s.2-1.7-.6-1.7ZM33.5,28.5c.5-.9,0-1.6-1-1.7v.2c-.1,0,1,1.5,1,1.5ZM1.4,28c.5-.4.1-1-.4-1.1l.3.6v.5ZM5.8,28.5c.8.9,1.6-1,.5-1.5-.7,0-.9,1-.5,1.5ZM9.5,26.9c-.7.3-1,1.2-.5,1.7.3,0,.9-.8,1-1.1s-.3-.5-.5-.7ZM22.2,28.1h1.9v-1c0,0-.9-.2-.9-.2-.1,0-1,1.1-.9,1.1ZM34,26.9c-.3,0,0,.9,0,1.1s.8.5.9.4c.4-.3-.3-1.7-1-1.4ZM38,28.4c.3-.4.6-.5.3-1.1s-1.7-.5-1.2.5.7.7,1,.5ZM60.3,26.9c-.5,0-1,0-1.5.1l.9.6.6-.8ZM62.8,28.3c0-.3.7-.9.6-1.2s-1.1-.1-1.4,0c0,.8.2,1,.9,1.3ZM7.3,28.7c.1.1.5.1.7.1.8-.2.8-1.6,0-1.7s-1.3,1.1-.8,1.6ZM27.4,27h-.2c.2.3,0,.6,0,.9s.7.4.7-.1l-.5-.8ZM36.7,28.2c.3-.6-1.1-1.5-1.4-1.1-.2.9.6,1.5,1.4,1.1ZM48.9,28.1c.8,0,.8-.8.1-1.1v1.1ZM60.4,29.1c.1,0,1-.6,1-.8l-.8-1c-.9.4-.6,1.2-.2,1.9ZM1.8,28.4c.1,0,.3-.2.4-.4s.2-.6,0-.7c-.2.3-.3.7-.3,1.1ZM10.4,28.7c.9,0,1.9-.1,2.7-.4s.9-.3,1-.9l-3.7,1.4ZM18.7,29.8c.3-.2.6-.3.9-.4.5-.2.7,0,1.1-.6l-1-1.4-1.4.5.5,2ZM58.5,27.3h-.5s-.3,1.4-.3,1.4h.6c.1-.4,0-.9.1-1.4ZM53.2,27.9c0-.8-.9-.4-1.4-.5l-.2.6h1.6ZM58.6,28.6l.9-.6-.7-.5v1.2ZM41.6,27.5c-.1,1,.8,1.3.5,0h-.5ZM44.8,28.3l-.3-.7c-.4.4-1.1.6-.5,1.2l.8-.5ZM15,29.1l1.2-.5-.7-.8-.5.4v.9ZM50.7,28.3h0c-.6-1-1.6-.3-.9.5s.5-.4.9-.5ZM57.6,27.8c-.2,0-.3.2-.4.2-.3,0-.7,0-.9,0l1.2.5.2-.8ZM47.2,28.1c-.6.7.8,1.5,1.1.2-.4-.2-.8-.7-1.1-.2ZM16.6,28.7v1.5l1.8-.4-.5-1.8c0,0-1.2.5-1.3.7ZM29.3,28.9l-1.2-.9c-.1.9.4,1,1.2.9ZM53.5,28.2h-1.8c0,0,0,.9,0,.9l1.9-.5v-.4ZM60.1,29.2l-.4-1-.7.6c.4.3.7.6,1.2.3ZM61.9,34.5c.4-.1.7-.5.9-.9.6-.9,1.3-3.7,1.4-4.8s0-.4,0-.6l-2.2,6.3ZM46,29.8c.7.8,1.4-1.2.6-1.5-.4-.1-1,1.1-.6,1.5ZM57,28.8c-.7-.4-1.6-.9-2.3-.1.7.9.9,0,1.2,0s.5.1.7.2.3.1.3,0ZM24.2,28.4c-1.1.1-2.4-.5-2.8.8,0,.1,1.1,1.1,1.3,1.1s2-.2,2.1-.4l-.5-1.5ZM33.7,28.5c0,.4.5.6.4,1s-.6.2-.8.4c.3.9,1.6.7,1.7-.1s-.7-1.6-1.4-1.3ZM36.4,29.7c.5-.5-.7-1.8-1.3-1.2-.1.2.2,1,.3,1.2.2.2.9.2,1,0ZM37.8,28.7c-.2-.2-.8-.4-1.1-.3-.3.7.2,1.3.9,1.4s.4-.8.2-1.1ZM43.4,28.4c-.5.3-1,.6-.4,1.2.6-.3.7-.6.4-1.2ZM49.4,29.8c.2-.2.2-.8,0-1.1-.6-1-1.5.2-1.3.7s.9.7,1.2.4ZM2.9,29.4c.2-.6-.5-1.1-1-.6l1,.6ZM10.2,29.3c.3,0,1.4,0,1.9,0s1.2-.3,1.4-.4.4-.4.1-.4c-1.1,0-2.3.6-3.5.6,0,0,.1.2.1.2ZM28.1,30.2c.2-.7.2-1.5-.7-1.7,0,0,.4,1.4.5,1.5s0,.2.2.1ZM60.5,35.1c.9-.2,1.2-1,1.6-1.7.7-1.5,1.2-3.2,1.5-4.9-1,.9-1.1,2.5-1.6,3.8s-.3.6-.4.9-1.1,1.8-1,1.9ZM4.2,28.8c-.4-.4-1-.2-1,.4s.7.7,1.1.8c.1-.3.2-1-.1-1.3ZM45.1,28.6l-.9.4.3.6c.2.1.6-.4.8-.4l-.2-.6ZM6.3,30.3c1.2-.2,2-.8.6-1.5-.8.3-.7.8-.6,1.5ZM42.6,29.9c.2-.2-.5-1.4-.7-1.2.2.6-.9,1.1,0,1.5l.7-.3ZM61.8,29.3c.1-.2-.2-.6-.4-.6-.3.3-1.1.8-.4,1.1l.8-.5ZM6,30.3c0-.7.3-1.5-.6-1.5s-.7.8-.7,1.4h1.4ZM8.9,29.1c-.3-.7-1.1,0-1.1.6l1.1-.6ZM51.9,30.1c.3.2,1.6-.6,1.9-.8s.3-.1.2-.3c-.1-.5-1.8.4-2.3.3v.7ZM16.4,28.9c-.6,0-1.8.7-1.8,1.3s.5.8.6,1.1c.4,0,1.2-.3,1.2-.7v-1.7ZM39.6,29c-.1,0-.3.2-.3.3,0,.4.2.5.6.4.8,0,.6-1.1-.4-.8ZM59.5,29.6c-.2-.2-1.6-.8-1.7-.6,0,.5.4.5.6.7s.3.5.5.6h.7c0-.3,0-.5-.1-.6ZM57.5,30.1c.6-1.1-.8-1.5-.9-.2l.9.2ZM30,29.3h-1.4s-.2,1.3-.2,1.3c.8.3,1.8-.4,1.6-1.3ZM31.3,29.8c-.2-.3-.8-.3-1.1-.5v.6s1.1,0,1.1,0ZM43.9,29.3c-.6.1-1.1.8-.5,1.3l.8-.6-.3-.6ZM45.6,29.3l-1,.7.6.7c.7-.3.6-.9.3-1.5ZM48.1,29.7c-.5-.5-1.2-.6-1.1.3,0,1.5,2,.6,1.1-.3ZM63.6,33c.6-.9,1.1-2.2,1-3.3s0-.3-.2-.4l-1,3.7h.2ZM13.1,29.4c-.5,0-1.1.2-1.6.2s-1.5-.1-1.9,0-.4,0-.4.3c1.2,0,3.1.7,3.9-.4ZM50.2,29.4c-.8,0-.5.9,0,1.1v-1.1ZM54.8,29.9c0-.2-.3-.5-.5-.5s-1.9.9-2.1,1c-.3.2,0,.4,0,.7l2.5-1.2ZM19.9,29.6l-3.2,1.1-.2.4,1.7.7,1.7-2.2ZM22.2,31.9c0-.7.6-1,0-1.6s-1.1-.8-1.2-.8l-1.2,1.6c.9-.2,1.6.5,2.5.8ZM31.8,30.9c.6.6,1.9-.4,1.3-1s-1.2-.2-1.5-.1,0,.9.2,1.1ZM59.1,35.3c.7,0,1.1-.2,1.5-.8.9-1.3,1.6-3.2,1.9-4.7-1.4.5-1.1,2.4-1.9,3.4l-1.4,2.1ZM36.5,30.9c.2.4,1.5.8,1.5,0s-1.5-1.4-1.6-.7,0,.7,0,.8ZM55.5,30.1c-.2,0-.3-.1-.6,0-.6.2-1.7,1.2-2.5,1.3l.3.7c.5,0,3-1.6,2.8-2ZM12.5,30.2c-.6,0-1.1.1-1.6.1s-1.9-.5-2.3,0c1,.1,2.5.5,3.5.2s.3-.2.4-.3ZM30.5,30.1c-.3,0-1,.5-1.1.8s.1.8.2.8c.5,0,.9,0,1.3-.3.6-.5.4-1.4-.4-1.3ZM36.2,30.8c0-.7-.8-.8-1.2-.3l1.2.3ZM42.6,30.2c-.1,0-.6.2-.7.3l.3.6.8-.4c-.2-.2-.2-.6-.5-.5ZM44.4,30.2l-.8.6c.5.6,1,.7,1.6.2l-.7-.8ZM49.1,30.2c-.3,0-.8.3-.8.6,1.2,2.1,2.5-.8.8-.6ZM9.8,32.3c-2.6,0-4.7-1.3-7.1-2.1.6.6,1.6,1.1,2.4,1.5,1.3.6,2.9,1.2,4.3.8s.4,0,.4-.2ZM46,31.8c.2.1,1,0,1-.2,0-1.2-.7-1.8-1.5-.7,0,.2.4.9.5,1ZM14.4,30.4l-.9.4-.3,1.2c.6.7,1.1-.4,1.7-.6l-.5-1.1ZM24.8,30.4c-.9.1-1.9,0-2.2,1-.6,2,1.5,1.7,2.7,2.5l-.5-3.4ZM53.1,32.2l.4.6c.7.2,2.6-1.7,3-2.2-.7-.5-1.5.6-2.1,1s-.8.5-1.2.6ZM11.8,30.9l-4.3-.2c0,.2.2.2.3.2.8.3,3.1.8,3.8.3s.2-.1.2-.3ZM61.1,30.6c-.8.2-.9,1.3-1.3,2s-1.2,1.5-1.9,2.3-.3.3-.2.4c.7.4,1.5-.7,1.9-1.2.7-1,1.3-2.3,1.5-3.5ZM41.6,30.7l-.8.6c.4.3.7.8,1.1.3s0-.7-.2-.9ZM50.4,30.7c-.5.7.3,1.4.9.8.2-.2-.8-.8-.9-.8ZM26.8,31.8l-.9-.4-.8-.7.4,2.9,1.3-1.9ZM28.4,32l.5.6c.8-.7.5-1.7-.5-1.9,0,.4.6,1.1,0,1.3ZM39.1,31l-.8-.2.5.7.2-.5ZM57.2,30.8c-.8-.2-1,.5-1.4.9-.7.6-1.4,1-2.2,1.5l.5.5c.9-.4,1.6-1,2.3-1.7s.9-1.1.7-1.2ZM7.4,32.8c-1.6-.3-3.1-1.1-4.5-2,0,.2.1.2.2.3.7.9,2.2,1.6,3.3,1.8s1.4.2,1-.1ZM58.2,31c-.7-.3-1.1.7-1.5,1.2s-.5.5-.8.8l-1.3,1c.6.7,1.3.1,1.8-.3.8-.6,1.5-1.7,1.8-2.7ZM60.3,30.9c-.9-.1-.9.6-1.2,1.1-.8,1.3-1.5,1.7-2.3,2.7s-.2.1-.1.3c.2,0,.4.2.7,0s1.1-1.1,1.2-1.2c.7-.9,1.4-1.9,1.7-3ZM10.8,31.6c-1.7,0-3.4-.9-5.1-.6,0,.1.3.2.5.3.9.3,2.1.5,3,.6s1.5.3,1.6-.3ZM43.2,31.1c-1.3,0-.2,1.4.6.4-.2-.2-.4-.4-.6-.4ZM59.2,31c-.9-.2-1,.8-1.4,1.4s-.4.4-.5.7l-1.7,1.5c.5.2.5.3,1,0,1.1-.8,2.2-2.3,2.7-3.5ZM31.1,32.7c0-.5.5-.8.7-1.2s.2-.1,0-.2c-.7-.5-1.3,1-.8,1.4ZM48.6,32.4c0-.5-.2-1.2-.7-1.3s-.6.2-.5.6.7.7,1.3.7ZM38.7,31.7c-.3-.2-.6-.5-.9,0s.2,1,.2,1.3c.2-.2.8-1.1.7-1.3ZM39.7,31.4c-.3,1,.9,1.5,1.5.6-.4-.3-.9-.8-1.5-.6ZM45.8,32c-.2-.8-.7-.9-1.3-.3.4.5.7.6,1.3.3ZM42.8,33c.3-.6,0-1.1-.6-1.4l-.6.4,1.2.9ZM49.7,31.7c-1.5.2-.5,1.7.5,1.1s.3-1.2-.5-1.1ZM44.5,32c-.4-.3-1.3,0-1.3.5s0,.6,0,.8c.7,0,1.2-.3,1.7-.8,0,0-.3-.5-.4-.6ZM17.9,33.4c0-1.8-2-1.8-3.1-1s-1.5,3.6-.5,5.1c.1-.3,0-.6,0-.9s.4-.4.4-.5c0-.4-.5-1,0-1.6s.7-.2.9-.4.4-.6.8-.8.8,0,1.3,0ZM20.8,35.6c2-.7,1.6-3.5-.5-3.6s-1.5.6-1.7,1.8c.3,0,.8,0,1,0s.2.3.3.4c.4.4,1.1.6.9,1.4ZM28.9,33.6c0-.9-.9-1.6-1.7-1.7l-1.5,2.1,1.5,1.2c.1-.5,0-2.3.3-2.5.3-.2,1.4.9,1.5.8ZM30.1,32c-.8.2-1.3,1.1-.9,1.8s1.2,0,1.3-.5.4-1.5-.5-1.4ZM35.6,34c.1-.9,1.1-1.5,0-1.9s-1.3.5-1.5,1.6l1.6.3ZM51.5,32.9c-.2-.2-.1-1.1-.5-1s0,1.1.5,1ZM38.6,33.5c.8,0,1.3-.8.8-1.5l-.8,1.5ZM47.2,33.4c.5-1,.4-1.6-.9-1.3,0,0,.6,1,.7,1.2s0,.2.2.1ZM31.5,35.1l1.9-1.3.3-1.7c-1.2.6-2.2,1.5-2.3,3ZM13.5,32.5c-.8-.5-1.4.3-2.3.2,0,.3,0,1.3.4,1.4.8.2,1.7-.8,1.8-1.6ZM41.4,32.4c-.1,0-.5.2-.5.3,0,.3,1.2.8,1.5.4,0-.1-.8-.7-.9-.7ZM46.6,33.4c.1-.1-.7-1.6-1.1-.9-.1.6.6,1,1.1.9ZM2.1,32.4c-.3,0-.2,0-.2.2,0,.8.2,1.7.3,2.4h1.1c0,0-1.2-2.7-1.2-2.7ZM39.6,33.5c.4,0,1,.6,1.2,0s-.3-.8-.8-.9l-.5.9ZM3.5,32.8c0,0-.8-.1-1,0l1,2.2c.1,0,.5-.9.5-1.1s-.5-1-.5-1ZM45.1,32.7l-.6.6.4.7c.5-.4.6-.9.2-1.4ZM48.6,32.8h-.8c0,0-.3.6-.3.6.6.1.9,0,1.1-.6ZM36.5,35.6c.2-1,.7-1.7,0-2.7-.6.6-.7,1.3-.4,2.1s.1.5.3.5ZM48.9,32.9c-.5.4-.5.9,0,1.2.3-.1.6-.3.5-.7,0-.2-.5-.6-.6-.5ZM49.9,33.1c-.4,1,.9,1,1.3.4v-.3c-.4-.4-.9-.3-1.3,0ZM11.1,33.1c-.2-.1-.8.9-.9,1l.8,1.2c.4-.7.2-1.5,0-2.3ZM25.1,34l-2.3-.8-.2,1.9c.7-.3,1.7-.5,2.3-.9s.3,0,.1-.2ZM52.8,33.8c-.1-.2-1.2-.7-1.3-.6-.1.8.7.9,1.3.6ZM42.6,33.5c-.7-.1-1.2-.2-1.7.4.6.7,1.3,0,1.7-.4ZM44.6,34.4c-.2-.6-.8-.9-1.4-.8l.3,1,1.1-.2ZM46.1,33.6c-.3-.1-1,.5-.9.7.3-.2.8-.3.9-.7ZM42.4,35.5c.9-.4,1.2-.9.5-1.8l-.9.7.4,1ZM48.5,34.3c0-.6-.8-.5-1.2-.5,0,.2,0,.2.1.2.5,0,.7,0,1,.3ZM3.8,35.2c.9.2,2.1.2,2.3-.9-.2-.6-1.4,0-1.8-.2l-.6,1.1ZM51.8,34.1c-.4-.4-1.5,0-1.3.7.1.3,1.4,0,1.4,0s0-.6-.1-.7ZM8.2,34.1l-.9.6c0,.9,1,3.2,2.1,2.9v-.2c.1,0-1.2-3.2-1.2-3.2ZM8.5,34.1c.3.8.6,1.6,1,2.4s.4,1.3.9.6c.8-1.2.3-1.9-.6-2.9h-1.3ZM11.3,35.6l1.4-.3v-1.2c-.8.3-1.3.4-1.4,1.5ZM50.2,34.2c-.7-.4-1.4.3-1.3,1.1l1.2-.3v-.8ZM52.8,34.1c-.3,0-.5.2-.6.5,0,.4.5.4.8.4l-.2-.9ZM64.2,35.2v-1c0,0-.3.2-.3.2,0,.3,0,.7.3.8ZM26.9,35.5c-.2-.2-.9-.9-1.2-1s0-.2-.2,0-.6,1.6-.6,1.7c0,.2.5,1.3.6,1.4.3.2,1.3-.1,1.6-.2v-1.5c0-.1-.1-.2-.2-.3ZM7.6,36.6c-.1-.4-.6-2.3-1.2-2s-.6.7-.6.7c-.1.3.5.9.6,1.2h1.2ZM25.2,34.5l-2.5.9c.4.3,1.1,1,1.6.8s.6-1.4.9-1.7ZM32.3,40.6l2-5.9c0-.4-.7,0-1,0-1.3.5-1.4,1.7-1.3,2.9l.3,2.9ZM32.5,41.3c.6-.6.8-1.4,1.3-2.1s.5-.8.7-1.1c.8-1.2,2.1-2.1.2-3.4l-2.2,6.7ZM44.8,34.6l-1.1.3c0,.4-.1.8,0,1.3l1.2-.4v-1.2ZM39.5,35c-.6-.7-2.1-.2-2.4.6,1.1.4,1.5-.2,2.4-.6ZM17.7,39.6c2.6,0,2.8-4.3.4-4.8s-2.6,1.9-2.1,3.6,0,.5.3.6c0-.5.2-1.1.4-1.5.8-1.8,2.4-.5,1.7,1s-.8,1-.6,1.1ZM28.3,34.9c-.3,2.3-.2,4.6.3,6.9s.5,2.6,1.3,2.3.3-1,.4-1.2c.2-2.3-.4-5-1.4-7.1s-.3-.7-.6-.9ZM46.6,35.7c.3.3.6,0,.8-.2-.3-.3-.6-.7-1-.2,0,0,.2.4.2.4ZM52.5,35.3c-.2,0-.4-.2-.5-.2-.6,0-1.2.8-.5,1s.9,0,1-.8ZM43.3,36.1v-.9c-.2,0-.7.4-.6.6l.6.3ZM50.9,35.3c-.9-.4-1.2.2-1.5,1,.8,0,1.6,0,1.5-1ZM30.1,36.3c-.3-.4-.6-.7-1-1,0,0,0,0,0,.1.1.4.4,1,.6,1.5.8,2.4,1.2,4.7.9,7.3.5-.3.6-1.1.7-1.7.5-2.4.4-4.3-1.2-6.1ZM39.3,37.2c.1,0,1.3-.3,1.4-.6,0-.4-.3-1.3-.7-1.4s-.9.4-1.3.5l.6,1.5ZM52.7,36c.4.2,1.2.3,1.2-.3-.5-.5-1.2-.6-1.2.3ZM3.4,35.5h-1.2s-.4,2.6-.4,2.6l.3-.3c0-.3,1.4-2.2,1.3-2.3ZM3.9,35.5l1.3,1.8c.2,0,.9-.4.9-.6s-.7-1.1-.8-1.1h-1.4ZM49.3,35.6c-.9-.2-.8,1.1-.2.5s.2-.4.2-.5ZM10.7,37.4l2.2-.8c.2-.2,0-.9-.3-.9s-1.2.2-1.3.3c-.1.1-.6,1.4-.5,1.5ZM55.1,35.7h-.9s0,.5,0,.5c.4.2,1,0,1-.5ZM4.2,38.7c.7.1.9-.7.8-1.2s-.9-1.3-1.2-1.6l.4,2.9ZM62.8,36.6c.4.3.9-.4.5-.7s-.8.5-.5.7ZM3.6,36h-.2c-.2.9-1.6,2.4-1.7,3s.7,1.2.8,1.3c.3,0,1.4-1,1.5-1.3l-.4-3ZM60.5,36.7c.8.4.9.4.7-.6-.1-.2-.1,0-.2,0s-.5.5-.5.5ZM19.7,40.6c1.2,0,3.3-.4,3.7-1.7s-.8-3.3-2.5-2.4c0,.3.3.5.3.8s-.3.6-.3.8.2.4.2.8c0,.5-.7.5-1,.8s-.4.9-.4.9ZM62.4,36.2h-.8c-.4,1.5,1.3,1.4.8,0ZM51.5,36.4c-.8-.3-1.3,0-1.4.9.7,0,1.4,0,1.4-.9ZM51.9,36.4c-.8.7.9,1.2,1.1.1-.3-.3-.9-.3-1.1-.1ZM54.1,36.4c-.6-.3-.7.3-1,.8.6.3.8-.3,1-.8ZM38.2,36.6c-1-.9-2.3.8-2.8,1.5l-1.6,2.7c1.4-1.4,2.6-3.2,4.5-3.9,0,0,0-.2,0-.3ZM45.6,36.4l-1.5.5,1.2,1.2c.2,0,.5-.7.5-.8s-.5-.5-.3-.9ZM24,39.4c.2,0,.4.2.6,0s.5-1.2.5-1.3c0-.5-.2-1.3-.7-1.5-.9-.5-.3.5-.3.8.1.7,0,1.4-.3,2ZM49,36.6h-.4c0,.5-.7.4-.6,1,.4,0,1.2-.6,1-1ZM49.9,36.6h-.6s-.1.7-.1.7h.5s.2-.7.2-.7ZM57.9,37.3c0-.3-.4-1-.6-.6s.3.7.6.6ZM63.9,37.8c0-.2.8-1.1.3-1.2-.5,0-.7.5-.9.8l.6.3ZM58.4,36.9c-.2.3,0,.9.2.9s.4-.8,0-1c0,0-.2,0-.2,0ZM13.1,36.9l-2.1.8.7.7,1.7-.5-.4-1.1ZM60.1,36.9h-.9c-.1.7.3.8.8.9v-.9ZM61,37.9c.3-.6-.1-.9-.7-1v.9c0,0,.7,0,.7,0ZM43.5,37c.4.7.5,2.4,1.5,1.5.1-.1,0-.2,0-.3-.1-.2-.9-1-1.1-1.1s-.2-.2-.4-.1ZM47.2,37.1l-.3.3.5.8c.7-.5.6-.8-.2-1.1ZM43.3,37.1c-1.1.3,0,1,.5,1.4l-.5-1.4ZM38.5,37.2c-1.4.5-2.5,1.6-3.4,2.7s-.7.8-.6.8l3.3-1.9c.5-.4.9-.9.7-1.7ZM51.4,37.3c-.2,0-.5.5-.5.7.3.6,1,.3,1.1-.3,0-.3-.3-.5-.6-.4ZM55.7,38.9c.7-.5,0-1.7-.7-1.6s-.8.5-.9.8c-.1.6.6,1.3.7,1,0-.5-.2-1,.4-1.3.6.2.4.7.5,1.2ZM8.4,38.7c.2-2.4-4.2-1.3-2.3.5.5-1,1.4-.7,2.3-.5ZM40.6,37.3c-.7.1-1.4.4-1.4,1.2,0,0,1.5-.7,1.4-1.2ZM53.1,38.2c.5-1.7-1.2-.5-.9-.2l.9.2ZM47.1,38.3c-.2-.3-.6-1.1-1-.9l-.3.9h1.3ZM49.5,37.5c-.7,0-1.4.2-1.8.8.8.3,1.5,0,1.8-.8ZM62,37.6c-.5-.2-.7-.1-.7.5l.6.2v-.7ZM49.5,38.2h1c.2-.9-1-.7-1,0ZM62.5,37.6c-.9.3.7,2.2,1.1.4-.2-.2-.7-.5-1.1-.4ZM27.2,37.7c-.5,0-1.3,0-1.6.3s-.8,1.7-.5,2.2c.4-.6,1.2-1.1,2-.9h.1v-1.5ZM15.3,40.2l-1.6-2-2,.7c0,.2,1.4,1.6,1.7,1.7.6.2,1.3-.2,1.9-.4ZM60.6,39l.2-.7c-.5-.3-.9-.2-.9.4l.8.3ZM10.6,41.9c.1.1.4-.9.4-1,.3-1.2.4-2.4-1.1-2.6l-1.2.9c1-.1,1.8.6,1.7,1.6s-.2.3-.2.4.3.5.3.8ZM39.8,38.8l1.3.9,1.4-.5c-.8-1.2-1.6-.5-2.8-.3ZM49.3,38.4c-.1,0-.3,0-.4.2-.3.4.7,1.2,1,.6s0-.8-.5-.7ZM51.2,38.5c-.8-.3-1.1.1-1.1.9l1.1-.9ZM61.9,38.6c-1.3-.6-1.2,1.4,0,1.2v-1.2ZM47,38.6c-.4,0-.8,0-1.1,0s-.2,0-.1.1.4.7.6.6.8-.7.7-.8ZM48.2,38.7c-.7-.2-1,0-1.3.6.7.4,1.1.2,1.3-.6ZM44.5,39.1c0,1.9,1.9,1.1.9-.4l-.9.4ZM58.4,38.9c-.5-.5-1.7-.2-1.7.7,0,0,1.1-.9,1.4-.2s-.6.7-.8,1.2c.7,0,1.8-.9,1.2-1.6ZM62.8,39.2l-.6-.4v.8s.6-.4.6-.4ZM48.6,38.9c-.2-.1-.6.7-.8.8,0,.1.2.6.3.6.2,0,.4-.6.5-.8v-.6ZM59.7,39c0,.5-.2,1,.4,1.1.6-.6.5-1.1-.4-1.1ZM53.7,39.5c-.9-.3-1.9-.4-1.9.8s.7,1.2,1.4,1c.2-.7-1.2-.5-1-1.3s1.5.5,1.5-.6ZM6.4,43.2c-.2-.3-.6-.5-.6-.9s.1-.4,0-.6-.3-.3-.4-.4c-.5-.9.2-1.4.2-1.6-.9-.5-1.4-.2-1.5.8-.1,1.4.7,2.5,2.2,2.7ZM40.6,40.6c-1.1-1.8-2.8-.8-4.1,0s-1.9,1.2-2.8,1.9c2.3-.7,4.5-1.5,6.9-1.9ZM41.8,41.5h1.5l-.2-1.9-1.6.5.4,1.4ZM46,39.8c-.1.1-.2.4-.3.5.6.4,1.3.3,1.6-.4-.1-.5-.9-.4-1.3-.1ZM61.2,40.2c0-.3-.2-.6-.6-.6l-.3.9.9-.3ZM63.5,41.3v-1.7l-1.6,1.1,1.6.5ZM1.5,39.7v2.6h1.1c0-.9-.2-2-1.1-2.6ZM25.4,42.9c-.2-.4-.4-.8-.5-1.3s0-1.7-.3-1.9c-.6-.4-2,1.1-2.5,1.3,0,.1,0,1.1,0,1.3s1.1.8,1.2.9c.5.2,1.6-.3,2.2-.2ZM49.7,39.7c-.8-.1-.9.1-1.2.8.3,0,.6.2.9,0l.3-.8ZM12.1,39.8c-.6,1.1,0,1.6.9,2.2.8-1-.1-1.5-.9-2.2ZM50.3,40.7s-.1-.9-.3-.9l-.2.8h.5ZM55,39.8c-1.5.3-1.3,2.4.2,2.3s1.4-2.6-.2-2.3ZM8.9,40.3c-.4-.4-1.4-.4-1.9-.1-.8.5.2,2.1.8,2.5,0-.5-.5-.9-.2-1.4.3-.3.7-.2.9,0l.5,1c.3-.6.4-1.6-.1-2.1ZM3.5,40.1c-1,.2-.8,1.2-.6,2,.7-.4.6-1.3.6-2ZM27.8,41.6c-.2-1-1.2-2.2-2.1-.9s.7,2.1,1.7,2.3c.2-.2-.3-.3-.4-.4-.3-.3-1.1-1.3-.5-1.6.3-.2,1.2.7,1.3.6ZM47.8,40.1c-1,.4-.5.8,0,1.4.4-.5.2-.9,0-1.4ZM44.6,41.3c.5.1.5-.3.6-.7-.2-.2-.4-.2-.6-.2v.9ZM15.6,40.5c-1.1,0-2.2.4-2.3,1.7l1.8-.3.4-1.4ZM16.1,41.7c.5.4,1.2.7,1.7,0s-1-.9-1.5-1.1l-.2,1.2ZM46.7,40.9h-1.1c-.1,0-.3.5-.3.6l1.1.3.3-.9ZM49.3,40.9c-.8-.2-1.1-.1-1.1.8.7.3,1.2,0,1.1-.8ZM50.5,41c-.3,0-.6-.2-.9,0l-.2.9c.8.3,1.2,0,1.1-.9ZM21,41.3c-.9,0-1.9,0-2.8,0-.2.7,1.3,1.6,1.9,1.6s2.2-.8,1.6-1.8c-.1,0-.6.2-.7.2ZM40.7,41.1c-.2-.2-4.4.9-5,1.1s-.6.2-.7.3c1.1-.2,2.2,0,3.3,0s1.5-.1,1.9-.3.6-.6.5-1ZM47.1,43c.1.1.4.2.5,0,.4-.8,0-1.7-.7-2-.2.5-.3,1.5.2,1.9ZM13,42.3l-1.2-.9c-.6.7-.3,1.6.4,2.2l.8-1.3ZM44.8,41.6c-.5-.1-.4.6-.7.9h.4c0,0,.3-.9.3-.9ZM46.1,42c-.7-.1-1.1-.5-1.2.5s.5.6.8.6l.4-1.1ZM3.6,41.9c-.1-.1-.4.4-.4.4-.2.5.2.9.5,1.3.6-.5.1-1.1,0-1.7ZM43,41.9c-1.2-.1-1.4,0-2.1.9s-.2.1-.1.3c.8-.2,1.9-.3,2.3-1.2ZM55.8,42.8c-.3,1.3.9,2.3,2,1.4s-.1-1.7-.8-2.3c-.6.4.2.7.2,1.1.2,1.2-1.1.7-1.2-.2h-.3ZM49,42.1h-1c0,0,0,1.1,0,1.1h1.1c0,0,0-1.1,0-1.1ZM51.9,42.5l-1.3-.5c-.1.5.2.9.7.8s.5-.1.5-.3ZM16.4,44.6c0-.9.9-2.4-.4-2.6l-.7,1.8,1.1.7ZM19.7,43.2c-.5-.2-1.4-1.1-1.9-1.1-1.1.1-1,1.8-1.2,2.6.9,0,2.1.7,2.8-.2l.2-1.4ZM15.1,42.2l-1.9.3-.8,1.3c.4-.2.9,0,1.3,0,1,0,1.1-.8,1.3-1.6ZM46.4,42.2c0,.5-.7.8-.4,1.3s.8.4.9-.2l-.5-1ZM49.3,42.2v1.1c1.3.7,1.6-1.4,0-1.1ZM53.9,42.4c-.5-.4-1.2.8-1.3,1.1-.1,1,1.7,1.4,2.1.5s.3-1.1.2-1.2c-.6-.2-.5.7-.9,1s-.5.2-.7.2c-.3-.7.4-1.1.5-1.8ZM1.9,44.1l1.5-.3c-.3-.8-.8-1.4-1.8-1.2l.3,1.6ZM21.6,46.5c.4-.2,1.6-.5,1.7-.9s0-1.4,0-1.9c0-.2-1.1-1-1.3-1.1s-1.6.5-1.8.6c-.3.3-.3,1.1-.4,1.4h0c1.1.2,2,.7,1.9,1.9ZM44.3,42.8c-.4-.2-.6.2-.9.5h.7c0,0,.2-.5.2-.5ZM10.9,43c-.1.1-.4.5-.4.6,0,.2.3.6.5.6.2,0,.9-.3.8-.5l-.7-.9c0,.1-.1.2-.2.2ZM45.5,43.3l-.8-.5-.3.6c.4.1,1,.5,1.1-.1ZM51.6,44.5c-.3-.5-.3-.9-.2-1.5-1.5-.4-1.2,1.6.2,1.5ZM5.2,43.6l-1-.6-.3.8c.4.3,1.1.4,1.3-.2ZM27.4,43.6c-.6,0-1.3-.5-1.8-.5s-1.9.3-2,.4c-.3.7,0,1.5,0,2.2.8.5,1.7,1.3,2.7.9-.4-1.2,0-2.3,1.1-3ZM32.7,44.2c2.5,0,5,.7,7.4,1.2h.2c.4-1.3-.3-1.6-1.4-1.8-1.9-.4-4.2-.3-6.1.4s-.3,0-.2.2ZM42.7,45.1c0-1-.8-1.4-1.7-1.6l.4,1.3,1.2.3ZM6.5,44.1c-1-.7-1.9.2-1.6,1.3l1.4.3.2-1.6ZM9.8,45.7l.9-1.2c-.3-.5-.4-.9-.9-.4s0,1.1,0,1.6ZM27.8,46.4c-.6-.8.6-1,1.1-1.5l-.4-1c-2.9,1.5-1.3,4.6,1.6,2.6l-.4-.6c-.6.2-1.1.7-1.8.6ZM14.3,43.9h-2c-.2.2-.3,1.3-.2,1.5s.8.3,1.1.2,1.3-1.6,1.2-1.7ZM3.5,44.1l-1.4.2.4,1.4c.8,0,1-.8,1-1.6ZM3.8,44.2c-.3.7,0,1.2.8,1.1.3-.7,0-1.2-.8-1.1ZM6.8,44.2c0,1.3-.4,2.6,1.4,2.4,0-.4.6-1.8.4-2s-1.7-.5-1.8-.4ZM11.9,44.2c-1,0-1.8,1.4-1.9,2.3s.2.9.1,1.4l1.6-2.2c.2-.5.2-1,.2-1.5ZM13.9,46.1c.1,0,1.8-1.1,2.1-1.3-.2-.1-.7-.7-1-.5l-1.1,1.8ZM48.8,45.1c0-.2-.2-.4-.4-.4s-.4.2-.4.4.2.4.4.4.4-.2.4-.4ZM40,45.8c-1.8-.5-3.7-.9-5.6-1.1l2.3,1.5c1,.4,2.5.4,3.3-.4ZM37.5,49.1c-.9-2.8-4.1-4.4-6.9-4.3,0,.3,0,.2.2.2.7.4,1.6.7,2.4,1.1,1.6.8,3,1.8,4.3,3ZM16.6,46.4c.6-.1,1.3-.5,1.7-1l-1.8-.4v1.5ZM16.3,45l-2.1,1.3-.2.3c.6,0,1.9.8,2.3,0s-.1-1.1,0-1.6ZM9.4,47.3l-.2-1.2-.3-1-.4,1.6c0,.3.7.5,1,.6ZM41.4,45.3l-.5,1.1,1,1.1c.5-.4.7-1.1.8-1.7,0-.3-1.1-.6-1.3-.4ZM37.2,49.5c-.4-1.1-6.5-4.4-6.9-4.1.2.3.5.6.8.9,1.7,1.4,3.9,2.5,6,3.2ZM4.4,47s.2-.9.2-1c0-.7-1.4-.5-1.8,0-.1.2.4,1.1.6,1.2s.9,0,1-.2ZM20.7,45.7c-.3-.3-1.1-.2-1.5-.1.1.2.4.1.6.3s.3.6.3.6c.4,0,1-.5.6-.9ZM6.6,47.9c.5-1.6,0-2.1-1.7-2.1-.4,1.5,0,2.3,1.7,2.1ZM13.1,46c-.4,0-.9-.3-1.2,0l-1.8,2.5c.1.1.9-.5,1-.6.7-.5,1.3-1.2,1.9-1.9ZM21.2,49.2c.5,0,1.5.7,1.9.5s1.6-1.2,1.7-1.4c.5-.8.1-1.5-.6-1.9-1.1-.6-1.2,0-2.3.2h0c.7,1.2.4,1.9-.6,2.6ZM9.2,47.6c-.3-.4-1.6-.7-2.1-.9,0,.4-.3,1-.3,1.3s.8,1.3,1.1,1.2c.5,0,1.8-1,1.3-1.6ZM17.1,48.2c.6,1,2.1.7,2.1-.5s-1.3-.9-2.1-.6c-.3.3,1,.3,1.1.7,0,.6-.6.4-1.1.4ZM41.5,47.8c-.6-1.8-2-.4-3.2-.5.9.8,2.2.8,3.2.5ZM26.2,47.1h-1s0,.9,0,.9c0,0,.9-.7,1-.9ZM13,47.2c-.6.6-.5,1.4-.8,2.1l1.3.6c.2-.2.7-.8.6-1.1s-1-1.6-1.1-1.6ZM16.4,48.7c.3-.9-2.8-1.7-2.9-1.6.4.3.6,1.2.9,1.5.6.4,1.3,0,2,.1ZM20.3,48.6c.7.1,1.4-.7.9-1.3h-.8c.3.6,0,.7,0,1.3ZM4.7,47.4c-.3-.3-.8,0-1.2,0l1,1.5c.5-.2.6-1.2.1-1.5ZM30.7,47.8c-.3,0-.2,0-.2.2-.2.8,0,2.5.9,2.8s1.3-1.4,1-2.1-.6-1-.8-.9c.2.7.6,1.5.2,2.2-.8.5-1.2-1.8-1.1-2.2ZM12.3,48l-1.2.9c-.2.6.6.8.9.4s.2-.9.3-1.3ZM5.1,49.6c.2,0,1.7-.1,2-.2s.2,0,.2-.1l-.8-1.1c-.4,0-1-.2-1.3.1s-.6,1.1-.2,1.3ZM17.3,49.4s-.2-.3-.2-.3c-.2-.1-2-.1-2.3,0s-.8.7-.9,1.1c.2.2,1,.9,1.2.8l2.3-1.6ZM20.3,49.3l-.6-.2c0,.2,0,.4-.2.6-.2.3-.6,0-.5.4.6.2,1.4,0,1.3-.8ZM10.8,49.1l-3.8,1.2c.3.2.9.2,1.2.2s1.1,0,1.5,0,1.5-1.1,1.1-1.4ZM22.6,49.9l-1.5-.5c0,.8-.7,1.3-1.5,1.4v.9s2.8-1.5,2.8-1.5l.2-.3ZM11.6,49.7c-.4,0-1.7.9-1.4,1.3,1,.9,2.6.7,3.1-.7-.4-.4-1.1-.6-1.7-.6ZM19.3,50.8c-.9,0-1.3-.7-2-1.2l-2.3,1.7c.7.1,3.9,1.1,4.3.5v-1ZM14.4,51c0,0-.8-.7-.9-.7l-.7,1.2,1.4,1.2c0-.4.6-1.2.3-1.6ZM6.6,50.8c.7.4,3.4,1.8,4,1.5s.3-.4.4-.5c0-.2-1.3-.9-1.5-.9-.6,0-1.7-.2-2.3-.2s-.5,0-.5.1ZM17.9,52.3c0-.2-.2-.2-.3-.2-.9-.3-1.9-.3-2.8-.6l-.3,1.3,3.4-.5ZM13.6,52.8c.2-.1-1-1.1-1.2-1.2-.7-.1-1.3.2-1.5.8l2.8.3Z"/>
  </g>
</svg>